<svg style="position: absolute; width: 0; height: 0; overflow: hidden;" version="1.1" xmlns="http://www.w3.org/2000/svg" xmlns:xlink="http://www.w3.org/1999/xlink">
	<defs>
		<symbol id="icon-calendar" viewBox="0 0 30 32">
			<title>
				calendar
			</title>
		</symbol>
		<symbol id="icon-arrow-down" viewBox="0 0 55 32">
			<path fill="none" stroke="currentColor" stroke-linejoin="round" stroke-linecap="round" stroke-miterlimit="4" stroke-width="9.1429" d="M4.571 4.571l22.857 22.857 22.857-22.857">
			</path>
		</symbol>
		<symbol id="icon-search" viewBox="0 0 32 32">
			<path d="M22.4 12.8c0-5.302-4.298-9.6-9.6-9.6s-9.6 4.298-9.6 9.6c0 5.302 4.298 9.6 9.6 9.6s9.6-4.298 9.6-9.6zM20.649 22.912c-2.167 1.685-4.891 2.688-7.849 2.688-7.069 0-12.8-5.731-12.8-12.8s5.731-12.8 12.8-12.8c7.069 0 12.8 5.731 12.8 12.8 0 2.958-1.003 5.682-2.688 7.849l7.82 7.82c0.625 0.625 0.625 1.638 0 2.263s-1.638 0.625-2.263 0l-7.82-7.82z">
			</path>
		</symbol>
		<symbol id="icon-logo" viewBox="0 0 357 55">
			<rect width="86" height="55" rx="8" fill="#05AFD3" />
			<path d="M31.52 31.68C31.52 32.88 31.28 33.9333 30.8 34.84C30.32 35.7467 29.6533 36.5067 28.8 37.12C27.9733 37.7333 27 38.2 25.88 38.52C24.7867 38.84 23.6133 39 22.36 39H8.64V10.6H23.84C24.8267 10.6 25.72 10.8133 26.52 11.24C27.32 11.6667 28 12.2267 28.56 12.92C29.12 13.5867 29.5467 14.36 29.84 15.24C30.16 16.0933 30.32 16.96 30.32 17.84C30.32 19.2267 29.9733 20.5333 29.28 21.76C28.5867 22.96 27.5733 23.8533 26.24 24.44C27.8667 24.92 29.1467 25.7867 30.08 27.04C31.04 28.2667 31.52 29.8133 31.52 31.68ZM25.96 30.64C25.96 30.1333 25.8667 29.6533 25.68 29.2C25.52 28.72 25.2933 28.3067 25 27.96C24.7067 27.6133 24.36 27.3467 23.96 27.16C23.56 26.9467 23.12 26.84 22.64 26.84H14.16V34.32H22.36C22.8667 34.32 23.3333 34.2267 23.76 34.04C24.2133 33.8533 24.6 33.6 24.92 33.28C25.24 32.9333 25.4933 32.5333 25.68 32.08C25.8667 31.6267 25.96 31.1467 25.96 30.64ZM14.16 15.32V22.48H21.52C22.4533 22.48 23.24 22.16 23.88 21.52C24.5467 20.88 24.88 20 24.88 18.88C24.88 17.7867 24.5733 16.92 23.96 16.28C23.3733 15.64 22.64 15.32 21.76 15.32H14.16ZM34.3856 28.52C34.3856 27.0533 34.639 25.6667 35.1456 24.36C35.6523 23.0533 36.3856 21.9067 37.3456 20.92C38.3056 19.9333 39.4656 19.1467 40.8256 18.56C42.1856 17.9733 43.719 17.68 45.4256 17.68C47.719 17.68 49.6656 18.1733 51.2656 19.16C52.8923 20.1467 54.1056 21.44 54.9056 23.04L49.6656 24.64C49.2123 23.8667 48.6123 23.28 47.8656 22.88C47.119 22.4533 46.2923 22.24 45.3856 22.24C44.6123 22.24 43.8923 22.4 43.2256 22.72C42.559 23.0133 41.9723 23.44 41.4656 24C40.9856 24.5333 40.599 25.1867 40.3056 25.96C40.039 26.7333 39.9056 27.5867 39.9056 28.52C39.9056 29.4533 40.0523 30.3067 40.3456 31.08C40.639 31.8533 41.0256 32.52 41.5056 33.08C42.0123 33.64 42.599 34.08 43.2656 34.4C43.9323 34.6933 44.639 34.84 45.3856 34.84C46.3456 34.84 47.2256 34.6 48.0256 34.12C48.8523 33.64 49.4256 33.0533 49.7456 32.36L54.9856 33.96C54.2656 35.56 53.079 36.8667 51.4256 37.88C49.7723 38.8933 47.7856 39.4 45.4656 39.4C43.759 39.4 42.2256 39.1067 40.8656 38.52C39.5056 37.9333 38.3456 37.1467 37.3856 36.16C36.4256 35.1467 35.679 33.9867 35.1456 32.68C34.639 31.3467 34.3856 29.96 34.3856 28.52ZM67.7694 39.4C66.0894 39.4 64.5694 39.12 63.2094 38.56C61.8494 37.9733 60.6894 37.1867 59.7294 36.2C58.7694 35.2133 58.0227 34.0667 57.4894 32.76C56.9827 31.4533 56.7294 30.08 56.7294 28.64C56.7294 27.1467 56.9827 25.7467 57.4894 24.44C57.996 23.1067 58.7294 21.9467 59.6894 20.96C60.6494 19.9467 61.8094 19.1467 63.1694 18.56C64.556 17.9733 66.1027 17.68 67.8094 17.68C69.516 17.68 71.036 17.9733 72.3694 18.56C73.7294 19.1467 74.876 19.9333 75.8094 20.92C76.7694 21.9067 77.4894 23.0533 77.9694 24.36C78.476 25.6667 78.7294 27.0267 78.7294 28.44C78.7294 28.7867 78.716 29.12 78.6894 29.44C78.6894 29.76 78.6627 30.0267 78.6094 30.24H62.4094C62.4894 31.0667 62.6894 31.8 63.0094 32.44C63.3294 33.08 63.7427 33.6267 64.2494 34.08C64.756 34.5333 65.3294 34.88 65.9694 35.12C66.6094 35.36 67.276 35.48 67.9694 35.48C69.036 35.48 70.036 35.2267 70.9694 34.72C71.9294 34.1867 72.5827 33.4933 72.9294 32.64L77.5294 33.92C76.756 35.52 75.516 36.84 73.8094 37.88C72.1294 38.8933 70.116 39.4 67.7694 39.4ZM73.2094 26.76C73.076 25.1867 72.4894 23.9333 71.4494 23C70.436 22.04 69.196 21.56 67.7294 21.56C67.0094 21.56 66.3294 21.6933 65.6894 21.96C65.076 22.2 64.5294 22.5467 64.0494 23C63.5694 23.4533 63.1694 24 62.8494 24.64C62.556 25.28 62.3827 25.9867 62.3294 26.76H73.2094Z" fill="white" />
			<path d="M116.124 10.6V39H110.644V26.88H97.7641V39H92.2441V10.6H97.7641V22.08H110.644V10.6H116.124ZM127.168 39.4C126.154 39.4 125.208 39.24 124.328 38.92C123.448 38.5733 122.688 38.1067 122.048 37.52C121.408 36.9067 120.901 36.2 120.528 35.4C120.181 34.6 120.008 33.72 120.008 32.76C120.008 31.7733 120.221 30.8667 120.648 30.04C121.101 29.1867 121.714 28.4667 122.488 27.88C123.288 27.2933 124.234 26.84 125.328 26.52C126.421 26.1733 127.621 26 128.928 26C129.861 26 130.768 26.08 131.648 26.24C132.554 26.4 133.354 26.6267 134.048 26.92V25.72C134.048 24.3333 133.648 23.2667 132.848 22.52C132.074 21.7733 130.914 21.4 129.368 21.4C128.248 21.4 127.154 21.6 126.088 22C125.021 22.4 123.928 22.9867 122.808 23.76L121.168 20.36C123.861 18.5733 126.768 17.68 129.888 17.68C132.901 17.68 135.234 18.4267 136.888 19.92C138.568 21.3867 139.408 23.52 139.408 26.32V32.84C139.408 33.4 139.501 33.8 139.688 34.04C139.901 34.28 140.234 34.4133 140.688 34.44V39C139.781 39.1867 138.994 39.28 138.328 39.28C137.314 39.28 136.528 39.0533 135.968 38.6C135.434 38.1467 135.101 37.5467 134.968 36.8L134.848 35.64C133.914 36.8667 132.781 37.8 131.448 38.44C130.114 39.08 128.688 39.4 127.168 39.4ZM128.688 35.48C129.594 35.48 130.448 35.32 131.248 35C132.074 34.68 132.714 34.2533 133.168 33.72C133.754 33.2667 134.048 32.76 134.048 32.2V29.8C133.408 29.56 132.714 29.3733 131.968 29.24C131.221 29.08 130.501 29 129.808 29C128.421 29 127.288 29.32 126.408 29.96C125.528 30.5733 125.088 31.36 125.088 32.32C125.088 33.2267 125.434 33.9867 126.128 34.6C126.821 35.1867 127.674 35.48 128.688 35.48ZM157.135 39.4C155.481 39.4 154.041 39.04 152.815 38.32C151.588 37.5733 150.628 36.5733 149.935 35.32V47.52H144.575V18.04H149.255V21.64C150.028 20.4133 151.028 19.4533 152.255 18.76C153.481 18.04 154.895 17.68 156.495 17.68C157.908 17.68 159.215 17.9733 160.415 18.56C161.615 19.12 162.641 19.8933 163.495 20.88C164.375 21.84 165.055 22.9867 165.535 24.32C166.041 25.6267 166.295 27.0133 166.295 28.48C166.295 30 166.068 31.4267 165.615 32.76C165.161 34.0933 164.521 35.2533 163.695 36.24C162.895 37.2267 161.935 38 160.815 38.56C159.695 39.12 158.468 39.4 157.135 39.4ZM155.335 34.84C156.135 34.84 156.868 34.6667 157.535 34.32C158.228 33.9733 158.815 33.5067 159.295 32.92C159.775 32.3333 160.148 31.6533 160.415 30.88C160.681 30.1067 160.815 29.3067 160.815 28.48C160.815 27.6 160.668 26.7867 160.375 26.04C160.081 25.2667 159.668 24.6 159.135 24.04C158.628 23.48 158.015 23.04 157.295 22.72C156.601 22.4 155.841 22.24 155.015 22.24C154.508 22.24 153.988 22.3333 153.455 22.52C152.921 22.68 152.428 22.92 151.975 23.24C151.521 23.56 151.108 23.9333 150.735 24.36C150.388 24.7867 150.121 25.2533 149.935 25.76V30.68C150.415 31.88 151.148 32.88 152.135 33.68C153.121 34.4533 154.188 34.84 155.335 34.84ZM182.805 18.04H188.565L180.405 28.2L189.205 39H183.125L176.645 30.92H175.245V39H169.965V18.04H175.245V26.36H176.445L182.805 18.04ZM200.347 39.4C198.64 39.4 197.107 39.1067 195.747 38.52C194.387 37.9333 193.227 37.1467 192.267 36.16C191.333 35.1467 190.613 33.9867 190.107 32.68C189.6 31.3733 189.347 30 189.347 28.56C189.347 27.0933 189.6 25.7067 190.107 24.4C190.613 23.0933 191.333 21.9467 192.267 20.96C193.227 19.9467 194.387 19.1467 195.747 18.56C197.107 17.9733 198.64 17.68 200.347 17.68C202.053 17.68 203.573 17.9733 204.907 18.56C206.267 19.1467 207.413 19.9467 208.347 20.96C209.307 21.9467 210.04 23.0933 210.547 24.4C211.053 25.7067 211.307 27.0933 211.307 28.56C211.307 30 211.053 31.3733 210.547 32.68C210.04 33.9867 209.32 35.1467 208.387 36.16C207.453 37.1467 206.307 37.9333 204.947 38.52C203.587 39.1067 202.053 39.4 200.347 39.4ZM194.867 28.56C194.867 29.4933 195 30.3467 195.267 31.12C195.56 31.8667 195.947 32.52 196.427 33.08C196.933 33.64 197.52 34.08 198.187 34.4C198.853 34.6933 199.573 34.84 200.347 34.84C201.12 34.84 201.84 34.6933 202.507 34.4C203.173 34.08 203.747 33.64 204.227 33.08C204.733 32.52 205.12 31.8533 205.387 31.08C205.68 30.3067 205.827 29.4533 205.827 28.52C205.827 27.6133 205.68 26.7733 205.387 26C205.12 25.2267 204.733 24.56 204.227 24C203.747 23.44 203.173 23.0133 202.507 22.72C201.84 22.4 201.12 22.24 200.347 22.24C199.573 22.24 198.853 22.4 198.187 22.72C197.52 23.04 196.933 23.48 196.427 24.04C195.947 24.6 195.56 25.2667 195.267 26.04C195 26.8133 194.867 27.6533 194.867 28.56ZM212.297 34.44C213.07 34.3867 213.697 34.2267 214.177 33.96C214.683 33.6933 215.097 33.2 215.417 32.48C215.763 31.76 216.043 30.7733 216.257 29.52C216.497 28.24 216.737 26.5733 216.977 24.52L217.697 18.04H232.377V39H227.057V22.52H222.377L221.977 25.68C221.657 28.32 221.27 30.5067 220.817 32.24C220.363 33.9467 219.777 35.3067 219.057 36.32C218.363 37.3333 217.497 38.0533 216.457 38.48C215.417 38.88 214.137 39.1067 212.617 39.16L212.297 34.44ZM247.026 39.4C245.32 39.4 243.786 39.1067 242.426 38.52C241.066 37.9333 239.906 37.1467 238.946 36.16C238.013 35.1467 237.293 33.9867 236.786 32.68C236.28 31.3733 236.026 30 236.026 28.56C236.026 27.0933 236.28 25.7067 236.786 24.4C237.293 23.0933 238.013 21.9467 238.946 20.96C239.906 19.9467 241.066 19.1467 242.426 18.56C243.786 17.9733 245.32 17.68 247.026 17.68C248.733 17.68 250.253 17.9733 251.586 18.56C252.946 19.1467 254.093 19.9467 255.026 20.96C255.986 21.9467 256.72 23.0933 257.226 24.4C257.733 25.7067 257.986 27.0933 257.986 28.56C257.986 30 257.733 31.3733 257.226 32.68C256.72 33.9867 256 35.1467 255.066 36.16C254.133 37.1467 252.986 37.9333 251.626 38.52C250.266 39.1067 248.733 39.4 247.026 39.4ZM241.546 28.56C241.546 29.4933 241.68 30.3467 241.946 31.12C242.24 31.8667 242.626 32.52 243.106 33.08C243.613 33.64 244.2 34.08 244.866 34.4C245.533 34.6933 246.253 34.84 247.026 34.84C247.8 34.84 248.52 34.6933 249.186 34.4C249.853 34.08 250.426 33.64 250.906 33.08C251.413 32.52 251.8 31.8533 252.066 31.08C252.36 30.3067 252.506 29.4533 252.506 28.52C252.506 27.6133 252.36 26.7733 252.066 26C251.8 25.2267 251.413 24.56 250.906 24C250.426 23.44 249.853 23.0133 249.186 22.72C248.52 22.4 247.8 22.24 247.026 22.24C246.253 22.24 245.533 22.4 244.866 22.72C244.2 23.04 243.613 23.48 243.106 24.04C242.626 24.6 242.24 25.2667 241.946 26.04C241.68 26.8133 241.546 27.6533 241.546 28.56ZM275.764 22.48H267.004V39H261.684V18.04H275.764V22.48ZM284.231 31.36L294.151 18.04H298.111V39H292.791V26.04L282.991 39H278.911V18.04H284.231V31.36ZM302.968 39V33.24H307.368V39H302.968ZM324.713 39.4C323.059 39.4 321.619 39.04 320.393 38.32C319.166 37.5733 318.206 36.5733 317.513 35.32V47.52H312.153V18.04H316.833V21.64C317.606 20.4133 318.606 19.4533 319.833 18.76C321.059 18.04 322.473 17.68 324.073 17.68C325.486 17.68 326.793 17.9733 327.993 18.56C329.193 19.12 330.219 19.8933 331.073 20.88C331.953 21.84 332.633 22.9867 333.113 24.32C333.619 25.6267 333.873 27.0133 333.873 28.48C333.873 30 333.646 31.4267 333.193 32.76C332.739 34.0933 332.099 35.2533 331.273 36.24C330.473 37.2267 329.513 38 328.393 38.56C327.273 39.12 326.046 39.4 324.713 39.4ZM322.913 34.84C323.713 34.84 324.446 34.6667 325.113 34.32C325.806 33.9733 326.393 33.5067 326.873 32.92C327.353 32.3333 327.726 31.6533 327.993 30.88C328.259 30.1067 328.393 29.3067 328.393 28.48C328.393 27.6 328.246 26.7867 327.953 26.04C327.659 25.2667 327.246 24.6 326.713 24.04C326.206 23.48 325.593 23.04 324.873 22.72C324.179 22.4 323.419 22.24 322.593 22.24C322.086 22.24 321.566 22.3333 321.033 22.52C320.499 22.68 320.006 22.92 319.553 23.24C319.099 23.56 318.686 23.9333 318.313 24.36C317.966 24.7867 317.699 25.2533 317.513 25.76V30.68C317.993 31.88 318.726 32.88 319.713 33.68C320.699 34.4533 321.766 34.84 322.913 34.84ZM337.36 42.76C337.814 43.0267 338.24 43.2133 338.64 43.32C339.067 43.4267 339.467 43.48 339.84 43.48C340.507 43.48 341.08 43.1467 341.56 42.48C342.04 41.84 342.467 40.68 342.84 39L334.56 18.04H340.08L345.76 34.36L350.8 18.04H355.84L347.6 41.72C346.8 44.0133 345.814 45.6533 344.64 46.64C343.494 47.6267 342.08 48.12 340.4 48.12C339.787 48.12 339.24 48.0667 338.76 47.96C338.28 47.8533 337.814 47.6533 337.36 47.36V42.76Z" fill="#1C2633" />
		</symbol>
		<symbol id="icon-star" viewBox="0 0 15 14">
			<path opacity="0.7" fill-rule="evenodd" clip-rule="evenodd" d="M7.15741 0.167969C7.35201 0.167969 7.52893 0.280874 7.6109 0.457368L9.47692 4.47545L13.875 5.00848C14.0682 5.0319 14.2302 5.16527 14.2903 5.35034C14.3505 5.53542 14.2978 5.73857 14.1552 5.87106L10.9104 8.8874L11.7626 13.2349C11.8 13.4259 11.7232 13.6212 11.5658 13.7356C11.4084 13.85 11.1989 13.8626 11.0288 13.768L7.15741 11.6141L3.286 13.768C3.11595 13.8626 2.90646 13.85 2.74902 13.7356C2.59159 13.6212 2.51482 13.4259 2.55225 13.2349L3.40438 8.8874L0.15959 5.87106C0.0170624 5.73857 -0.0356455 5.53541 0.0244887 5.35034C0.0846229 5.16527 0.246674 5.0319 0.439858 5.00848L4.83791 4.47545L6.70393 0.457368C6.78589 0.280874 6.96281 0.167969 7.15741 0.167969Z" fill="white" />
		</symbol>
		<symbol id="icon-slider-arrow" viewBox="0 0 38 68">
			<path fill-rule="evenodd" clip-rule="evenodd" d="M1.17157 1.17157C2.73367 -0.390524 5.26633 -0.390524 6.82843 1.17157L36.8284 31.1716C38.3905 32.7337 38.3905 35.2663 36.8284 36.8284L6.82843 66.8284C5.26633 68.3905 2.73367 68.3905 1.17157 66.8284C-0.390524 65.2663 -0.390524 62.7337 1.17157 61.1716L28.3431 34L1.17157 6.82843C-0.390524 5.26633 -0.390524 2.73367 1.17157 1.17157Z" fill="currentColor"/>
		</symbol>
		<symbol id="icon-avatar" viewBox="0 0 120 120">
			<path d="M86.5 46.5C87.5 59 83 59.5 80.5 59C79.2082 58.3541 79.9721 52.5044 80 51.5C80.103 47.7928 81.1343 42.2318 78.5 39.5C76.5322 37.4593 73.8682 35.6556 71 35C67.5912 34.2208 57.2985 34.3851 53.7936 35.1229C50.3428 35.8494 47.0842 37.5616 44.6209 40.1197C41.1798 43.693 40.7105 49.1922 40.5414 53.9271C40.497 55.1711 40.5414 56.424 40.5414 57.6686C40.5414 58.6146 39.7941 57.0418 39 57C37 56 35.9549 50.233 36.3654 47C36.8 43.5777 35.8318 43.5344 36.3654 40.1197C36.7975 37.354 37.4516 35.1523 38.7551 32.6849C39.7627 30.7778 41.2709 29.2999 42.6656 27.6882C44.3557 25.7352 46.772 23.2749 49.1831 22.2569C53.594 20.3946 58.839 19.5707 63.6181 20.2534C65.5563 20.5303 67.5199 20.6764 69.4356 21.0017C70.8097 21.2351 72.1236 21.67 73.5271 21.8104C73.7032 21.828 74.7954 21.7656 74.2151 22.088C73.5632 22.4501 73.0473 22.976 72.4047 23.3432C72.3117 23.3963 74.029 24.1467 74.2151 24.2122C75.9083 24.8079 77.4675 25.7384 79.1877 26.264C79.8755 26.4741 80.5376 26.735 81.1671 27.0847C82.1398 27.6251 83.7472 27.912 84.5948 28.6055C85.3445 29.2189 86.0584 29.9725 86.7673 30.6814C87.4585 31.3726 90.0339 32.7244 88.9398 33.9401C87.9228 35.0701 86.746 36.1838 85.9948 37.5127C84.6777 39.843 86.5 43.9496 86.5 46.5Z" fill="#8AE0E4"/>
			<path d="M55 83.5004C56.9381 83.7773 58.0843 84.1754 60 84.5007C59.4921 87.2943 56.8402 90.1032 51.5 91.5007C46.3265 92.8545 41.4762 93.7947 40 96.5007C37 102 38.5 118.74 38.5 119.985C38.5 120.931 34.5939 120.027 33.7998 119.985C31.7998 118.985 30.7547 113.218 31.1652 109.985C31.5998 106.563 30.6316 106.52 31.1652 103.105C31.6754 99.8396 33.2281 91.6909 35.3412 89.2491C37.0313 87.2961 41.5719 86.26 43.9829 85.242C48.3938 83.3797 50.2209 82.8177 55 83.5004Z" fill="#8AE0E4"/>
			<path d="M92.7208 100.18V109.434C92.7208 110.299 92.0194 111 91.1543 111C90.2892 111 89.5879 110.299 89.5879 109.434V100.18C89.5879 92.9755 83.7577 87.1449 76.5524 87.1451C73.1432 87.1451 70.05 85.4083 68.2777 82.499C67.8278 81.7602 68.0617 80.7963 68.8007 80.3463C69.5395 79.8961 70.5033 80.1303 70.9534 80.8693C72.1522 82.8374 74.2452 84.0122 76.5524 84.0122C85.4884 84.0118 92.7208 91.2434 92.7208 100.18ZM65.3849 84.4778C65.5691 85.3231 65.0332 86.1577 64.1879 86.3419C60.0653 87.2401 55.8725 86.3409 52.5342 84.0623C49.2294 87.6039 44.8632 87.1451 45.4477 87.1451C38.243 87.1449 32.4122 92.9749 32.4122 100.18V109.434C32.4122 110.299 31.7108 111 30.8458 111C29.9807 111 29.2793 110.299 29.2793 109.434V100.18C29.2793 91.2444 36.5103 84.0122 45.4473 84.0122C49.0623 84.0122 51.993 81.0996 51.993 77.4836V77.071C45.1556 73.8016 40.3563 66.9313 40.0638 58.9308C37.25 58.2543 35.1535 55.7358 35.1535 52.7394V44.6186C35.068 40.6437 35.6581 30.6883 42.9169 23.6913C51.88 15.0511 66.2539 15.6 76.8232 20.688C77.8533 21.1844 78.0097 22.5762 77.1543 23.297C82.5086 24.603 87.1258 27.8945 90.0921 32.6053C90.2452 32.8479 90.5256 33.2287 90.4523 33.8363C90.4069 34.2144 90.2943 34.5344 90.003 34.83C88.0938 36.7662 87.0425 39.3318 87.0425 42.0545V52.7398C87.0425 53.6048 86.3412 54.3062 85.4761 54.3062C84.611 54.3062 83.9096 53.6048 83.9096 52.7398V42.0545C83.9096 38.9144 84.9825 35.9338 86.9529 33.5395C83.9496 29.2442 79.2639 26.4818 73.9646 25.9143L71.2113 25.6194C69.6014 25.4471 69.2855 23.2292 70.7817 22.6134L72.0339 22.0978C55.7259 16.4126 38.2863 22.7295 38.2863 44.6016V52.7394C38.2863 53.9824 39.0021 55.0626 40.0485 55.6052V45.45C40.0485 39.4039 44.9676 34.4848 51.0137 34.4848H70.9861C77.0323 34.4848 81.9514 39.4035 81.9514 45.4495V58.2754C81.9514 71.8986 68.6388 82.2462 55.0924 78.2582C55.0043 79.3759 54.7261 80.4544 54.2728 81.4569C56.9079 83.2666 60.2357 83.9965 63.5208 83.2807C64.3661 83.0966 65.2006 83.6325 65.3849 84.4778ZM60.9999 75.9749C70.8252 75.9749 78.8184 67.9816 78.8184 58.1564V45.4495C78.8184 41.1311 75.3049 37.6177 70.9861 37.6177H51.0137C46.695 37.6177 43.1814 41.1313 43.1814 45.45V58.1564C43.1814 67.9816 51.1747 75.9749 60.9999 75.9749ZM76.8604 102.972H72.161C71.2959 102.972 70.5945 103.673 70.5945 104.538C70.5945 105.403 71.2959 106.105 72.161 106.105H76.8604C77.7254 106.105 78.4268 105.403 78.4268 104.538C78.4268 103.673 77.7254 102.972 76.8604 102.972Z" fill="#05AFD3"/>
		</symbol>
		<symbol id="icon-clock" viewBox="0 0 24 24">
			<path fill-rule="evenodd" clip-rule="evenodd" d="M22.2857 12C22.2857 17.6806 17.6806 22.2857 12 22.2857C6.31936 22.2857 1.71429 17.6806 1.71429 12C1.71429 6.31936 6.31936 1.71429 12 1.71429C14.4865 1.71429 16.7668 2.59655 18.5452 4.06511L19.7621 2.84819C17.6696 1.07168 14.96 0 12 0C5.37258 0 0 5.37258 0 12C0 18.6274 5.37258 24 12 24C18.6274 24 24 18.6274 24 12C24 9.25907 23.0811 6.73278 21.5345 4.7124L20.3097 5.9371C21.5523 7.63721 22.2857 9.73295 22.2857 12ZM19.1838 4.63868C19.3884 4.83836 19.5847 5.04651 19.7721 5.26254L20.9869 4.04774C20.7974 3.83367 20.6003 3.62643 20.3961 3.42642L19.1838 4.63868Z" fill="#979797"/>
			<path fill-rule="evenodd" clip-rule="evenodd" d="M23.0174 1.41068C23.1847 1.57805 23.1847 1.84941 23.0174 2.01677L11.4459 13.5882C11.2786 13.7556 11.0072 13.7556 10.8398 13.5882L6.9827 9.73106C6.81534 9.56369 6.81534 9.29234 6.9827 9.12497C7.15007 8.9576 7.42143 8.9576 7.58879 9.12497L11.1429 12.6791L22.4113 1.41068C22.5786 1.24331 22.85 1.24331 23.0174 1.41068Z" fill="#979797"/>
			<path fill-rule="evenodd" clip-rule="evenodd" d="M17.3262 5.28312C15.8636 4.12157 14.0128 3.42773 11.9999 3.42773C7.26603 3.42773 3.42847 7.26529 3.42847 11.9992C3.42847 16.733 7.26603 20.5706 11.9999 20.5706C16.7338 20.5706 20.5713 16.733 20.5713 11.9992C20.5713 10.2063 20.0209 8.54205 19.0798 7.16611L18.4618 7.78406C19.2538 8.99568 19.7142 10.4437 19.7142 11.9992C19.7142 16.2596 16.2604 19.7134 11.9999 19.7134C7.73941 19.7134 4.28561 16.2596 4.28561 11.9992C4.28561 7.73868 7.73941 4.28488 11.9999 4.28488C13.7759 4.28488 15.4118 4.88506 16.7157 5.89366L17.3262 5.28312ZM17.9476 7.08611C17.7652 6.86552 17.5707 6.65524 17.3652 6.4563L17.9714 5.85013C18.1765 6.04937 18.3717 6.25879 18.5562 6.47756L17.9476 7.08611Z" fill="#979797"/>
		</symbol>
		<symbol id="icon-long-arrow" viewBox="0 0 47 12">
			<path d="M40.5 11L45.5 6M45.5 6L40.5 1M45.5 6L1 6" stroke="#1C2633" stroke-width="2" stroke-linecap="round" stroke-linejoin="round"/>
		</symbol>
		<symbol id="icon-arrow-up" viewBox="0 0 12 18">
			<path d="M1 6L6 1M6 1L11 6M6 1V17" stroke="#05AFD3" stroke-width="2" stroke-linecap="round" stroke-linejoin="round"/>
		</symbol>
		<symbol id="icon-play" viewBox="0 0 39 38">
			<path d="M16.3923 9.26795C15.7735 8.91068 15.0111 8.91068 14.3923 9.26795C13.7735 9.62521 13.3923 10.2855 13.3923 11L13.3923 31.7846C13.3923 32.4991 13.7735 33.1594 14.3923 33.5167C15.0111 33.8739 15.7735 33.8739 16.3923 33.5167L34.3923 23.1244C35.0111 22.7671 35.3923 22.1068 35.3923 21.3923C35.3923 20.6778 35.0111 20.0175 34.3923 19.6603L16.3923 9.26795Z" fill="#05AFD3" stroke="#05AFD3" stroke-width="4" stroke-linecap="round" stroke-linejoin="round"/>
		</symbol>
		<symbol id="icon-star-rate" viewBox="0 0 13.4 12.9">
			<path class="st0" d="M7.2,0.8C7.1,0.6,6.9,0.5,6.7,0.5S6.3,0.6,6.2,0.8L4.9,4.6L1,4.6C0.8,4.7,0.6,4.8,0.5,5c-0.1,0.2,0,0.4,0.2,0.6
				l3.1,2.4l-1.1,3.8c-0.1,0.2,0,0.4,0.2,0.5c0.2,0.1,0.4,0.1,0.6,0L6.7,10l3.2,2.3c0.2,0.1,0.4,0.1,0.6,0c0.2-0.1,0.2-0.3,0.2-0.5
				L9.6,7.9l3.1-2.4C12.9,5.4,13,5.2,12.9,5c-0.1-0.2-0.3-0.3-0.5-0.3L8.5,4.6L7.2,0.8z"/>
			</symbol>
		<symbol id="icon-car" viewBox="0 0 60 60">
			<circle cx="30" cy="30" r="30" fill="#807676"/>
			<circle cx="30" cy="30" r="25.25" fill="#807676" stroke="white" stroke-width="1.5"/>
			<path opacity="0.5" d="M24.0782 38.5347C23.9938 39.7193 22.9801 40.6197 21.7941 40.5637C20.6082 40.5078 19.6836 39.5159 19.7113 38.3286C19.7389 37.1412 20.7088 36.1933 21.8961 36.1926C21.9478 36.1926 22.0003 36.194 22.0527 36.1983C23.2564 36.284 24.1639 37.3304 24.0782 38.5347ZM40.1975 40.5666C38.9896 40.5666 38.0112 39.5875 38.0112 38.3803C38.0112 37.1724 38.9903 36.1933 40.1975 36.1933C41.4047 36.1933 42.3845 37.1724 42.3845 38.3803C42.383 39.5868 41.4047 40.5652 40.1975 40.5666ZM40.4979 25.8663C41.4217 25.8656 42.2399 26.4635 42.5205 27.3434L43.1212 29.9044H37.1745V25.8663H40.4979ZM26.9339 20.2695H28.8121L29.3377 21.8281H26.4082L26.9339 20.2695ZM16.417 24.6782C16.4297 23.8876 17.0709 23.2514 17.8615 23.245H34.3322C35.1193 23.2528 35.7541 23.8918 35.7569 24.6782V30.5789C35.7569 30.9699 36.0658 31.3213 36.4576 31.3213H43.6667C44.6239 31.3121 45.5314 31.7436 46.1286 32.4917C46.4587 32.9097 46.7379 34.1431 46.7379 34.8997V37.0427C46.7258 37.4423 46.4014 37.7618 46.0018 37.7675H43.7447C43.4408 36.0467 41.9445 34.792 40.1975 34.792C38.4504 34.792 36.9542 36.046 36.6503 37.7675H25.4462C25.1429 36.0445 23.6467 34.7885 21.8975 34.7885C20.1484 34.7885 18.6514 36.0445 18.3482 37.7675H16.417V24.6782Z" fill="#979797"/>
			<path d="M15.7361 39.1853H18.3786C18.7321 40.7332 20.0569 41.8675 21.641 41.9787C21.7281 41.9851 21.8153 41.9858 21.9017 41.9858C22.7667 41.9893 23.6041 41.679 24.2573 41.1115C24.8326 40.6043 25.2364 39.9313 25.4128 39.1853H36.6814C37.042 40.7439 38.4808 41.9999 40.1967 41.9999C41.9125 41.9999 43.3514 40.7439 43.712 39.1853H46.001C47.1827 39.1782 48.1412 38.2253 48.154 37.0436V34.9006C48.154 34.195 47.9202 32.46 47.2408 31.5985C46.5819 30.7618 45.6482 30.1844 44.6053 29.9684L43.8955 26.966C43.8919 26.9497 43.8856 26.9447 43.8806 26.9284C43.4222 25.447 42.0471 24.4403 40.4963 24.4503H37.1539C37.0405 22.9738 35.8121 21.8332 34.3314 21.829H30.8325L29.9894 19.3381C29.8924 19.0498 29.6224 18.8549 29.3185 18.8535H26.4244C26.1198 18.8549 25.8506 19.0498 25.7535 19.3381L24.9105 21.829H17.8614C16.2993 21.8283 15 23.1162 15 24.6784V38.4598C15.0113 38.8601 15.3365 39.1796 15.7361 39.1853ZM24.0781 38.5349C23.9938 39.7194 22.98 40.6199 21.794 40.5639C20.6081 40.5079 19.6836 39.5161 19.7112 38.3288C19.7388 37.1414 20.7087 36.1935 21.896 36.1928C21.9478 36.1928 22.0002 36.1942 22.0526 36.1985C23.2563 36.2842 24.1638 37.3306 24.0781 38.5349ZM40.1974 40.5667C38.9895 40.5667 38.0111 39.5877 38.0111 38.3805C38.0111 37.1726 38.9902 36.1935 40.1974 36.1935C41.4046 36.1935 42.3844 37.1726 42.3844 38.3805C42.3829 39.587 41.4046 40.5653 40.1974 40.5667ZM40.4978 25.8664C41.4216 25.8657 42.2398 26.4637 42.5204 27.3436L43.1211 29.9046H37.1744V25.8664H40.4978ZM26.9338 20.2697H28.812L29.3376 21.8283H26.4081L26.9338 20.2697ZM16.4169 24.6784C16.4296 23.8877 17.0708 23.2516 17.8614 23.2452H34.3321C35.1192 23.253 35.754 23.892 35.7568 24.6784V30.579C35.7568 30.9701 36.0657 31.3215 36.4575 31.3215H43.6667C44.6238 31.3123 45.5313 31.7437 46.1285 32.4919C46.4586 32.9098 46.7378 34.1432 46.7378 34.8999V37.0429C46.7257 37.4425 46.4013 37.762 46.0017 37.7677H43.7446C43.4407 36.0468 41.9444 34.7922 40.1974 34.7922C38.4503 34.7922 36.9541 36.0461 36.6502 37.7677H25.4461C25.1429 36.0447 23.6466 34.7886 21.8975 34.7886C20.1483 34.7886 18.6513 36.0447 18.3481 37.7677H16.4169V24.6784Z" fill="white"/>
			<path fill-rule="evenodd" clip-rule="evenodd" d="M27.6875 27.5625C27.6875 27.3209 27.4916 27.125 27.25 27.125C27.0084 27.125 26.8125 27.3209 26.8125 27.5625V29.3125H25.0625C24.8209 29.3125 24.625 29.5084 24.625 29.75C24.625 29.9916 24.8209 30.1875 25.0625 30.1875H26.8125V31.9375C26.8125 32.1791 27.0084 32.375 27.25 32.375C27.4916 32.375 27.6875 32.1791 27.6875 31.9375V30.1875H29.4375C29.6791 30.1875 29.875 29.9916 29.875 29.75C29.875 29.5084 29.6791 29.3125 29.4375 29.3125H27.6875V27.5625Z" fill="white"/>
			<path fill-rule="evenodd" clip-rule="evenodd" d="M27.6875 14C27.9291 14 28.125 14.1306 28.125 14.2917L28.125 16.3333C28.125 16.4944 27.9291 16.625 27.6875 16.625C27.4459 16.625 27.25 16.4944 27.25 16.3333L27.25 14.2917C27.25 14.1306 27.4459 14 27.6875 14Z" fill="white"/>
			<path fill-rule="evenodd" clip-rule="evenodd" d="M31.5664 15.0938C31.7757 15.2146 31.88 15.4256 31.7995 15.5651L30.7786 17.3332C30.6981 17.4727 30.4632 17.4879 30.2539 17.3671C30.0447 17.2463 29.9403 17.0352 30.0209 16.8957L31.0417 15.1276C31.1222 14.9881 31.3572 14.9729 31.5664 15.0938Z" fill="white"/>
			<path fill-rule="evenodd" clip-rule="evenodd" d="M24.1289 15.0938C23.9196 15.2146 23.8153 15.4256 23.8958 15.5651L24.9167 17.3332C24.9972 17.4727 25.2321 17.4879 25.4414 17.3671C25.6506 17.2463 25.755 17.0352 25.6744 16.8957L24.6536 15.1276C24.5731 14.9881 24.3381 14.9729 24.1289 15.0938Z" fill="white"/>
			</symbol>
	</defs>
</svg>
