<svg width="60" height="60" viewBox="0 0 60 60" fill="none" xmlns="http://www.w3.org/2000/svg">
<circle cx="30" cy="30" r="30" fill="#5F6462"/>
<g clip-path="url(#clip0)">
<path d="M36.7676 22.4318V22.2656H36.6014C36.1851 22.2656 35.763 22.3676 35.3457 22.5687L35.0738 22.6999C34.8759 22.6764 32.7251 22.2787 30.1934 22.2696C27.7078 22.2607 26.0453 22.6042 24.9262 22.6999L24.6543 22.5687C24.237 22.3676 23.815 22.2656 23.3986 22.2656H23.2324V22.4318C23.2324 22.935 23.3778 23.4458 23.6535 23.9084L23.8706 24.2728C23.6704 25.0343 23.2324 26.2352 23.2324 28.0664C23.2324 28.1907 23.2505 28.302 23.2549 28.4237C25.2463 28.2311 27.4998 28.1032 30 28.1032C32.2515 28.1032 34.5013 28.2373 36.7421 28.4725C36.7476 28.3344 36.7676 28.2076 36.7676 28.0663C36.7676 26.2903 36.3306 25.0378 36.1294 24.2728L36.3465 23.9084C36.6222 23.4458 36.7676 22.935 36.7676 22.4318Z" fill="white"/>
<path d="M44.5664 29.7292V14.5312H42.6328V16.9433C40.3865 16.0708 35.5742 14.5312 30 14.5312C24.4258 14.5312 19.6135 16.0708 17.3672 16.9433V14.5312H15.4336V29.6738C16.8321 29.3486 18.8633 28.9518 21.3348 28.638C21.3255 28.4446 21.2988 28.2656 21.2988 28.0664C21.2988 26.907 21.4622 25.7146 21.786 24.5155C21.466 23.8565 21.2988 23.1437 21.2988 22.4318V20.332H23.3986C24.0095 20.332 24.6175 20.4557 25.2085 20.6993C26.8475 20.4557 28.4237 20.3339 30 20.3339C31.5763 20.3339 33.1525 20.4557 34.7915 20.6993C35.3825 20.4557 35.9906 20.332 36.6014 20.332H38.7012V22.4318C38.7012 23.1437 38.534 23.8565 38.214 24.5155C38.5378 25.7146 38.7012 26.907 38.7012 28.0664C38.7012 28.2915 38.6722 28.4946 38.6604 28.7122C40.6185 28.9748 42.634 29.3003 44.5664 29.7292Z" fill="white"/>
<path d="M19.3652 41.6019H40.6348C42.7676 41.6019 44.5664 43.3362 44.5664 45.4691H46.5V32.1454C45.8751 32.0272 39.1643 30.0371 30 30.0371C20.3171 30.0371 14.3523 31.9842 13.5 32.1454V45.4691H15.4336C15.4336 43.3362 17.2324 41.6019 19.3652 41.6019ZM27.0996 34.8343H29.0332V32.9007H30.9668V34.8343H32.9004V36.7679H30.9668V38.7015H29.0332V36.7679H27.0996V34.8343Z" fill="white"/>
</g>
<defs>
<clipPath id="clip0">
<rect width="33" height="33" fill="white" transform="translate(13.5 13.5)"/>
</clipPath>
</defs>
</svg>
