<svg xmlns="http://www.w3.org/2000/svg" xmlns:xlink="http://www.w3.org/1999/xlink"><symbol viewBox="0 0 8 14" id="arrow" xmlns="http://www.w3.org/2000/svg"><path d="m1 13 6-6-6-6" stroke="#FFFFE3" stroke-width="2" stroke-linecap="round" stroke-linejoin="round"/></symbol><symbol viewBox="0 0 296 80" id="glitch-b" xmlns="http://www.w3.org/2000/svg"><path d="M199.56 42.04c1.69 0 3.09-1.21 3.4-2.82h-6.8c.3 1.6 1.71 2.82 3.4 2.82ZM29.55 79.83h1.64l-.07.17h-1.5l-.07-.17Zm64.94.17h21.97c1.76 0 3.43-.06 5.03-.17h-27V80Zm104.81 0c1.15 0 2.3-.06 3.42-.17h-6.84c1.13.11 2.27.17 3.42.17ZM75.22 80c.36 0 .71-.06 1.04-.17h-2.08c.33.11.68.17 1.04.17ZM58.21 14.71h-7.52l2.95-7.09h7.51l-2.94 7.09ZM7.51 7.62H0l2.9 7.09h7.51l-2.9-7.09Zm98.47 7.09h33.52c-2.44-1.87-5.18-3.36-8.23-4.48-4.66-1.74-12.16-2.61-22.48-2.61H94.48v7.09h11.5Zm84-1.51a3.847 3.847 0 0 0-5.07-1.98 35.73 35.73 0 0 0-6.2 3.49h11.59c0-.51-.11-1.02-.32-1.51Zm23.89-1.9c-1.94-.86-4.21 0-5.08 1.95-.21.48-.31.97-.33 1.46h11.44a36.683 36.683 0 0 0-6.03-3.42v.01Zm-10.85-6.97c0-1.91-1.55-3.46-3.46-3.46a3.47 3.47 0 0 0-3.47 3.46v10.38h6.93V4.32v.01ZM78.66 11.25c0-2-1.54-3.62-3.45-3.62-1.91 0-3.45 1.62-3.45 3.62v3.47h6.9v-3.47Zm189.42 2.35c2.36 0 4.52.38 6.49 1.12h11.85c-2.07-2.1-4.49-3.75-7.29-4.93-3.49-1.47-7.2-2.2-11.15-2.2-6.48 0-11.72 1.84-15.71 5.53-.56.52-1.08 1.06-1.56 1.6h10.92c1.89-.74 4.03-1.12 6.45-1.12ZM36.38 67.33H24.43l-4.29-10.48h7.51l2.74 6.69 2.78-6.69h7.55l-4.35 10.48h.01Zm114.64-10.48h-7.38c-.66 1.74-1.47 3.37-2.45 4.89a23.651 23.651 0 0 1-5 5.6h9.83c.76-1.09 1.48-2.24 2.15-3.47 1.19-2.2 2.14-4.54 2.86-7.01l-.01-.01Zm-56.53 0v10.48h6.62V56.85h-6.62Zm79.67 0h-8.4c1.47 3.86 3.58 7.39 6.21 10.48h11.36a28.433 28.433 0 0 1-9.17-10.48Zm41.13 10.48h11.36c2.63-3.09 4.74-6.63 6.21-10.48h-8.39a28.433 28.433 0 0 1-9.17 10.48h-.01ZM78.68 56.85h-6.9v10.48h6.9V56.85Zm174.97 8.49c-.95-1.5-1.81-3.62-2.57-6.38l-7.25 1.93c.68 2.51 1.5 4.65 2.46 6.44h8.85c-.53-.63-1.03-1.29-1.49-1.99Zm32.34-5.23c0 2.68-.8 5.08-2.4 7.22h8.18c1.07-2.35 1.6-4.9 1.6-7.65 0-.98-.07-1.92-.19-2.83h-7.69c.32 1.03.49 2.11.49 3.26h.01ZM24.9 51.61h-7.51l-5.07-12.39h7.51l5.07 12.39Zm15-12.39-5.15 12.39h7.55l5.14-12.39H39.9Zm104.56 12.39h7.08c.33-2.2.49-4.49.49-6.88 0-1.89-.1-3.73-.29-5.5h-7.09c.25 1.8.38 3.67.38 5.62 0 2.39-.2 4.64-.58 6.76h.01Zm-43.97 0V39.22h-6.62v12.39h6.62Zm126.4-7.5c0 2.6-.36 5.11-1.02 7.5h7.91a35.675 35.675 0 0 0 .45-12.39h-7.77c.28 1.6.43 3.23.43 4.89Zm-63.3 7.5h7.91c-.66-2.39-1.02-4.9-1.02-7.5 0-1.66.15-3.29.43-4.89h-7.78a36.08 36.08 0 0 0-.34 4.89c0 2.57.28 5.08.79 7.5h.01ZM78.05 39.22h-6.9v12.39h6.9V39.22Zm190.93 7.17c6.14 1.75 10.24 3.49 12.31 5.22h9.66c-.76-1.52-1.77-2.92-3.02-4.19-3.11-3.1-8.69-5.83-16.7-8.2h-18.66c3.66 2.68 9.13 5.07 16.41 7.17ZM13.91 29.21H6.4L1.92 18.26h7.51l4.48 10.96v-.01Zm35.85 0 4.55-10.96h-7.52l-4.56 10.96h7.53Zm48.91 0V18.25h-6.62v10.96h6.62Zm39.71-2.26c.48.73.91 1.49 1.32 2.26h7.9a34.86 34.86 0 0 0-3.04-6.19 31.426 31.426 0 0 0-3.61-4.77h-12.34c4.02 1.96 7.28 4.86 9.78 8.7h-.01Zm25.84 2.26h8.71a28.16 28.16 0 0 1 12.64-10.95h-13.59a35.88 35.88 0 0 0-7.75 10.95h-.01Zm56.59 0h8.7c-1.87-4.1-4.5-7.82-7.76-10.96h-13.58s.08.05.13.07c5.27 2.34 9.57 6.19 12.5 10.89h.01Zm-20.22 0V18.25h-6.93v10.96h6.93Zm-124.36 0V18.25h-6.9v10.96h6.9Zm206.07-2.82 7.01-2.16c-.67-2.3-1.52-4.29-2.53-5.97h-9.1c2.1 2.08 3.65 4.78 4.62 8.13Zm-38.44-.09c0 1.01.09 1.98.26 2.92h7.97c-.53-1.19-.8-2.44-.8-3.75 0-2.71.95-5.11 2.82-7.21h-8.3c-1.3 2.45-1.95 5.13-1.95 8.04ZM34.45 76.38h-4.49l-2.92-7.15h10.38l-2.97 7.15Zm111.96-7.15h-11.17a23.75 23.75 0 0 1-4.48 2.06c-3.69 1.25-10.31 1.86-19.86 1.86h-7.98v-3.93H96.3v7.15h41.42c.21-.1.41-.21.61-.32 3.05-1.68 5.74-3.96 8.07-6.83l.01.01Zm80.31 0H213.9a28.032 28.032 0 0 1-12.78 3.08c-4.6 0-8.94-1.11-12.78-3.08h-12.82c2.86 2.91 6.2 5.34 9.9 7.15h31.39c3.7-1.81 7.05-4.24 9.9-7.15h.01Zm-153.13 0v7.15h6.9v-7.15h-6.9Zm209.78.3c-2.95 2.65-7.01 3.97-12.18 3.97-3.7 0-6.85-.74-9.45-2.23-1.05-.6-2.01-1.28-2.9-2.04h-9.58c.11.15.21.31.33.46 2.03 2.75 4.59 4.98 7.68 6.69h28.02c1.19-.71 2.3-1.52 3.33-2.45 1.62-1.45 2.94-3.02 3.96-4.7h-8.88c-.11.1-.21.2-.32.3h-.01Z"/><path d="M14.3 18.26H6.79l-1.45-3.54h7.51l1.45 3.54Zm44.88 0 1.47-3.54h-7.52l-1.47 3.54h7.52Zm44.36 0v-3.54h-6.62v3.54h6.62Zm26.23-1.48c1.3.41 2.53.91 3.7 1.48h12.34a29.44 29.44 0 0 0-3.87-3.54h-33.52c9.92 0 17.04.69 21.35 2.06Zm60.68 1.48c1.44-.64 2.3-2.06 2.29-3.54h-11.59a35.804 35.804 0 0 0-4.3 3.54h13.61-.01Zm22.6 0h13.58a35.804 35.804 0 0 0-4.3-3.54h-11.44c-.04 1.46.77 2.87 2.15 3.54h.01Zm-7.59 0v-3.54h-6.93v3.54h6.93Zm-124.36 0v-3.54h-6.9v3.54h6.9ZM281 16.89c.55.42 1.06.88 1.55 1.37h9.1c-.41-.69-.85-1.33-1.32-1.91-.46-.58-.96-1.11-1.47-1.63h-11.85c1.43.54 2.76 1.25 3.99 2.18v-.01Zm-22.02 1.37c.35-.39.71-.77 1.12-1.14 1.16-1.04 2.49-1.83 3.97-2.41h-10.92c-.99 1.12-1.81 2.3-2.47 3.54h8.3v.01ZM51.7 39.22h-7.54l4.16-10h7.53l-4.15 10Zm-31.7-10h-7.51l4.09 10h7.51l-4.09-10Zm84.76 10v-10h-6.62v10h6.62Zm51.25 0c-.39-3.57-1.16-6.91-2.32-10h-7.9c1.57 3 2.62 6.34 3.13 10h7.09Zm19.18 0c.63-3.58 1.94-6.97 3.83-10h-8.71a35.971 35.971 0 0 0-2.9 10h7.78Zm55.54 0h7.77c-.48-3.49-1.47-6.86-2.9-10h-8.7c1.89 3.03 3.2 6.42 3.83 10Zm-30.92 0h6.8c.04-.21.06-.43.06-.65v-9.36h-6.93v9.36c0 .22.02.44.06.65h.01Zm-117.49 0v-10h-6.9v10h6.9Zm178.27-6.61c-1.08-1.07-1.88-2.2-2.42-3.4h-7.97c.61 3.39 2.3 6.31 5.1 8.78.47.41.98.82 1.53 1.22h18.66c-.32-.09-.63-.19-.96-.28-7.19-2.07-11.84-4.18-13.94-6.32ZM45.34 51.61l-2.17 5.24h-7.55l2.18-5.24h7.55-.01Zm-17.39 0h-7.51l2.14 5.24h7.51l-2.14-5.24Zm119.56 0c-.33 1.85-.81 3.59-1.43 5.24h7.38c.49-1.68.87-3.43 1.13-5.24h-7.08Zm-50.58 0v5.24h6.62v-5.24h-6.62Zm129.96 5.24h8.39c.64-1.69 1.16-3.44 1.55-5.24h-7.91c-.51 1.83-1.19 3.58-2.03 5.24Zm-58.69 0h8.4c-.84-1.66-1.53-3.41-2.03-5.24h-7.91c.38 1.8.91 3.55 1.55 5.24h-.01Zm-87.09-5.24h-6.9v5.24h6.9v-5.24Zm203.32.06c1.74 1.52 2.9 3.25 3.5 5.18h7.69c-.26-1.89-.8-3.64-1.6-5.24h-9.66s.05.04.08.06h-.01ZM31.93 69.23H21.55l-.78-1.91h11.95l-.79 1.91Zm100.6-1.91c-.87.7-1.8 1.33-2.77 1.91h11.17c.49-.61.97-1.25 1.43-1.91h-9.83Zm-41.7 0v1.91h6.62v-1.91h-6.62Zm117.6 1.91h12.82c.6-.61 1.18-1.25 1.74-1.91h-11.36c-1.02.7-2.09 1.34-3.2 1.91Zm-40.12-1.91c.56.66 1.14 1.29 1.74 1.91h12.82c-1.11-.57-2.18-1.2-3.2-1.91h-11.36Zm-100.2 0v1.91h6.9v-1.91h-6.9Zm210.1 1.91h8.88c.38-.62.71-1.26 1.01-1.91h-8.18c-.49.66-1.06 1.3-1.71 1.91Zm-26.75-1.91h-8.85c.37.69.76 1.32 1.17 1.91h9.58c-.68-.59-1.31-1.22-1.9-1.91ZM30.19 76.38l-1.43 3.45h-1.64l-1.41-3.45h4.49-.01Zm61.86 0v3.45h27c5.9-.4 10.7-1.55 14.42-3.45H92.05Zm89.12 0c3.77 1.84 7.91 3.04 12.27 3.45h6.84c4.36-.41 8.5-1.61 12.27-3.45h-31.39.01Zm-104.94 0h-6.9c0 1.61 1.01 2.98 2.41 3.45h2.08c1.4-.46 2.41-1.83 2.41-3.45Zm178.27.76c3.76 1.79 7.91 2.68 12.42 2.68 5.55 0 10.25-1.15 14.11-3.45h-28.02c.49.27.98.53 1.49.77ZM193.4 0h-5.5v1.83h5.5V0ZM250.56 9.55h-6.7v2.65h6.7V9.55ZM163.97 67.07h-1.91v1.91h1.91v-1.91ZM12.07 51.35H4.95v2.01h7.12v-2.01Z"/></symbol><symbol viewBox="0 0 306 80" id="glitch-r" xmlns="http://www.w3.org/2000/svg"><path d="M200 41.17c1.69 0 3.09-1.21 3.4-2.82h-6.8c.3 1.6 1.71 2.82 3.4 2.82ZM29.99 78.97h1.64l-.07.17h-1.5l-.07-.17Zm64.94.17h21.97c1.76 0 3.43-.06 5.03-.17h-27v.17Zm104.81 0c1.15 0 2.3-.06 3.42-.17h-6.84c1.13.11 2.27.17 3.42.17Zm-124.08 0c.36 0 .71-.06 1.04-.17h-2.08c.33.11.68.17 1.04.17ZM58.66 13.85h-7.52l2.95-7.09h7.51l-2.94 7.09ZM7.95 6.76H.44l2.9 7.09h7.51l-2.9-7.09Zm98.47 7.09h33.52c-2.44-1.87-5.18-3.36-8.23-4.48-4.66-1.74-12.16-2.61-22.48-2.61H94.92v7.09h11.5Zm84-1.51a3.847 3.847 0 0 0-5.07-1.98 35.73 35.73 0 0 0-6.2 3.49h11.59c0-.51-.11-1.02-.32-1.51Zm23.89-1.9c-1.94-.86-4.21 0-5.08 1.95-.21.48-.31.97-.33 1.46h11.44a36.683 36.683 0 0 0-6.03-3.42v.01Zm-10.85-6.97c0-1.91-1.55-3.46-3.46-3.46a3.47 3.47 0 0 0-3.47 3.46v10.38h6.93V3.46v.01ZM79.1 10.39c0-2-1.54-3.62-3.45-3.62-1.91 0-3.45 1.62-3.45 3.62v3.47h6.9v-3.47Zm189.42 2.35c2.36 0 4.52.38 6.49 1.12h11.85c-2.07-2.1-4.49-3.75-7.29-4.93-3.49-1.47-7.2-2.2-11.15-2.2-6.48 0-11.72 1.84-15.71 5.53-.56.52-1.08 1.06-1.56 1.6h10.92c1.89-.74 4.03-1.12 6.45-1.12ZM36.82 66.47H24.87l-4.29-10.48h7.51l2.74 6.69 2.78-6.69h7.55l-4.35 10.48h.01Zm114.64-10.48h-7.38c-.66 1.74-1.47 3.37-2.45 4.89a23.651 23.651 0 0 1-5 5.6h9.83c.76-1.09 1.48-2.24 2.15-3.47 1.19-2.2 2.14-4.54 2.86-7.01l-.01-.01Zm-56.53 0v10.48h6.62V55.99h-6.62Zm79.67 0h-8.4c1.47 3.86 3.58 7.39 6.21 10.48h11.36a28.433 28.433 0 0 1-9.17-10.48Zm41.13 10.48h11.36c2.63-3.09 4.74-6.63 6.21-10.48h-8.39a28.433 28.433 0 0 1-9.17 10.48h-.01ZM79.12 55.99h-6.9v10.48h6.9V55.99Zm174.97 8.49c-.95-1.5-1.81-3.62-2.57-6.38l-7.25 1.93c.68 2.51 1.5 4.65 2.46 6.44h8.85c-.53-.63-1.03-1.29-1.49-1.99Zm32.34-5.23c0 2.68-.8 5.08-2.4 7.22h8.18c1.07-2.35 1.6-4.9 1.6-7.65 0-.98-.07-1.92-.19-2.83h-7.69c.32 1.03.49 2.11.49 3.26h.01ZM25.34 50.74h-7.51l-5.07-12.39h7.51l5.07 12.39Zm15-12.39-5.15 12.39h7.55l5.14-12.39h-7.54ZM144.9 50.74h7.08c.33-2.2.49-4.49.49-6.88 0-1.89-.1-3.73-.29-5.5h-7.09c.25 1.8.38 3.67.38 5.62 0 2.39-.2 4.64-.58 6.76h.01Zm-43.97 0V38.35h-6.62v12.39h6.62Zm126.4-7.5c0 2.6-.36 5.11-1.02 7.5h7.91a35.675 35.675 0 0 0 .45-12.39h-7.77c.28 1.6.43 3.23.43 4.89Zm-63.3 7.5h7.91c-.66-2.39-1.02-4.9-1.02-7.5 0-1.66.15-3.29.43-4.89h-7.78a36.08 36.08 0 0 0-.34 4.89c0 2.57.28 5.08.79 7.5h.01ZM78.49 38.35h-6.9v12.39h6.9V38.35Zm190.93 7.17c6.14 1.75 10.24 3.49 12.31 5.22h9.66c-.76-1.52-1.77-2.92-3.02-4.19-3.11-3.1-8.69-5.83-16.7-8.2h-18.66c3.66 2.68 9.13 5.07 16.41 7.17ZM14.35 28.35H6.84L2.36 17.39h7.51l4.48 10.96Zm35.85 0 4.55-10.96h-7.52l-4.56 10.96h7.53Zm48.91 0V17.39h-6.62v10.96h6.62Zm39.71-2.26c.48.73.91 1.49 1.32 2.26h7.9a34.86 34.86 0 0 0-3.04-6.19 31.426 31.426 0 0 0-3.61-4.77h-12.34c4.02 1.96 7.28 4.86 9.78 8.7h-.01Zm25.84 2.26h8.71a28.16 28.16 0 0 1 12.64-10.95h-13.59a35.88 35.88 0 0 0-7.75 10.95h-.01Zm56.59 0h8.7c-1.87-4.1-4.5-7.82-7.76-10.96h-13.58s.08.05.13.07c5.27 2.34 9.57 6.19 12.5 10.89h.01Zm-20.22 0V17.39h-6.93v10.96h6.93Zm-124.36 0V17.39h-6.9v10.96h6.9Zm206.07-2.82 7.01-2.16c-.67-2.3-1.52-4.29-2.53-5.97h-9.1c2.1 2.08 3.65 4.78 4.62 8.13Zm-38.44-.09c0 1.01.09 1.98.26 2.92h7.97c-.53-1.19-.8-2.44-.8-3.75 0-2.71.95-5.11 2.82-7.21h-8.3c-1.3 2.45-1.95 5.13-1.95 8.04ZM34.89 75.52H30.4l-2.92-7.15h10.38l-2.97 7.15Zm111.96-7.15h-11.17a23.75 23.75 0 0 1-4.48 2.06c-3.69 1.25-10.31 1.86-19.86 1.86h-7.98v-3.93h-6.62v7.15h41.42c.21-.1.41-.21.61-.32 3.05-1.68 5.74-3.96 8.07-6.83l.01.01Zm80.31 0h-12.82a28.032 28.032 0 0 1-12.78 3.08c-4.6 0-8.94-1.11-12.78-3.08h-12.82c2.86 2.91 6.2 5.34 9.9 7.15h31.39c3.7-1.81 7.05-4.24 9.9-7.15h.01Zm-153.13 0v7.15h6.9v-7.15h-6.9Zm209.78.3c-2.95 2.65-7.01 3.97-12.18 3.97-3.7 0-6.85-.74-9.45-2.23-1.05-.6-2.01-1.28-2.9-2.04h-9.58c.11.15.21.31.33.46 2.03 2.75 4.59 4.98 7.68 6.69h28.02c1.19-.71 2.3-1.52 3.33-2.45 1.62-1.45 2.94-3.02 3.96-4.7h-8.88c-.11.1-.21.2-.32.3h-.01Z"/><path d="M14.74 17.39H7.23l-1.45-3.54h7.51l1.45 3.54Zm44.88 0 1.47-3.54h-7.52l-1.47 3.54h7.52Zm44.36 0v-3.54h-6.62v3.54h6.62Zm26.23-1.48c1.3.41 2.53.91 3.7 1.48h12.34a29.44 29.44 0 0 0-3.87-3.54h-33.52c9.92 0 17.04.69 21.35 2.06Zm60.68 1.48c1.44-.64 2.3-2.06 2.29-3.54h-11.59a35.804 35.804 0 0 0-4.3 3.54h13.61-.01Zm22.6 0h13.58a35.804 35.804 0 0 0-4.3-3.54h-11.44c-.04 1.46.77 2.87 2.15 3.54h.01Zm-7.59 0v-3.54h-6.93v3.54h6.93Zm-124.36 0v-3.54h-6.9v3.54h6.9Zm199.9-1.37c.55.42 1.06.88 1.55 1.37h9.1c-.41-.69-.85-1.33-1.32-1.91-.46-.58-.96-1.11-1.47-1.63h-11.85c1.43.54 2.76 1.25 3.99 2.18v-.01Zm-22.02 1.37c.35-.39.71-.77 1.12-1.14 1.16-1.04 2.49-1.83 3.97-2.41h-10.92c-.99 1.12-1.81 2.3-2.47 3.54h8.3v.01ZM52.14 38.36H44.6l4.16-10h7.53l-4.15 10Zm-31.7-10h-7.51l4.09 10h7.51l-4.09-10Zm84.76 10v-10h-6.62v10h6.62Zm51.25 0c-.39-3.57-1.16-6.91-2.32-10h-7.9c1.57 3 2.62 6.34 3.13 10h7.09Zm19.18 0c.63-3.58 1.94-6.97 3.83-10h-8.71a35.971 35.971 0 0 0-2.9 10h7.78Zm55.54 0h7.77c-.48-3.49-1.47-6.86-2.9-10h-8.7c1.89 3.03 3.2 6.42 3.83 10Zm-30.92 0h6.8c.04-.21.06-.43.06-.65v-9.36h-6.93v9.36c0 .22.02.44.06.65h.01Zm-117.49 0v-10h-6.9v10h6.9Zm178.27-6.61c-1.08-1.07-1.88-2.2-2.42-3.4h-7.97c.61 3.39 2.3 6.31 5.1 8.78.47.41.98.82 1.53 1.22h18.66c-.32-.09-.63-.19-.96-.28-7.19-2.07-11.84-4.18-13.94-6.32ZM45.78 50.74l-2.17 5.24h-7.55l2.18-5.24h7.55-.01Zm-17.39 0h-7.51l2.14 5.24h7.51l-2.14-5.24Zm119.56 0c-.33 1.85-.81 3.59-1.43 5.24h7.38c.49-1.68.87-3.43 1.13-5.24h-7.08Zm-50.58 0v5.24h6.62v-5.24h-6.62Zm129.96 5.24h8.39c.64-1.69 1.16-3.44 1.55-5.24h-7.91c-.51 1.83-1.19 3.58-2.03 5.24Zm-58.69 0h8.4c-.84-1.66-1.53-3.41-2.03-5.24h-7.91c.38 1.8.91 3.55 1.55 5.24h-.01Zm-87.09-5.24h-6.9v5.24h6.9v-5.24Zm203.32.06c1.74 1.52 2.9 3.25 3.5 5.18h7.69c-.26-1.89-.8-3.64-1.6-5.24h-9.66s.05.04.08.06h-.01ZM32.38 68.37H22l-.78-1.91h11.95l-.79 1.91Zm100.6-1.91c-.87.7-1.8 1.33-2.77 1.91h11.17c.49-.61.97-1.25 1.43-1.91h-9.83Zm-41.7 0v1.91h6.62v-1.91h-6.62Zm117.6 1.91h12.82c.6-.61 1.18-1.25 1.74-1.91h-11.36c-1.02.7-2.09 1.34-3.2 1.91Zm-40.12-1.91c.56.66 1.14 1.29 1.74 1.91h12.82c-1.11-.57-2.18-1.2-3.2-1.91h-11.36Zm-100.2 0v1.91h6.9v-1.91h-6.9Zm210.1 1.91h8.88c.38-.62.71-1.26 1.01-1.91h-8.18c-.49.66-1.06 1.3-1.71 1.91Zm-26.75-1.91h-8.85c.37.69.76 1.32 1.17 1.91h9.58c-.68-.59-1.31-1.22-1.9-1.91ZM30.63 75.52l-1.43 3.45h-1.64l-1.41-3.45h4.49-.01Zm61.86 0v3.45h27c5.9-.4 10.7-1.55 14.42-3.45H92.49Zm89.12 0c3.77 1.84 7.91 3.04 12.27 3.45h6.84c4.36-.41 8.5-1.61 12.27-3.45H181.6h.01Zm-104.94 0h-6.9c0 1.61 1.01 2.98 2.41 3.45h2.08c1.4-.46 2.41-1.83 2.41-3.45Zm178.27.76c3.76 1.79 7.91 2.68 12.42 2.68 5.55 0 10.25-1.15 14.11-3.45h-28.02c.49.27.98.53 1.49.77ZM153.4 15.62h-4.99v1.77h4.99v-1.77ZM48.71 65.51h-9.08v2.51h9.08v-2.51ZM305.82 22.48h-9.77v2.01h9.77v-2.01Z"/></symbol><symbol viewBox="0 0 297 80" id="glitch-w" xmlns="http://www.w3.org/2000/svg"><path d="M199.96 41.17c1.69 0 3.09-1.21 3.4-2.82h-6.8c.3 1.6 1.71 2.82 3.4 2.82ZM29.95 78.97h1.64l-.07.17h-1.5l-.07-.17Zm64.94.17h21.97c1.76 0 3.43-.06 5.03-.17h-27v.17Zm104.81 0c1.15 0 2.3-.06 3.42-.17h-6.84c1.13.11 2.27.17 3.42.17Zm-124.08 0c.36 0 .71-.06 1.04-.17h-2.08c.33.11.68.17 1.04.17ZM58.61 13.85h-7.52l2.95-7.09h7.51l-2.94 7.09ZM7.91 6.76H.4l2.9 7.09h7.51l-2.9-7.09Zm98.47 7.09h33.52c-2.44-1.87-5.18-3.36-8.23-4.48-4.66-1.74-12.16-2.61-22.48-2.61H94.88v7.09h11.5Zm84-1.51a3.847 3.847 0 0 0-5.07-1.98 35.73 35.73 0 0 0-6.2 3.49h11.59c0-.51-.11-1.02-.32-1.51Zm23.89-1.9c-1.94-.86-4.21 0-5.08 1.95-.21.48-.31.97-.33 1.46h11.44a36.683 36.683 0 0 0-6.03-3.42v.01Zm-10.85-6.97c0-1.91-1.55-3.46-3.46-3.46a3.47 3.47 0 0 0-3.47 3.46v10.38h6.93V3.46v.01ZM79.06 10.39c0-2-1.54-3.62-3.45-3.62-1.91 0-3.45 1.62-3.45 3.62v3.47h6.9v-3.47Zm189.42 2.35c2.36 0 4.52.38 6.49 1.12h11.85c-2.07-2.1-4.49-3.75-7.29-4.93-3.49-1.47-7.2-2.2-11.15-2.2-6.48 0-11.72 1.84-15.71 5.53-.56.52-1.08 1.06-1.56 1.6h10.92c1.89-.74 4.03-1.12 6.45-1.12ZM36.78 66.47H24.83l-4.29-10.48h7.51l2.74 6.69 2.78-6.69h7.55l-4.35 10.48h.01Zm114.64-10.48h-7.38c-.66 1.74-1.47 3.37-2.45 4.89a23.651 23.651 0 0 1-5 5.6h9.83c.76-1.09 1.48-2.24 2.15-3.47 1.19-2.2 2.14-4.54 2.86-7.01l-.01-.01Zm-56.53 0v10.48h6.62V55.99h-6.62Zm79.67 0h-8.4c1.47 3.86 3.58 7.39 6.21 10.48h11.36a28.433 28.433 0 0 1-9.17-10.48Zm41.13 10.48h11.36c2.63-3.09 4.74-6.63 6.21-10.48h-8.39a28.433 28.433 0 0 1-9.17 10.48h-.01ZM79.08 55.99h-6.9v10.48h6.9V55.99Zm174.97 8.49c-.95-1.5-1.81-3.62-2.57-6.38l-7.25 1.93c.68 2.51 1.5 4.65 2.46 6.44h8.85c-.53-.63-1.03-1.29-1.49-1.99Zm32.34-5.23c0 2.68-.8 5.08-2.4 7.22h8.18c1.07-2.35 1.6-4.9 1.6-7.65 0-.98-.07-1.92-.19-2.83h-7.69c.32 1.03.49 2.11.49 3.26h.01ZM25.3 50.74h-7.51l-5.07-12.39h7.51l5.07 12.39Zm15-12.39-5.15 12.39h7.55l5.14-12.39H40.3Zm104.56 12.39h7.08c.33-2.2.49-4.49.49-6.88 0-1.89-.1-3.73-.29-5.5h-7.09c.25 1.8.38 3.67.38 5.62 0 2.39-.2 4.64-.58 6.76h.01Zm-43.97 0V38.35h-6.62v12.39h6.62Zm126.4-7.5c0 2.6-.36 5.11-1.02 7.5h7.91a35.675 35.675 0 0 0 .45-12.39h-7.77c.28 1.6.43 3.23.43 4.89Zm-63.3 7.5h7.91c-.66-2.39-1.02-4.9-1.02-7.5 0-1.66.15-3.29.43-4.89h-7.78a36.08 36.08 0 0 0-.34 4.89c0 2.57.28 5.08.79 7.5h.01ZM78.45 38.35h-6.9v12.39h6.9V38.35Zm190.93 7.17c6.14 1.75 10.24 3.49 12.31 5.22h9.66c-.76-1.52-1.77-2.92-3.02-4.19-3.11-3.1-8.69-5.83-16.7-8.2h-18.66c3.66 2.68 9.13 5.07 16.41 7.17ZM14.31 28.35H6.8L2.32 17.39h7.51l4.48 10.96Zm35.85 0 4.55-10.96h-7.52l-4.56 10.96h7.53Zm48.91 0V17.39h-6.62v10.96h6.62Zm39.71-2.26c.48.73.91 1.49 1.32 2.26h7.9a34.86 34.86 0 0 0-3.04-6.19 31.426 31.426 0 0 0-3.61-4.77h-12.34c4.02 1.96 7.28 4.86 9.78 8.7h-.01Zm25.84 2.26h8.71a28.16 28.16 0 0 1 12.64-10.95h-13.59a35.88 35.88 0 0 0-7.75 10.95h-.01Zm56.59 0h8.7c-1.87-4.1-4.5-7.82-7.76-10.96h-13.58s.08.05.13.07c5.27 2.34 9.57 6.19 12.5 10.89h.01Zm-20.22 0V17.39h-6.93v10.96h6.93Zm-124.36 0V17.39h-6.9v10.96h6.9Zm206.07-2.82 7.01-2.16c-.67-2.3-1.52-4.29-2.53-5.97h-9.1c2.1 2.08 3.65 4.78 4.62 8.13Zm-38.44-.09c0 1.01.09 1.98.26 2.92h7.97c-.53-1.19-.8-2.44-.8-3.75 0-2.71.95-5.11 2.82-7.21h-8.3c-1.3 2.45-1.95 5.13-1.95 8.04ZM34.85 75.52h-4.49l-2.92-7.15h10.38l-2.97 7.15Zm111.96-7.15h-11.17a23.75 23.75 0 0 1-4.48 2.06c-3.69 1.25-10.31 1.86-19.86 1.86h-7.98v-3.93H96.7v7.15h41.42c.21-.1.41-.21.61-.32 3.05-1.68 5.74-3.96 8.07-6.83l.01.01Zm80.31 0H214.3a28.032 28.032 0 0 1-12.78 3.08c-4.6 0-8.94-1.11-12.78-3.08h-12.82c2.86 2.91 6.2 5.34 9.9 7.15h31.39c3.7-1.81 7.05-4.24 9.9-7.15h.01Zm-153.13 0v7.15h6.9v-7.15h-6.9Zm209.78.3c-2.95 2.65-7.01 3.97-12.18 3.97-3.7 0-6.85-.74-9.45-2.23-1.05-.6-2.01-1.28-2.9-2.04h-9.58c.11.15.21.31.33.46 2.03 2.75 4.59 4.98 7.68 6.69h28.02c1.19-.71 2.3-1.52 3.33-2.45 1.62-1.45 2.94-3.02 3.96-4.7h-8.88c-.11.1-.21.2-.32.3h-.01Z"/><path d="M14.7 17.39H7.19l-1.45-3.54h7.51l1.45 3.54Zm44.88 0 1.47-3.54h-7.52l-1.47 3.54h7.52Zm44.36 0v-3.54h-6.62v3.54h6.62Zm26.23-1.48c1.3.41 2.53.91 3.7 1.48h12.34a29.44 29.44 0 0 0-3.87-3.54h-33.52c9.92 0 17.04.69 21.35 2.06Zm60.68 1.48c1.44-.64 2.3-2.06 2.29-3.54h-11.59a35.804 35.804 0 0 0-4.3 3.54h13.61-.01Zm22.6 0h13.58a35.804 35.804 0 0 0-4.3-3.54h-11.44c-.04 1.46.77 2.87 2.15 3.54h.01Zm-7.59 0v-3.54h-6.93v3.54h6.93Zm-124.36 0v-3.54h-6.9v3.54h6.9Zm199.9-1.37c.55.42 1.06.88 1.55 1.37h9.1c-.41-.69-.85-1.33-1.32-1.91-.46-.58-.96-1.11-1.47-1.63h-11.85c1.43.54 2.76 1.25 3.99 2.18v-.01Zm-22.02 1.37c.35-.39.71-.77 1.12-1.14 1.16-1.04 2.49-1.83 3.97-2.41h-10.92c-.99 1.12-1.81 2.3-2.47 3.54h8.3v.01ZM52.1 38.36h-7.54l4.16-10h7.53l-4.15 10Zm-31.7-10h-7.51l4.09 10h7.51l-4.09-10Zm84.76 10v-10h-6.62v10h6.62Zm51.25 0c-.39-3.57-1.16-6.91-2.32-10h-7.9c1.57 3 2.62 6.34 3.13 10h7.09Zm19.18 0c.63-3.58 1.94-6.97 3.83-10h-8.71a35.971 35.971 0 0 0-2.9 10h7.78Zm55.54 0h7.77c-.48-3.49-1.47-6.86-2.9-10h-8.7c1.89 3.03 3.2 6.42 3.83 10Zm-30.92 0h6.8c.04-.21.06-.43.06-.65v-9.36h-6.93v9.36c0 .22.02.44.06.65h.01Zm-117.49 0v-10h-6.9v10h6.9Zm178.27-6.61c-1.08-1.07-1.88-2.2-2.42-3.4h-7.97c.61 3.39 2.3 6.31 5.1 8.78.47.41.98.82 1.53 1.22h18.66c-.32-.09-.63-.19-.96-.28-7.19-2.07-11.84-4.18-13.94-6.32ZM45.74 50.74l-2.17 5.24h-7.55l2.18-5.24h7.55-.01Zm-17.39 0h-7.51l2.14 5.24h7.51l-2.14-5.24Zm119.56 0c-.33 1.85-.81 3.59-1.43 5.24h7.38c.49-1.68.87-3.43 1.13-5.24h-7.08Zm-50.58 0v5.24h6.62v-5.24h-6.62Zm129.96 5.24h8.39c.64-1.69 1.16-3.44 1.55-5.24h-7.91c-.51 1.83-1.19 3.58-2.03 5.24Zm-58.69 0h8.4c-.84-1.66-1.53-3.41-2.03-5.24h-7.91c.38 1.8.91 3.55 1.55 5.24h-.01Zm-87.09-5.24h-6.9v5.24h6.9v-5.24Zm203.32.06c1.74 1.52 2.9 3.25 3.5 5.18h7.69c-.26-1.89-.8-3.64-1.6-5.24h-9.66s.05.04.08.06h-.01ZM32.33 68.37H21.95l-.78-1.91h11.95l-.79 1.91Zm100.6-1.91c-.87.7-1.8 1.33-2.77 1.91h11.17c.49-.61.97-1.25 1.43-1.91h-9.83Zm-41.7 0v1.91h6.62v-1.91h-6.62Zm117.6 1.91h12.82c.6-.61 1.18-1.25 1.74-1.91h-11.36c-1.02.7-2.09 1.34-3.2 1.91Zm-40.12-1.91c.56.66 1.14 1.29 1.74 1.91h12.82c-1.11-.57-2.18-1.2-3.2-1.91h-11.36Zm-100.2 0v1.91h6.9v-1.91h-6.9Zm210.1 1.91h8.88c.38-.62.71-1.26 1.01-1.91h-8.18c-.49.66-1.06 1.3-1.71 1.91Zm-26.75-1.91h-8.85c.37.69.76 1.32 1.17 1.91h9.58c-.68-.59-1.31-1.22-1.9-1.91ZM30.59 75.52l-1.43 3.45h-1.64l-1.41-3.45h4.49-.01Zm61.86 0v3.45h27c5.9-.4 10.7-1.55 14.42-3.45H92.45Zm89.12 0c3.77 1.84 7.91 3.04 12.27 3.45h6.84c4.36-.41 8.5-1.61 12.27-3.45h-31.39.01Zm-104.94 0h-6.9c0 1.61 1.01 2.98 2.41 3.45h2.08c1.4-.46 2.41-1.83 2.41-3.45Zm178.27.76c3.76 1.79 7.91 2.68 12.42 2.68 5.55 0 10.25-1.15 14.11-3.45h-28.02c.49.27.98.53 1.49.77Z"/></symbol><symbol viewBox="0 0 26 26" id="home" xmlns="http://www.w3.org/2000/svg"><path d="M13.789 1.637c-.45-.35-.675-.525-.924-.592-.22-.06-.45-.06-.67 0-.248.067-.473.242-.923.592l-8.69 6.758c-.58.452-.87.678-1.08.96-.185.251-.323.534-.407.834C1 10.527 1 10.895 1 11.63v9.27c0 1.434 0 2.152.28 2.7.245.482.637.874 1.119 1.12.548.279 1.266.279 2.7.279h2.563c.359 0 .538 0 .675-.07a.64.64 0 0 0 .28-.28c.07-.137.07-.316.07-.675V15.52c0-.717 0-1.076.14-1.35a1.28 1.28 0 0 1 .56-.56c.273-.14.632-.14 1.35-.14h3.587c.717 0 1.076 0 1.35.14.241.123.437.32.56.56.14.274.14.633.14 1.35v8.456c0 .359 0 .538.07.675.061.12.16.219.28.28.137.07.316.07.675.07h2.562c1.435 0 2.153 0 2.7-.28a2.562 2.562 0 0 0 1.12-1.119c.28-.548.28-1.266.28-2.7v-9.27c0-.736 0-1.104-.095-1.442a2.563 2.563 0 0 0-.408-.833c-.209-.283-.5-.51-1.08-.96l-8.69-6.76Z" stroke="#FFFFE3" stroke-width="2" stroke-linecap="round" stroke-linejoin="round"/></symbol><symbol viewBox="0 0 36 36" id="linkedin" xmlns="http://www.w3.org/2000/svg"><path fill-rule="evenodd" clip-rule="evenodd" d="M3.263.679C1.836.679.68 1.8.68 3.184v29.96c0 1.383 1.157 2.505 2.584 2.505h29.801c1.428 0 2.585-1.122 2.585-2.505V3.184c0-1.383-1.157-2.505-2.585-2.505h-29.8ZM11.306 14.2v15.744H6.073V14.2h5.232Zm.344-4.868c0 1.51-1.136 2.72-2.96 2.72h-.034c-1.756 0-2.892-1.21-2.892-2.72 0-1.546 1.17-2.72 2.96-2.72s2.892 1.174 2.926 2.72Zm7.784 20.612h-5.232s.069-14.266 0-15.743h5.233v2.228c.696-1.072 1.94-2.598 4.716-2.598 3.443 0 6.024 2.25 6.024 7.086v9.027h-5.232v-8.421c0-2.117-.758-3.56-2.651-3.56-1.446 0-2.307.973-2.685 1.913-.138.336-.172.807-.172 1.277v8.791Z"/></symbol><symbol viewBox="0 0 421 123" id="logo" xmlns="http://www.w3.org/2000/svg"><path d="M91.42 19.42 54.6 117H39.9L3.08 19.42h13.58l30.66 84.14 30.66-84.14h13.44Zm26.709 0V117h-12.74V19.42h12.74Zm52.093 0c10.641 0 19.834 2.007 27.581 6.02 7.84 3.92 13.813 9.567 17.92 16.94 4.2 7.373 6.3 16.053 6.3 26.04 0 9.987-2.1 18.667-6.3 26.04-4.107 7.28-10.08 12.88-17.92 16.8-7.747 3.827-16.94 5.74-27.581 5.74h-30.379V19.42h30.379Zm0 87.08c12.601 0 22.214-3.313 28.84-9.94 6.627-6.72 9.941-16.1 9.941-28.14 0-12.133-3.36-21.607-10.08-28.42-6.627-6.813-16.194-10.22-28.701-10.22h-17.639v76.72h17.639Zm112.845 11.48c-9.053 0-17.313-2.1-24.78-6.3-7.467-4.293-13.393-10.22-17.78-17.78-4.293-7.653-6.44-16.24-6.44-25.76 0-9.52 2.147-18.06 6.44-25.62 4.387-7.653 10.313-13.58 17.78-17.78 7.467-4.293 15.727-6.44 24.78-6.44 9.147 0 17.453 2.147 24.92 6.44 7.467 4.2 13.347 10.08 17.64 17.64 4.293 7.56 6.44 16.147 6.44 25.76 0 9.613-2.147 18.2-6.44 25.76-4.293 7.56-10.173 13.487-17.64 17.78-7.467 4.2-15.773 6.3-24.92 6.3Zm0-11.06c6.813 0 12.927-1.587 18.34-4.76 5.507-3.173 9.8-7.7 12.88-13.58 3.173-5.88 4.76-12.693 4.76-20.44 0-7.84-1.587-14.653-4.76-20.44-3.08-5.88-7.327-10.407-12.74-13.58s-11.573-4.76-18.48-4.76-13.067 1.587-18.48 4.76-9.707 7.7-12.88 13.58c-3.08 5.787-4.62 12.6-4.62 20.44 0 7.747 1.54 14.56 4.62 20.44 3.173 5.88 7.467 10.407 12.88 13.58 5.507 3.173 11.667 4.76 18.48 4.76Zm96.758 11.06c-6.44 0-12.226-1.12-17.36-3.36-5.04-2.333-9.006-5.507-11.9-9.52-2.893-4.107-4.386-8.82-4.48-14.14h13.58c.467 4.573 2.334 8.447 5.6 11.62 3.36 3.08 8.214 4.62 14.56 4.62 6.067 0 10.827-1.493 14.28-4.48 3.547-3.08 5.32-7 5.32-11.76 0-3.733-1.026-6.767-3.08-9.1-2.053-2.333-4.62-4.107-7.7-5.32s-7.233-2.52-12.46-3.92c-6.44-1.68-11.62-3.36-15.54-5.04-3.826-1.68-7.14-4.293-9.94-7.84-2.706-3.64-4.06-8.493-4.06-14.56 0-5.32 1.354-10.033 4.06-14.14 2.707-4.107 6.487-7.28 11.34-9.52 4.947-2.24 10.594-3.36 16.94-3.36 9.147 0 16.614 2.287 22.4 6.86 5.88 4.573 9.194 10.64 9.94 18.2h-14c-.466-3.733-2.426-7-5.88-9.8-3.453-2.893-8.026-4.34-13.72-4.34-5.32 0-9.66 1.4-13.02 4.2-3.36 2.707-5.04 6.533-5.04 11.48 0 3.547.98 6.44 2.94 8.68 2.054 2.24 4.527 3.967 7.42 5.18 2.987 1.12 7.14 2.427 12.46 3.92 6.44 1.773 11.62 3.547 15.54 5.32 3.92 1.68 7.28 4.34 10.08 7.98 2.8 3.547 4.2 8.4 4.2 14.56 0 4.76-1.26 9.24-3.78 13.44-2.52 4.2-6.253 7.607-11.2 10.22-4.946 2.613-10.78 3.92-17.5 3.92Z"/><rect x="262" width="40" height="60.8" rx="0"/><rect x="276.4" y="4.8" width="12.8" height="51.2" rx="6"/></symbol><symbol viewBox="0 0 26 22" id="mail" xmlns="http://www.w3.org/2000/svg"><path d="m1 4.6 9.798 6.859c.793.555 1.19.833 1.621.94a2.4 2.4 0 0 0 1.162 0c.431-.107.828-.385 1.621-.94L25 4.6M6.76 20.2h12.48c2.016 0 3.024 0 3.794-.392a3.6 3.6 0 0 0 1.574-1.574c.392-.77.392-1.778.392-3.794V6.76c0-2.016 0-3.024-.392-3.794a3.6 3.6 0 0 0-1.574-1.574C22.264 1 21.256 1 19.24 1H6.76c-2.016 0-3.024 0-3.794.392a3.6 3.6 0 0 0-1.574 1.574C1 3.736 1 4.744 1 6.76v7.68c0 2.016 0 3.024.392 3.794a3.6 3.6 0 0 0 1.574 1.574c.77.392 1.778.392 3.794.392Z" stroke="#FFFFE3" stroke-width="2" stroke-linecap="round" stroke-linejoin="round"/></symbol><symbol viewBox="0 0 27 27" id="phone" xmlns="http://www.w3.org/2000/svg"><path d="M15.434 18.087c-1.66-.366-6.664-5.864-6.945-7.264-.281-1.4 1.794-2.209 1.78-3.17-.013-.96-3.217-6.246-4.284-6.53C4.918.837 1.51 3.867 1.455 6.145c-.05 2.072 2.763 7.336 6.754 11.637 3.262 3.514 9.038 7.474 11.444 7.532 2.405.059 5.636-3.371 5.437-4.3-.2-.928-5.002-4.58-6.072-4.716-1.07-.137-2.607 2.004-3.584 1.788Z" stroke="#FFFFE3" stroke-width="2"/></symbol><symbol viewBox="0 0 36 36" id="telegram" xmlns="http://www.w3.org/2000/svg"><path fill-rule="evenodd" clip-rule="evenodd" d="M35.649 18.26c0 9.657-7.829 17.486-17.485 17.486C8.507 35.746.679 27.917.679 18.26.679 8.604 8.507.776 18.164.776c9.656 0 17.485 7.828 17.485 17.485Zm-15.81-5.365c-3.004 1.298-11.665 4.983-11.665 4.983-2.052.83-.85 1.608-.85 1.608s1.751.623 3.253 1.09c1.502.467 2.303-.052 2.303-.052s3.505-2.387 7.06-4.93c2.503-1.764 1.902-.311 1.301.312a194.206 194.206 0 0 1-5.257 5.19c-.8.726-.4 1.349-.05 1.66 1.02.894 3.42 2.52 4.51 3.258.302.205.503.341.547.375.25.208 1.652 1.142 2.503.934.851-.207.951-1.401.951-1.401s.651-4.256 1.252-8.148c.111-.765.222-1.513.326-2.21.27-1.814.489-3.286.525-3.81.15-1.765-1.652-1.038-1.652-1.038s-3.905 1.66-5.057 2.18Z"/></symbol></svg>