<svg aria-hidden="true" style="position: absolute; width: 0; height: 0; overflow: hidden;" version="1.1" xmlns="http://www.w3.org/2000/svg" xmlns:xlink="http://www.w3.org/1999/xlink">
<defs>
<symbol id="icon-arrow" viewBox="0 0 43 32">
<path d="M34.46 28.056c1.537 1.587 4.069 1.628 5.656 0.091s1.628-4.069 0.091-5.656l-5.747 5.565zM21.333 8.748l2.874-2.782-2.874-2.968-2.874 2.968 2.874 2.782zM2.46 22.491c-1.537 1.587-1.496 4.119 0.091 5.656s4.119 1.496 5.656-0.091l-5.747-5.565zM40.207 22.491l-16-16.525-5.747 5.565 16 16.525 5.747-5.565zM18.46 5.966l-16 16.525 5.747 5.565 16-16.525-5.747-5.565z" fill="currentColor"></path>
</symbol>
<symbol id="icon-human" viewBox="0 0 769 1163">
<path fill-rule="evenodd" clip-rule="evenodd" d="M358.5 205C415.109 205 461 159.109 461 102.5C461 45.8908 415.109 0 358.5 0C301.891 0 256 45.8908 256 102.5C256 159.109 301.891 205 358.5 205ZM476 326.931V628C476 629.291 475.944 630.57 475.835 631.833L760.37 1085.95C775.032 1109.35 767.948 1140.21 744.548 1154.87C721.147 1169.53 690.292 1162.45 675.63 1139.05L382.995 672H379.9L205.8 830.169L97.5182 1129.51C88.1248 1155.48 59.4592 1168.91 33.4917 1159.52C7.52423 1150.12 -5.91174 1121.46 3.48165 1095.49L115.982 784.492C118.752 776.834 123.351 769.968 129.378 764.492L313 597.672V501.109L145.628 644.295C127.792 659.553 100.964 657.464 85.7052 639.628C70.4467 621.792 72.5362 594.964 90.3721 579.705L313 389.249V292.371C313 277.209 320.806 263.115 333.659 255.072L408.659 208.139C428.165 195.933 451.539 201.185 464.99 216.257C467.376 217.337 469.695 218.655 471.918 220.215L651.418 346.215C662.096 353.71 668.739 365.694 669.439 378.721L681.439 602.221C682.697 625.66 664.717 645.68 641.279 646.939C617.84 648.197 597.819 630.217 596.561 606.779L585.669 403.913L476 326.931Z" fill="black"/>
</symbol>
<symbol id="icon-fb" viewBox="0 0 7 14">
<path fill-rule="evenodd" clip-rule="evenodd" d="M4.54397 14V7.61441H6.60698L6.9165 5.12509H4.54397V3.53603C4.54397 2.81554 4.73583 2.32453 5.7318 2.32453L7 2.32399V0.097461C6.78068 0.0678617 6.02784 0 5.15162 0C3.32191 0 2.06927 1.15988 2.06927 3.28949V5.12509H0V7.61441H2.06927V14H4.54397Z" fill="currentColor"/>
</symbol>
<symbol id="icon-tg" viewBox="0 0 16 13">
<path d="M13.9985 0.0827811L0.700955 5.21053C-0.206545 5.57503 -0.201295 6.08128 0.534455 6.30703L3.94846 7.37203L11.8475 2.38828C12.221 2.16103 12.5622 2.28328 12.2817 2.53228L5.88196 8.30803H5.88046L5.88196 8.30878L5.64646 11.8278C5.99146 11.8278 6.1437 11.6695 6.3372 11.4828L7.99546 9.87028L11.4447 12.418C12.0807 12.7683 12.5375 12.5883 12.6957 11.8293L14.96 1.15828C15.1917 0.229031 14.6052 -0.191719 13.9985 0.0827811Z" fill="currentColor"/>
</symbol>
<symbol id="icon-vk" viewBox="0 0 21 12">
<path fill-rule="evenodd" clip-rule="evenodd" d="M10.0371 11.656H11.2771C11.2771 11.656 11.6491 11.594 11.8351 11.408C12.0211 11.222 12.0211 10.85 12.0211 10.85C12.0211 10.85 12.0211 9.238 12.7651 8.99C13.5091 8.742 14.5011 10.602 15.4931 11.284C16.2371 11.842 16.7951 11.718 16.7951 11.718L19.5231 11.656C19.5231 11.656 20.9491 11.594 20.2671 10.416C20.2051 10.354 19.8951 9.61 18.2211 8.06C16.4851 6.448 16.7331 6.758 18.7791 3.968C20.0191 2.294 20.5151 1.302 20.3911 0.805999C20.2671 0.372 19.3371 0.495999 19.3371 0.495999H16.2371C16.2371 0.495999 15.9891 0.434 15.8651 0.558C15.6791 0.682 15.6171 0.868 15.6171 0.868C15.6171 0.868 15.1211 2.17 14.5011 3.286C13.1371 5.58 12.5791 5.704 12.3931 5.58C11.8971 5.27 12.0211 4.216 12.0211 3.534C12.0211 1.302 12.3931 0.371999 11.3391 0.123999C11.0291 0.0619993 10.7811 0 9.91311 0C8.79711 0 7.86711 -2.40207e-07 7.37111 0.248C6.99911 0.434 6.75111 0.805999 6.93711 0.805999C7.12311 0.805999 7.61911 0.93 7.86711 1.24C8.11511 1.798 8.11511 2.728 8.11511 2.728C8.11511 2.728 8.30111 5.394 7.68111 5.704C7.24711 5.952 6.68911 5.456 5.44911 3.348C4.82911 2.294 4.33311 1.054 4.33311 1.054C4.33311 1.054 4.27111 0.806 4.08511 0.682C3.89911 0.558 3.58911 0.495999 3.58911 0.495999H0.675111C0.675111 0.495999 0.241111 0.496 0.0551111 0.682C-0.0688889 0.868 0.0551111 1.178 0.0551111 1.178C0.0551111 1.178 2.34911 6.51 4.95311 9.238C7.37111 11.842 10.0371 11.656 10.0371 11.656Z" fill="currentColor"/>
</symbol>
<symbol id="icon-inst" viewBox="0 0 14 14">
<path fill-rule="evenodd" clip-rule="evenodd" d="M3.86341 0H10.1364C12.2669 0 14.0001 1.73321 14 3.86349V10.1365C14 12.2668 12.2669 14 10.1364 14H3.86341C1.73313 14 0 12.2669 0 10.1365V3.86349C0 1.73321 1.73313 0 3.86341 0ZM3.33337 7.00007C3.33337 4.97819 4.97821 3.33332 7.00004 3.33332C9.02187 3.33332 10.6667 4.97819 10.6667 7.00007C10.6667 9.02186 9.02187 10.6666 7.00004 10.6666C4.97821 10.6666 3.33337 9.02186 3.33337 7.00007ZM4.59586 7.0001C4.59586 8.32571 5.6744 9.40411 6.99998 9.40411C8.32557 9.40411 9.40411 8.32571 9.40411 7.0001C9.40411 5.6744 8.32565 4.59591 6.99998 4.59591C5.67432 4.59591 4.59586 5.6744 4.59586 7.0001ZM10.2942 2.29282C10.4798 2.10646 10.7379 2.00009 11.0006 2.00009C11.2642 2.00009 11.5224 2.10646 11.7079 2.29282C11.8942 2.47827 12.0006 2.73646 12.0006 3.00009C12.0006 3.26282 11.8942 3.521 11.7079 3.70736C11.5215 3.89282 11.2642 4.00009 11.0006 4.00009C10.7379 4.00009 10.4797 3.89282 10.2942 3.70736C10.1079 3.521 10.0006 3.26291 10.0006 3.00009C10.0006 2.73646 10.1078 2.47827 10.2942 2.29282Z" fill="currentColor"/>
</symbol>
<symbol id="icon-yt" viewBox="0 0 20 14">
<path d="M19.3522 2.18694C19.2397 1.76346 19.0191 1.37727 18.7125 1.06702C18.4059 0.756774 18.024 0.533349 17.6051 0.419108C16.0632 8.5041e-08 9.88235 0 9.88235 0C9.88235 0 3.70147 -8.5041e-08 2.15956 0.416879C1.74049 0.530749 1.35844 0.75405 1.05178 1.06436C0.745118 1.37466 0.524645 1.76105 0.4125 2.18471C-8.41477e-08 3.74522 0 7 0 7C0 7 -8.41477e-08 10.2548 0.4125 11.8131C0.639706 12.6736 1.31029 13.3513 2.15956 13.5809C3.70147 14 9.88235 14 9.88235 14C9.88235 14 16.0632 14 17.6051 13.5809C18.4566 13.3513 19.125 12.6736 19.3522 11.8131C19.7647 10.2548 19.7647 7 19.7647 7C19.7647 7 19.7647 3.74522 19.3522 2.18694ZM7.91912 9.98726V4.01274L13.0368 6.97771L7.91912 9.98726Z" fill="currentColor"/>
</symbol>
<symbol id="icon-chat" viewBox="0 0 20 19">
<path  d="M13.9,7.4H4.3C4.1,7.4,4,7.6,4,7.8c0,0.2,0.1,0.4,0.4,0.4h9.6c0.2,0,0.4-0.2,0.4-0.4
	C14.2,7.6,14.1,7.4,13.9,7.4z"/>
<path  d="M13.9,4.3H4.3C4.1,4.3,4,4.5,4,4.7C4,5,4.1,5.2,4.3,5.2h9.6c0.2,0,0.4-0.2,0.4-0.4C14.2,4.5,14.1,4.3,13.9,4.3z
	"/>
<path  d="M16,17.1c0.3-0.1,0.5-0.3,0.5-0.6v-3.6c1-0.2,1.7-1.1,1.7-2.1V2.2c0-1.2-1-2.1-2.2-2.1H2.2C1,0.1,0.1,1,0.1,2.2
	v8.6c0,1.2,1,2.1,2.2,2.1h9.7c0.1,0,0.2,0,0.2,0.1l3.1,3.9c0.1,0.2,0.3,0.3,0.5,0.3C15.8,17.1,15.9,17.1,16,17.1z M16,17.1L16,17.1
	 M16,17.1L16,17.1L16,17.1 M16,17.1c-0.1,0-0.1,0-0.2,0c-0.2,0-0.4-0.1-0.5-0.2L12.1,13c-0.1-0.1-0.2-0.1-0.3-0.1H2.2
	c-1.2,0-2.1-0.9-2.1-2.1V2.2C0.1,1,1,0.1,2.2,0.1H16c1.2,0,2.1,0.9,2.1,2.1v8.6c0,1-0.7,1.9-1.7,2v3.7C16.4,16.7,16.2,17,16,17.1z
	 M17.3,10.8c0,0.7-0.6,1.3-1.3,1.3c-0.2,0-0.4,0.2-0.4,0.4v3.6l-2.9-3.6l0,0c-0.2-0.3-0.5-0.4-0.9-0.4H2.2c-0.7,0-1.3-0.6-1.3-1.3
	V2.2c0-0.7,0.6-1.3,1.3-1.3H16c0.7,0,1.3,0.6,1.3,1.3V10.8z"/>
</symbol>
<symbol id="icon-whatsapp" viewBox="0 0 19 19">
<path fill-rule="evenodd" clip-rule="evenodd" d="M15.403 2.63303C14.5714 1.79591 13.5819 1.13214 12.4919 0.680178C11.4019 0.22821 10.233 -0.00297023 9.053 2.88091e-05C4.105 2.88091e-05 0.077 4.02703 0.075 8.97703C0.075 10.559 0.488 12.103 1.273 13.465L0 18.116L4.759 16.867C6.07539 17.5836 7.5502 17.9594 9.049 17.96H9.053C14 17.96 18.028 13.933 18.03 8.98303C18.0334 7.80351 17.803 6.63502 17.3521 5.54509C16.9012 4.45516 16.2387 3.4654 15.403 2.63303ZM9.053 16.445H9.05C7.71352 16.4452 6.40163 16.0856 5.252 15.404L4.98 15.242L2.156 15.983L2.909 13.23L2.732 12.948C1.98479 11.7585 1.58923 10.3818 1.591 8.97703C1.593 4.86303 4.94 1.51603 9.056 1.51603C10.0363 1.51385 11.0072 1.70611 11.9127 2.08168C12.8181 2.45725 13.6401 3.00867 14.331 3.70403C15.0256 4.39607 15.5762 5.21892 15.9509 6.12503C16.3256 7.03113 16.517 8.00251 16.514 8.98303C16.512 13.097 13.165 16.445 9.053 16.445ZM13.146 10.856C12.921 10.743 11.819 10.201 11.613 10.126C11.408 10.051 11.259 10.014 11.109 10.238C10.959 10.462 10.529 10.967 10.398 11.117C10.267 11.267 10.136 11.285 9.912 11.173C9.688 11.061 8.965 10.824 8.108 10.06C7.441 9.46503 6.991 8.73103 6.86 8.50603C6.729 8.28103 6.846 8.16003 6.959 8.04803C7.06 7.94803 7.183 7.78603 7.295 7.65503C7.407 7.52403 7.444 7.43103 7.519 7.28103C7.594 7.13103 7.557 7.00003 7.5 6.88803C7.444 6.77503 6.995 5.67103 6.808 5.22203C6.627 4.78703 6.442 4.84503 6.304 4.83903C6.16108 4.83318 6.01804 4.83052 5.875 4.83103C5.76126 4.83393 5.64934 4.86029 5.54626 4.90848C5.44318 4.95666 5.35117 5.02562 5.276 5.11103C5.07 5.33603 4.491 5.87803 4.491 6.98203C4.491 8.08603 5.295 9.15303 5.407 9.30303C5.519 9.45303 6.989 11.718 9.239 12.69C9.775 12.921 10.193 13.059 10.518 13.163C11.055 13.334 11.544 13.309 11.931 13.252C12.362 13.188 13.258 12.71 13.445 12.186C13.632 11.662 13.632 11.213 13.576 11.119C13.52 11.025 13.369 10.968 13.146 10.856Z" fill="white"/>
</symbol>
<symbol id="icon-viber" viewBox="0 0 20 20">
<path d="M9.49924 0.00306806C7.89424 0.0224431 4.44362 0.286193 2.51362 2.05682C1.07799 3.47932 0.576744 5.58244 0.517994 8.18307C0.469244 10.7743 0.410494 15.6406 5.10112 16.9656V18.9837C5.10112 18.9837 5.07174 19.7912 5.60549 19.9568C6.26299 20.1649 6.63737 19.5437 7.26237 18.8762L8.42799 17.5581C11.6374 17.8249 14.0955 17.2099 14.3786 17.1187C15.0299 16.9106 18.698 16.4418 19.2974 11.5749C19.9124 6.54869 18.998 3.38182 17.3474 1.94932H17.3374C16.8392 1.49057 14.8374 0.0318181 10.3649 0.0155681C10.3649 0.0155681 10.033 -0.00630694 9.49924 0.00306806ZM9.55424 1.41619C10.0099 1.41307 10.2867 1.43244 10.2867 1.43244C14.0724 1.44244 15.8792 2.58182 16.3055 2.96557C17.6955 4.15682 18.4117 7.01182 17.8874 11.2081C17.3892 15.2768 14.4142 15.5343 13.8636 15.7099C13.6292 15.7849 11.4642 16.3187 8.73674 16.1431C8.73674 16.1431 6.70549 18.5943 6.07049 19.2256C5.96987 19.3362 5.85237 19.3687 5.77737 19.3524C5.66987 19.3262 5.63737 19.1931 5.64362 19.0106L5.66299 15.6612C1.68487 14.5612 1.91924 10.4106 1.96174 8.24244C2.01049 6.07432 2.41737 4.30057 3.62862 3.09932C5.25924 1.62494 8.18924 1.42619 9.55299 1.41619H9.55424ZM9.85424 3.58369C9.8215 3.58336 9.78902 3.58952 9.75867 3.6018C9.72831 3.61408 9.70069 3.63225 9.6774 3.65526C9.6541 3.67826 9.63558 3.70566 9.62292 3.73585C9.61026 3.76605 9.6037 3.79845 9.60362 3.83119C9.60362 3.97119 9.71737 4.08182 9.85424 4.08182C10.4739 4.07003 11.0898 4.18105 11.6664 4.40846C12.243 4.63587 12.7688 4.97518 13.2136 5.40682C14.1217 6.28869 14.5642 7.47369 14.5811 9.02307C14.5811 9.15994 14.6917 9.27369 14.8317 9.27369V9.26369C14.8977 9.26386 14.9611 9.23794 15.008 9.19158C15.055 9.14521 15.0817 9.08217 15.0824 9.01619C15.1127 8.28691 14.9945 7.55908 14.7348 6.87692C14.4751 6.19477 14.0794 5.57254 13.5717 5.04807C12.5824 4.08119 11.3286 3.58369 9.85424 3.58369ZM6.55987 4.15682C6.38296 4.13097 6.20254 4.16648 6.04862 4.25744H6.03549C5.67816 4.46691 5.35625 4.73164 5.08174 5.04182C4.85362 5.30557 4.72987 5.57244 4.69737 5.82932C4.67799 5.98244 4.69112 6.13557 4.73674 6.28182L4.75299 6.29182C5.00987 7.04682 5.34549 7.77307 5.75549 8.45682C6.28363 9.41742 6.93359 10.3058 7.68924 11.0999L7.71174 11.1324L7.74737 11.1587L7.76987 11.1849L7.79612 11.2074C8.59314 11.9653 9.48367 12.6183 10.4461 13.1506C11.5461 13.7493 12.2136 14.0324 12.6142 14.1499V14.1562C12.7317 14.1918 12.8386 14.2081 12.9461 14.2081C13.2875 14.1831 13.6108 14.0444 13.8642 13.8143C14.173 13.5397 14.4348 13.2165 14.6392 12.8574V12.8512C14.8311 12.4899 14.7661 12.1481 14.4892 11.9168C13.9348 11.4321 13.3351 11.0016 12.6986 10.6312C12.2724 10.3999 11.8392 10.5399 11.6636 10.7743L11.2892 11.2462C11.0974 11.4806 10.7486 11.4481 10.7486 11.4481L10.7386 11.4543C8.13799 10.7899 7.44424 8.15682 7.44424 8.15682C7.44424 8.15682 7.41174 7.79869 7.65237 7.61619L8.12112 7.23869C8.34549 7.05619 8.50174 6.62369 8.26112 6.19682C7.89324 5.55941 7.46368 4.95966 6.97862 4.40619C6.87258 4.27571 6.72381 4.18694 6.55862 4.15557L6.55987 4.15682ZM10.2867 4.89932C9.95487 4.89932 9.95487 5.40057 10.2899 5.40057C10.7025 5.40726 11.1099 5.49522 11.4885 5.6594C11.8672 5.82359 12.2098 6.06079 12.4967 6.35744C12.7585 6.6462 12.9597 6.98456 13.0883 7.35247C13.2169 7.72038 13.2703 8.11037 13.2455 8.49932C13.2466 8.56514 13.2735 8.6279 13.3203 8.67416C13.3672 8.72042 13.4303 8.7465 13.4961 8.74682L13.5061 8.75994C13.5724 8.75945 13.6359 8.73289 13.6828 8.686C13.7297 8.6391 13.7563 8.57564 13.7567 8.50932C13.7792 7.51619 13.4705 6.68307 12.8649 6.01557C12.2561 5.34807 11.4067 4.97369 10.3224 4.89932H10.2867ZM10.6974 6.24682C10.3555 6.23682 10.3424 6.74807 10.6811 6.75807C11.5049 6.80057 11.9049 7.21682 11.9574 8.07307C11.9585 8.13806 11.9851 8.20003 12.0313 8.2457C12.0776 8.29138 12.1399 8.31713 12.2049 8.31744H12.2149C12.2483 8.31601 12.2811 8.30793 12.3114 8.29369C12.3416 8.27944 12.3687 8.25931 12.3911 8.23446C12.4135 8.20962 12.4308 8.18056 12.4418 8.14899C12.4529 8.11742 12.4575 8.08396 12.4555 8.05057C12.3967 6.93432 11.788 6.30557 10.7074 6.24744L10.6974 6.24682Z" fill="white"/>
</symbol>
<symbol id="icon-fb-m" viewBox="0 0 20 20">
<path d="M10.0215 0.3125C4.55156 0.3125 0.3125 4.31016 0.3125 9.70977C0.3125 12.534 1.47305 14.9746 3.36211 16.6605C3.68828 16.9539 3.62109 17.1238 3.67656 18.9352C3.68093 19.062 3.71627 19.1859 3.77951 19.296C3.84275 19.4061 3.93196 19.499 4.03936 19.5667C4.14676 19.6344 4.2691 19.6748 4.39569 19.6843C4.52228 19.6939 4.64928 19.6723 4.76562 19.6215C6.83242 18.7113 6.85898 18.6395 7.20937 18.7348C13.1973 20.3828 19.6875 16.5508 19.6875 9.70977C19.6875 4.31016 15.4918 0.3125 10.0215 0.3125ZM15.8512 7.54414L12.9996 12.0586C12.8919 12.2284 12.7503 12.374 12.5837 12.4865C12.4171 12.599 12.2291 12.6759 12.0314 12.7123C11.8337 12.7487 11.6306 12.7439 11.4348 12.6981C11.2391 12.6524 11.0548 12.5667 10.8938 12.4465L8.625 10.7484C8.52358 10.6724 8.40022 10.6313 8.27344 10.6313C8.14666 10.6313 8.0233 10.6724 7.92188 10.7484L4.86055 13.0703C4.45195 13.3801 3.9168 12.8906 4.19219 12.4582L7.04375 7.94375C7.15139 7.77395 7.29296 7.62822 7.45957 7.5157C7.62618 7.40318 7.81424 7.3263 8.01196 7.28988C8.20968 7.25346 8.4128 7.25829 8.60856 7.30406C8.80433 7.34983 8.98853 7.43555 9.14961 7.55586L11.4176 9.25352C11.519 9.32958 11.6424 9.3707 11.7691 9.3707C11.8959 9.3707 12.0193 9.32958 12.1207 9.25352L15.1836 6.93398C15.5914 6.62227 16.1266 7.11133 15.8512 7.54414Z" fill="white"/>
</symbol>
<symbol id="icon-close" viewBox="0 0 14 14">
<path fill-rule="evenodd" clip-rule="evenodd" d="M13.7214 0.278417C13.3502 -0.0928059 12.7483 -0.0928058 12.3771 0.278418L6.99999 5.65562L1.62286 0.278418C1.25164 -0.0928058 0.649773 -0.0928059 0.278555 0.278417C-0.092664 0.649641 -0.0926637 1.25151 0.278555 1.62274L5.65569 6.99994L0.278414 12.3773C-0.0928046 12.7485 -0.0928048 13.3504 0.278414 13.7216C0.649633 14.0928 1.2515 14.0928 1.62272 13.7216L6.99999 8.34426L12.3773 13.7216C12.7485 14.0928 13.3504 14.0928 13.7216 13.7216C14.0928 13.3504 14.0928 12.7485 13.7216 12.3773L8.34429 6.99994L13.7214 1.62274C14.0926 1.25151 14.0926 0.649641 13.7214 0.278417Z" fill="currentColor"/>
</symbol>
<symbol id="icon-shop" viewBox="0 0 14 14">
<path d="M13.1654 3.00159V0.866585C13.1654 0.571585 12.927 0.333252 12.632 0.333252H1.36537C1.07037 0.333252 0.832041 0.571585 0.832041 0.866585V3.00159C0.553708 3.01825 0.332042 3.24992 0.332042 3.53325V5.72825C0.330974 6.13166 0.412657 6.531 0.572041 6.90159C0.643708 7.07159 0.732041 7.23159 0.832041 7.38325V13.1333C0.832041 13.4266 1.07037 13.6666 1.36537 13.6666H5.93204V10.7333H8.06537V13.6666H12.632C12.927 13.6666 13.1654 13.4283 13.1654 13.1333V7.38325C13.2669 7.2312 13.354 7.06994 13.4254 6.90159C13.5837 6.52992 13.6654 6.13492 13.6654 5.72825V3.53325C13.6654 3.24992 13.4437 3.01825 13.1654 3.00159ZM11.9654 12.4683H9.13204V10.1999C9.13204 9.90492 8.8937 9.66659 8.5987 9.66659H5.3987C5.1037 9.66659 4.86537 9.90492 4.86537 10.1999V12.4683H2.03204V8.43159C2.08037 8.45492 2.13037 8.47825 2.18204 8.49825C2.55371 8.65492 2.94871 8.73325 3.35537 8.73325C3.76204 8.73325 4.15537 8.65492 4.52871 8.49825C4.75871 8.40159 4.97537 8.27825 5.1737 8.12992C5.17704 8.12825 5.18037 8.12825 5.1837 8.12992C5.38265 8.27888 5.59931 8.40261 5.8287 8.49825C6.20037 8.65492 6.59537 8.73325 7.00204 8.73325C7.4087 8.73325 7.80204 8.65492 8.17537 8.49825C8.40537 8.40159 8.62204 8.27825 8.82037 8.12992C8.8237 8.12825 8.82704 8.12825 8.83037 8.12992C9.02932 8.27888 9.24597 8.40261 9.47537 8.49825C9.84703 8.65492 10.242 8.73325 10.6487 8.73325C11.0554 8.73325 11.4487 8.65492 11.822 8.49825C11.872 8.47659 11.922 8.45492 11.972 8.43159V12.4683H11.9654ZM11.9654 2.99992H2.03204V1.53325H11.9654V2.99992Z" fill="white"/>
</symbol>
<symbol id="icon-school" viewBox="0 0 17 14">
<path d="M2.89544 7.86035V9.90931C2.89544 10.4416 3.18711 10.9374 3.65378 11.1926L7.29961 13.1833C7.73711 13.4239 8.26211 13.4239 8.69961 13.1833L12.3454 11.1926C12.8121 10.9374 13.1038 10.4416 13.1038 9.90931V7.86035L8.69961 10.2666C8.26211 10.5072 7.73711 10.5072 7.29961 10.2666L2.89544 7.86035ZM7.29961 0.816602L1.15273 4.17077C0.649609 4.44785 0.649609 5.17702 1.15273 5.4541L7.29961 8.80827C7.73711 9.04889 8.26211 9.04889 8.69961 8.80827L14.5621 5.60723V9.9166C14.5621 10.3176 14.8902 10.6458 15.2913 10.6458C15.6923 10.6458 16.0204 10.3176 16.0204 9.9166V5.24264C16.0204 4.97285 15.8746 4.73223 15.6413 4.60098L8.69961 0.816602C8.48418 0.701703 8.24377 0.641602 7.99961 0.641602C7.75545 0.641602 7.51504 0.701703 7.29961 0.816602Z" fill="white"/>
</symbol>
<symbol id="icon-park" viewBox="0 0 14 14">
<path d="M13.25 5.3027C13.25 4.75936 13.0423 4.23828 12.6727 3.85409C12.303 3.4699 11.8017 3.25406 11.2789 3.25406C10.9648 3.25547 10.6556 3.3358 10.3778 3.48819C10.3661 3.11137 10.2138 2.75407 9.95317 2.49189C9.6925 2.2297 9.34392 2.08321 8.98118 2.08341C8.90079 2.09543 8.82162 2.11502 8.74465 2.14194C8.69519 1.79356 8.5246 1.4761 8.26517 1.24959C8.00573 1.02309 7.67542 0.903257 7.33672 0.912756C7.06826 0.914254 6.8058 0.995499 6.5803 1.14691C6.35479 1.29832 6.17564 1.51359 6.06396 1.76733C5.85734 1.62026 5.61572 1.5352 5.36563 1.52149C5.1418 1.52624 4.92242 1.5873 4.72626 1.69943C4.5301 1.81156 4.36301 1.97143 4.23929 2.16535C4.061 2.10627 3.87446 2.07857 3.68738 2.08341C3.40834 2.08308 3.1335 2.15411 2.8871 2.29025C2.64071 2.42639 2.43033 2.62345 2.27451 2.86406C2.1187 3.10466 2.02224 3.38141 1.99364 3.66991C1.96504 3.95841 2.00517 4.24979 2.11051 4.51836C1.73051 4.59451 1.3875 4.80482 1.13958 5.11368C0.891663 5.42254 0.754064 5.81096 0.750089 6.21316C0.746113 6.61537 0.876004 7.00665 1.11777 7.32073C1.35953 7.63482 1.6983 7.85241 2.07672 7.93666C2.16721 8.23263 2.33208 8.49813 2.55431 8.70572C2.77653 8.91331 3.04806 9.05548 3.34083 9.11753C3.6336 9.17958 3.937 9.15927 4.2197 9.05869C4.50239 8.95811 4.75412 8.78091 4.94888 8.5454H5.08404C5.4456 8.5454 5.79364 8.3979 6.0527 8.13567V12.6193L4.23929 13.7899H9.87098L8.06884 12.6193V11.4486C8.81484 10.502 9.72389 9.70805 10.7495 9.10731C11.0424 9.04878 11.3127 8.91181 11.538 8.70929C11.7259 8.54185 11.8759 8.33326 11.9771 8.09849C12.0784 7.86372 12.1284 7.60857 12.1237 7.35134C12.1274 7.28506 12.1274 7.21861 12.1237 7.15233C12.8107 6.81284 13.25 6.09406 13.25 5.3027ZM8.02379 10.5706V7.93666H8.22653C8.43064 7.93494 8.63281 7.89529 8.82349 7.8196C8.89195 8.08208 9.01813 8.32445 9.19209 8.5276C9.36605 8.73075 9.58303 8.88912 9.82593 8.99025C9.16699 9.44082 8.56202 9.97135 8.02379 10.5706Z" fill="white"/>
</symbol>
<symbol id="icon-child" viewBox="0 0 13 17">
<path fill-rule="evenodd" clip-rule="evenodd" d="M10.1013 1.11525C10.0908 1.11812 10.0381 1.1018 9.98422 1.07895C9.80012 1.00099 9.59955 0.936577 9.48427 0.918371C9.44118 0.911578 9.36844 0.899585 9.32264 0.891743C9.07817 0.849868 8.48927 0.858648 8.32777 0.906575C8.29246 0.917062 8.22817 0.928793 8.18489 0.932647C8.08392 0.941653 7.9232 0.985625 7.83195 1.02921C7.79265 1.04797 7.74276 1.06759 7.72108 1.0728C7.69941 1.07801 7.64962 1.09768 7.61044 1.11652C7.57127 1.13536 7.52124 1.15659 7.49927 1.16369C7.44019 1.18282 7.08178 1.38865 6.99725 1.45201C6.85932 1.5554 6.76576 1.6313 6.71754 1.67899C6.69098 1.70523 6.63425 1.75994 6.59149 1.80057C6.37742 2.0039 6.28061 2.13432 6.07467 2.49677C5.90943 2.7876 5.83106 2.95745 5.78477 3.12513C5.7727 3.16885 5.75355 3.23583 5.74222 3.27398C5.64692 3.59491 5.58973 4.37307 5.65001 4.52888C5.65298 4.5366 5.65817 4.57875 5.66151 4.62253C5.66485 4.66631 5.66998 4.70843 5.67293 4.71613C5.68367 4.74427 5.69826 5.02836 5.69651 5.17536C5.69157 5.59046 5.69691 5.54087 5.59958 6.07444C5.56572 6.2601 5.5507 6.31253 5.46373 6.54875C5.40122 6.71861 5.38052 6.76693 5.31313 6.90036L5.24753 7.03025L3.32051 5.89973L1.39349 4.7692L1.29188 4.76363C0.965228 4.74574 0.722913 5.04757 0.482488 5.77187C0.465059 5.82437 0.437243 5.90582 0.420671 5.95287C0.388555 6.04403 0.327015 6.33516 0.31138 6.46993C0.306187 6.51468 0.295257 6.61092 0.287066 6.68379C0.278892 6.75666 0.270038 6.82521 0.267416 6.8361C0.25935 6.86945 0.271724 7.43487 0.281486 7.48001C0.286532 7.50329 0.293527 7.55825 0.297059 7.60215C0.300591 7.64604 0.30568 7.68813 0.308385 7.69569C0.311089 7.70326 0.316339 7.74544 0.32003 7.78943C0.328771 7.89309 0.465446 8.41329 0.50873 8.50757C0.527082 8.54758 0.546129 8.59858 0.55104 8.62093C0.582903 8.76574 0.948557 9.40681 1.12026 9.61887C1.26783 9.80112 1.35577 9.90366 1.40288 9.9484C1.43148 9.97554 1.48105 10.0235 1.51306 10.055C1.72406 10.2625 1.8929 10.3874 2.30194 10.6387C2.66579 10.8622 2.6779 10.8736 2.57856 10.9008C2.54642 10.9096 2.45306 10.9506 2.37107 10.9919C1.53552 11.413 1.00552 12.0959 0.847642 12.9547C0.827808 13.0626 0.80514 13.19 0.797249 13.2379C0.782404 13.3279 0.784297 13.7072 0.799936 13.7809C0.804809 13.8039 0.811974 13.8588 0.815858 13.9029C0.827987 14.0405 0.956286 14.4961 1.02152 14.6332C1.05578 14.7052 1.08939 14.7825 1.09624 14.805C1.10308 14.8275 1.16524 14.9294 1.23438 15.0314C1.4112 15.2923 1.44863 15.3425 1.50782 15.3983C1.53649 15.4253 1.58607 15.4733 1.618 15.5049C1.75475 15.6402 1.86641 15.72 2.16072 15.8926C2.45503 16.0653 2.57884 16.1237 2.76253 16.1764C2.80542 16.1887 2.87111 16.2083 2.90847 16.22C2.98566 16.2442 3.04716 16.252 3.35786 16.2772C3.47937 16.2871 3.59729 16.2908 3.61991 16.2856C3.64251 16.2803 3.72521 16.2713 3.80368 16.2654C3.95313 16.2543 4.40558 16.1394 4.52894 16.0813C4.56847 16.0626 4.61883 16.0415 4.64085 16.0343C4.71156 16.0111 5.03577 15.8232 5.10501 15.7651C5.8396 15.1496 6.07527 14.7348 6.23256 13.7807C6.25578 13.6398 6.23862 13.1526 6.20609 13.0286C6.17972 12.9281 6.1958 12.9331 6.56792 13.1414C7.04522 13.4085 7.28133 13.508 7.63124 13.5895C7.68827 13.6028 7.79415 13.6277 7.86656 13.6449C8.13722 13.7092 8.99157 13.7279 9.16303 13.6733C9.18454 13.6665 9.23752 13.6577 9.2808 13.6539C9.3828 13.6448 9.89449 13.505 9.9872 13.4608C10.0265 13.4421 10.0651 13.4256 10.0729 13.4242C10.0807 13.4228 10.1191 13.4063 10.1583 13.3874C10.1975 13.3686 10.2478 13.3472 10.2702 13.3401C10.3135 13.3261 10.8016 13.0542 10.826 13.0305C10.834 13.0227 10.888 12.9807 10.946 12.937C11.004 12.8934 11.0806 12.8356 11.1161 12.8087C11.226 12.7254 11.4413 12.527 11.505 12.4502C11.5383 12.4101 11.5938 12.3448 11.6283 12.3053C12.1105 11.7527 12.2553 11.3754 12.0893 11.1037L12.0429 11.0277L10.1026 9.87854C8.17318 8.73583 8.16244 8.72923 8.18665 8.70022C8.20004 8.68417 8.25241 8.61224 8.30303 8.54036C8.41095 8.38716 8.51489 8.25606 8.594 8.17335C8.62512 8.14083 8.67245 8.09039 8.69919 8.06125C8.75103 8.0048 8.90504 7.86964 9.04046 7.76176C9.08581 7.72564 9.15741 7.6676 9.19958 7.63279C9.31013 7.54157 9.87076 7.21962 9.92978 7.21349C9.93843 7.21259 10.0039 7.18258 10.0753 7.14679C10.1467 7.111 10.2118 7.08076 10.22 7.0796C10.353 7.06059 10.9156 6.65753 11.1245 6.43158C11.1514 6.40254 11.1989 6.3522 11.2301 6.31972C11.3975 6.14556 11.7485 5.57367 11.8306 5.34131C11.8516 5.28192 11.883 5.19281 11.9004 5.14328C11.9178 5.09375 11.9428 5.00573 11.9559 4.94768C11.969 4.88964 11.9871 4.8123 11.9962 4.77581C12.0127 4.70953 12.0306 4.58925 12.0498 4.41618C12.0615 4.31011 12.0578 3.89179 12.0445 3.83023C12.0396 3.80735 12.0327 3.75271 12.0291 3.70882C12.0256 3.66492 12.0175 3.61127 12.0111 3.58959C12.0047 3.56792 11.9965 3.51421 11.9928 3.47024C11.9843 3.36815 11.9414 3.20472 11.8986 3.11137C11.8803 3.07136 11.8581 3.00891 11.8494 2.9726C11.81 2.80849 11.5234 2.28538 11.3678 2.09345C11.34 2.05914 11.2934 2.0011 11.2643 1.96452C11.1952 1.87766 11.1046 1.79166 10.8725 1.59282C10.7699 1.50487 10.1287 1.10779 10.1013 1.11525ZM10.9125 11.6023C10.9004 11.6307 10.8653 11.6785 10.8346 11.7087C10.7377 11.8037 10.5346 11.9849 10.4448 12.0564C10.3972 12.0942 10.3374 12.1422 10.3119 12.1631C10.2369 12.2244 9.81739 12.4545 9.76643 12.4623C9.75836 12.4635 9.71956 12.4799 9.6802 12.4986C9.33821 12.6615 8.61337 12.7439 8.17591 12.6697C8.13276 12.6623 8.06 12.6503 8.01428 12.643C7.89692 12.6242 7.72416 12.5694 7.48532 12.4753C7.31739 12.409 2.56118 9.61865 2.39499 9.48884C2.02871 9.20278 1.77089 8.87227 1.53942 8.39202C1.43919 8.1841 1.30806 7.75001 1.29362 7.57847C1.28992 7.53447 1.28449 7.49218 1.28155 7.48448C1.26476 7.44052 1.24662 6.90838 1.26104 6.88299C1.26575 6.8747 1.27319 6.81406 1.27756 6.74825C1.28427 6.64712 1.31502 6.48681 1.38915 6.16645C1.40501 6.09793 1.45112 6.01155 1.4754 6.00492C1.4847 6.00238 3.61681 7.24915 6.21346 8.77552L10.9346 11.5507L10.9125 11.6023ZM4.56841 12.1059C4.70225 12.2064 4.77632 12.2759 4.83286 12.3542C4.85587 12.386 4.90417 12.4524 4.9402 12.5017C5.44787 13.1972 5.31438 14.2252 4.63514 14.8509C4.239 15.2157 3.62509 15.3544 3.03858 15.2116C2.78099 15.1488 2.31835 14.8484 2.20446 14.67C2.18583 14.6408 2.15511 14.6019 2.1362 14.5835C1.11071 13.5877 2.29304 11.525 3.75442 11.7604C4.0033 11.8005 4.0874 11.8247 4.19311 11.8863C4.2454 11.9168 4.3032 11.9406 4.32158 11.9393C4.33996 11.9379 4.37777 11.9559 4.4056 11.9792C4.43345 12.0025 4.5067 12.0595 4.56841 12.1059Z" fill="white"/>
</symbol>
<symbol id="icon-fitness" viewBox="0 0 16 16">
<path d="M14.2496 10.0855L15.2923 9.04275L14.2496 8.00004L11.6465 10.6032L5.39753 4.35421L8.00065 1.75108L6.95794 0.708374L5.91523 1.75108L4.87253 0.708374L3.31211 2.26879L2.2694 1.22608L1.22669 2.26879L2.2694 3.3115L0.708984 4.87192L1.75169 5.91462L0.708984 6.95733L1.75169 8.00004L4.35482 5.39692L10.6038 11.6459L8.00065 14.249L9.04336 15.2917L10.0861 14.249L11.1288 15.2917L12.6892 13.7313L13.7319 14.774L14.7746 13.7313L13.7319 12.6886L15.2923 11.1282L14.2496 10.0855Z" fill="white"/>
</symbol>
<symbol id="icon-car" viewBox="0 0 10 9">
<path d="M9.386 3.0775L8.702 1.0255C8.60278 0.726741 8.41192 0.46685 8.15656 0.282754C7.90119 0.098658 7.59431 -0.000279103 7.2795 5.91387e-07H2.7205C2.40569 -0.000279103 2.09881 0.098658 1.84344 0.282754C1.58808 0.46685 1.39722 0.726741 1.298 1.0255L0.614 3.0775C0.432111 3.15361 0.27678 3.28179 0.167533 3.44592C0.0582866 3.61006 -2.4045e-07 3.80283 0 4V6.5C0 6.869 0.202 7.188 0.5 7.3615V8.5C0.5 8.63261 0.552678 8.75979 0.646447 8.85355C0.740215 8.94732 0.867392 9 1 9H1.5C1.63261 9 1.75979 8.94732 1.85355 8.85355C1.94732 8.75979 2 8.63261 2 8.5V7.5H8V8.5C8 8.63261 8.05268 8.75979 8.14645 8.85355C8.24021 8.94732 8.36739 9 8.5 9H9C9.13261 9 9.25979 8.94732 9.35355 8.85355C9.44732 8.75979 9.5 8.63261 9.5 8.5V7.3615C9.6517 7.2745 9.77779 7.14907 9.86556 6.99782C9.95334 6.84658 9.99971 6.67487 10 6.5V4C10 3.80283 9.94171 3.61006 9.83247 3.44592C9.72322 3.28179 9.56789 3.15361 9.386 3.0775ZM2.7205 1H7.279C7.4945 1 7.6855 1.137 7.7535 1.342L8.3065 3H1.6935L2.246 1.342C2.27917 1.2424 2.34286 1.15576 2.42802 1.09438C2.51319 1.03299 2.61552 0.999975 2.7205 1ZM1.75 6C1.65148 5.99997 1.55392 5.98053 1.46291 5.94279C1.3719 5.90506 1.28921 5.84977 1.21957 5.78008C1.14992 5.71039 1.09469 5.62766 1.05701 5.53663C1.01934 5.44559 0.999967 5.34802 1 5.2495C1.00003 5.15098 1.01947 5.05342 1.0572 4.96241C1.09494 4.8714 1.15023 4.78871 1.21992 4.71907C1.28961 4.64942 1.37234 4.59419 1.46337 4.55651C1.55441 4.51884 1.65198 4.49947 1.7505 4.4995C1.94948 4.49957 2.14028 4.57867 2.28093 4.71942C2.42159 4.86017 2.50057 5.05102 2.5005 5.25C2.50043 5.44898 2.42133 5.63978 2.28058 5.78043C2.13983 5.92109 1.94898 6.00007 1.75 6ZM8.25 6C8.15148 5.99997 8.05392 5.98053 7.96291 5.94279C7.8719 5.90506 7.78921 5.84977 7.71957 5.78008C7.64992 5.71039 7.59469 5.62766 7.55701 5.53663C7.51934 5.44559 7.49997 5.34802 7.5 5.2495C7.50003 5.15098 7.51947 5.05342 7.55721 4.96241C7.59494 4.8714 7.65023 4.78871 7.71992 4.71907C7.78961 4.64942 7.87234 4.59419 7.96337 4.55651C8.05441 4.51884 8.15198 4.49947 8.2505 4.4995C8.44948 4.49957 8.64028 4.57867 8.78093 4.71942C8.92159 4.86017 9.00057 5.05102 9.0005 5.25C9.00043 5.44898 8.92133 5.63978 8.78058 5.78043C8.63983 5.92109 8.44898 6.00007 8.25 6Z" fill="black"/>
</symbol>
</defs>
</svg>
