<svg width="25" height="24" viewBox="0 0 25 24" fill="none" xmlns="http://www.w3.org/2000/svg">
<path d="M18.6146 10.4583H6.38538C6.13361 10.4583 5.95 10.7174 5.95 11.0083C5.95 11.2992 6.13361 11.5583 6.38538 11.5583H18.6146C18.8664 11.5583 19.05 11.2992 19.05 11.0083C19.05 10.7174 18.8664 10.4583 18.6146 10.4583Z" fill="url(#paint0_linear)" stroke="url(#paint1_linear)" stroke-width="0.1"/>
<path d="M18.6146 6.4583H6.38538C6.13361 6.4583 5.95 6.71744 5.95 7.0083C5.95 7.29916 6.13361 7.5583 6.38538 7.5583H18.6146C18.8664 7.5583 19.05 7.29916 19.05 7.0083C19.05 6.71744 18.8664 6.4583 18.6146 6.4583Z" fill="url(#paint2_linear)" stroke="url(#paint3_linear)" stroke-width="0.1"/>
<path d="M21.2765 22.9806C21.6251 22.8595 21.8509 22.5421 21.8509 22.173V17.4554C23.1014 17.2018 24.05 16.0885 24.05 14.7695V3.69056C24.05 2.17935 22.8207 0.95 21.3094 0.95H3.69062C2.17941 0.95 0.95 2.17935 0.95 3.69063V14.7695C0.95 16.2807 2.17935 17.5101 3.69062 17.5101H16.0397C16.1565 17.5101 16.2647 17.5625 16.3372 17.6542L20.3251 22.7029C20.4917 22.9138 20.7354 23.0293 20.9909 23.0293C21.0858 23.0293 21.1822 23.0134 21.2765 22.9806ZM21.2765 22.9806L21.2601 22.9334M21.2765 22.9806C21.2765 22.9806 21.2765 22.9806 21.2765 22.9806L21.2601 22.9334M21.2601 22.9334C21.5886 22.8193 21.8009 22.5208 21.8009 22.173V17.4142L21.2601 22.9334ZM21.3317 16.4842L21.3323 16.5342L21.3317 16.4842C21.0512 16.4878 20.8257 16.7162 20.8257 16.9968V21.6827L17.1417 17.0187C16.8738 16.6795 16.472 16.4848 16.0397 16.4848H3.69062C2.7448 16.4848 1.97521 15.7152 1.97521 14.7694V3.69056C1.97521 2.74474 2.74474 1.97515 3.69062 1.97515H21.3094C22.2552 1.97515 23.0248 2.74474 23.0248 3.69056V14.7695C23.0248 15.7029 22.2651 16.4723 21.3317 16.4842Z" fill="url(#paint4_linear)" stroke="url(#paint5_linear)" stroke-width="0.1"/>
<defs>
<linearGradient id="paint0_linear" x1="19" y1="10.5083" x2="15.8592" y2="16.5954" gradientUnits="userSpaceOnUse">
<stop stop-color="#00539E"/>
<stop offset="1" stop-color="#00376F"/>
</linearGradient>
<linearGradient id="paint1_linear" x1="19" y1="10.5083" x2="15.8592" y2="16.5954" gradientUnits="userSpaceOnUse">
<stop stop-color="#00539E"/>
<stop offset="1" stop-color="#00376F"/>
</linearGradient>
<linearGradient id="paint2_linear" x1="19" y1="6.5083" x2="15.8592" y2="12.5954" gradientUnits="userSpaceOnUse">
<stop stop-color="#00539E"/>
<stop offset="1" stop-color="#00376F"/>
</linearGradient>
<linearGradient id="paint3_linear" x1="19" y1="6.5083" x2="15.8592" y2="12.5954" gradientUnits="userSpaceOnUse">
<stop stop-color="#00539E"/>
<stop offset="1" stop-color="#00376F"/>
</linearGradient>
<linearGradient id="paint4_linear" x1="24" y1="1" x2="-1.80095" y2="5.02508" gradientUnits="userSpaceOnUse">
<stop stop-color="#00539E"/>
<stop offset="1" stop-color="#00376F"/>
</linearGradient>
<linearGradient id="paint5_linear" x1="24" y1="1" x2="-1.80095" y2="5.02508" gradientUnits="userSpaceOnUse">
<stop stop-color="#00539E"/>
<stop offset="1" stop-color="#00376F"/>
</linearGradient>
</defs>
</svg>
