<svg width="28" height="26" viewBox="0 0 28 26" fill="none" xmlns="http://www.w3.org/2000/svg">
<path d="M13.5359 4.93244L13.9552 5.58016L14.3751 4.9328C16.5569 1.56892 19.6288 0.880263 22.1306 1.8413C24.6641 2.81453 26.7141 5.51703 26.7141 9.15786C26.7141 10.4528 26.0296 12.0031 24.8919 13.6659C23.7643 15.3137 22.2399 17.0036 20.665 18.5639C19.0923 20.1221 17.4815 21.5394 16.1886 22.6432C15.7242 23.0398 15.3024 23.3944 14.9373 23.7015C14.7937 23.8223 14.6589 23.9357 14.5336 24.0414C14.3117 24.2287 14.1145 24.3961 13.9529 24.5376C13.7844 24.3939 13.578 24.2243 13.3459 24.0356C13.1655 23.8888 12.9669 23.7284 12.7516 23.5545C12.4137 23.2815 12.0347 22.9753 11.6198 22.6363C10.2681 21.5319 8.57885 20.1142 6.92754 18.5555C5.27389 16.9946 3.67135 15.3043 2.48567 13.6562C1.28817 11.9917 0.571289 10.445 0.571289 9.15786C0.571289 5.50708 2.76111 2.79697 5.46131 1.82293C8.13817 0.857301 11.3656 1.5802 13.5359 4.93244Z" stroke="url(#paint0_linear)"/>
<defs>
<linearGradient id="paint0_linear" x1="27.2141" y1="0.928467" x2="-3.13272" y2="5.98486" gradientUnits="userSpaceOnUse">
<stop stop-color="#00539E"/>
<stop offset="1" stop-color="#00376F"/>
</linearGradient>
</defs>
</svg>
