<svg style="position: absolute; width: 0; height: 0; overflow: hidden;" version="1.1" xmlns="http://www.w3.org/2000/svg" xmlns:xlink="http://www.w3.org/1999/xlink">
	<defs>
		<symbol id="icon-logo" viewBox="0 0 186 60">
			<path class="path" d="M94.3587 38.6908C94.0079 38.5241 93.6231 38.4411 93.2347 38.4487H91.4614V42.3442H93.2347C93.6228 42.3537 94.0077 42.2724 94.3587 42.1069C94.6711 41.9579 94.9342 41.7226 95.1167 41.4289C95.2942 41.1168 95.3875 40.764 95.3875 40.4051C95.3875 40.0463 95.2942 39.6935 95.1167 39.3814C94.9357 39.0833 94.6726 38.8436 94.3587 38.6908ZM94.1247 41.2788C93.8918 41.4957 93.5812 41.6042 93.1901 41.6042H92.3641V39.1886H93.1939C93.5822 39.1886 93.8957 39.2971 94.1286 39.5141C94.3526 39.7535 94.4772 40.0689 94.4772 40.3964C94.4772 40.724 94.3526 41.0393 94.1286 41.2788H94.1247Z" fill="white" />
			<path class="path" d="M99.1078 40.719H100.921V40.0177H99.1078V39.1722H101.161V38.4487H98.21V42.3442H101.232V41.6207H99.1078V40.719Z" fill="white" />
			<path class="path" d="M106.373 40.2522C106.135 40.1668 105.891 40.096 105.644 40.04C105.425 39.9973 105.211 39.9323 105.005 39.8463C104.944 39.8244 104.89 39.7841 104.853 39.7308C104.816 39.6776 104.796 39.614 104.796 39.549C104.796 39.484 104.812 39.42 104.844 39.3633C104.876 39.3066 104.922 39.2591 104.978 39.2255C105.098 39.1441 105.285 39.1034 105.538 39.1034C105.919 39.1093 106.292 39.2149 106.619 39.4095L106.898 38.7257C106.704 38.6081 106.494 38.5215 106.273 38.469C106.034 38.4096 105.789 38.3797 105.543 38.3799C105.233 38.3715 104.925 38.4265 104.637 38.5417C104.414 38.6309 104.221 38.7826 104.082 38.9785C103.96 39.1603 103.896 39.3747 103.897 39.5935C103.886 39.8192 103.959 40.0411 104.102 40.2163C104.232 40.3692 104.399 40.4859 104.588 40.5553C104.826 40.6405 105.07 40.7114 105.317 40.7674C105.512 40.812 105.665 40.8527 105.778 40.8895C105.879 40.921 105.973 40.9709 106.056 41.0367C106.091 41.0644 106.118 41.0997 106.137 41.1399C106.156 41.18 106.166 41.2239 106.165 41.2682C106.165 41.3307 106.147 41.3919 106.115 41.4453C106.082 41.4987 106.036 41.5423 105.98 41.5713C105.805 41.6596 105.609 41.6991 105.413 41.6856C105.177 41.6851 104.944 41.6475 104.721 41.5742C104.507 41.5097 104.306 41.4116 104.124 41.2837L103.818 41.9617C104.027 42.1121 104.262 42.2227 104.512 42.2881C104.803 42.3718 105.104 42.4139 105.407 42.413C105.717 42.4213 106.027 42.3663 106.315 42.2513C106.541 42.1634 106.737 42.0124 106.879 41.8164C107.002 41.6369 107.067 41.4244 107.065 41.2072C107.078 40.9833 107.005 40.763 106.862 40.5902C106.73 40.4383 106.562 40.322 106.373 40.2522Z" fill="white" />
			<path class="path" d="M110.763 38.4487H109.859V42.3442H110.763V38.4487Z" fill="white" />
			<path class="path" d="M115.118 39.3059C115.322 39.1994 115.55 39.1458 115.781 39.1499C115.97 39.1475 116.159 39.1854 116.333 39.2612C116.507 39.337 116.663 39.449 116.79 39.5897L117.372 39.055C117.181 38.835 116.94 38.6637 116.67 38.5552C116.374 38.4366 116.058 38.3777 115.739 38.3819C115.355 38.3759 114.975 38.4648 114.634 38.6405C114.317 38.8043 114.051 39.0532 113.867 39.3591C113.687 39.6753 113.592 40.033 113.592 40.397C113.592 40.7609 113.687 41.1186 113.867 41.4348C114.051 41.7392 114.314 41.9874 114.629 42.1525C114.966 42.3282 115.341 42.4171 115.721 42.4111C116.007 42.4106 116.291 42.3675 116.564 42.2832C116.829 42.2044 117.078 42.0802 117.3 41.9161V40.3355H116.475V41.4754C116.258 41.5893 116.016 41.647 115.772 41.643C115.543 41.6469 115.318 41.5922 115.117 41.4842C114.928 41.3814 114.773 41.2281 114.667 41.0415C114.561 40.8419 114.506 40.6194 114.506 40.3936C114.506 40.1677 114.561 39.9453 114.667 39.7456C114.773 39.5593 114.929 39.4068 115.118 39.3059Z" fill="white" />
			<path class="path" d="M122.963 40.8139L121.023 38.4487H120.274V42.3442H121.167V39.979L123.113 42.3442H123.855V38.4487H122.963V40.8139Z" fill="white" />
			<path class="path" d="M133.351 40.319C133.508 40.2392 133.641 40.1179 133.733 39.9683C133.826 39.8157 133.873 39.6401 133.87 39.4618C133.874 39.3163 133.841 39.1721 133.774 39.0427C133.708 38.9134 133.609 38.803 133.488 38.7218C133.234 38.5397 132.868 38.4487 132.392 38.4487H130.485V42.3442H132.503C133.013 42.3442 133.401 42.2525 133.667 42.0691C133.796 41.9831 133.901 41.8654 133.971 41.7273C134.041 41.5892 134.074 41.4354 134.067 41.2807C134.073 41.0617 134.005 40.8471 133.873 40.6715C133.741 40.5021 133.558 40.3788 133.351 40.319ZM131.383 39.1276H132.28C132.457 39.1169 132.633 39.1565 132.788 39.2419C132.844 39.2787 132.89 39.3297 132.921 39.3897C132.951 39.4497 132.965 39.5167 132.961 39.5838C132.965 39.6514 132.951 39.7187 132.92 39.7792C132.89 39.8397 132.845 39.8912 132.788 39.9286C132.634 40.0165 132.458 40.0573 132.28 40.0458H131.383V39.1276ZM132.974 41.549C132.81 41.6379 132.623 41.6785 132.437 41.6662H131.383V40.7025H132.437C132.916 40.7025 133.156 40.8639 133.156 41.1868C133.161 41.2577 133.146 41.3285 133.114 41.392C133.082 41.4556 133.034 41.5094 132.974 41.5481V41.549Z" fill="white" />
			<path class="path" d="M139.491 40.5969C139.491 40.9573 139.416 41.2207 139.268 41.3902C139.185 41.4772 139.085 41.5449 138.973 41.5886C138.861 41.6323 138.741 41.6509 138.621 41.643C138.039 41.643 137.748 41.2943 137.748 40.5969V38.4487H136.844V40.6299C136.844 41.2013 137 41.6411 137.31 41.9491C137.621 42.2571 138.055 42.4111 138.612 42.4111C139.169 42.4111 139.603 42.2571 139.913 41.9491C140.224 41.6411 140.379 41.2013 140.379 40.6299V38.4487H139.491V40.5969Z" fill="white" />
			<path class="path" d="M146.594 40.6105C146.737 40.3877 146.809 40.1272 146.802 39.8628C146.809 39.5974 146.737 39.3359 146.596 39.1112C146.452 38.894 146.247 38.7236 146.008 38.6211C145.723 38.5005 145.416 38.4417 145.107 38.4487H143.418V42.3442H144.321V41.2585H145.151L145.905 42.3442H146.875L146.002 41.0919C146.242 40.9929 146.448 40.8255 146.594 40.6105ZM145.676 40.3626C145.535 40.4817 145.328 40.5418 145.057 40.5418H144.321V39.1858H145.057C145.328 39.1858 145.535 39.2439 145.676 39.3611C145.743 39.4263 145.796 39.5043 145.833 39.5904C145.869 39.6766 145.888 39.7692 145.888 39.8628C145.888 39.9564 145.869 40.049 145.833 40.1352C145.796 40.2213 145.743 40.2993 145.676 40.3645V40.3626Z" fill="white" />
			<path class="path" d="M150.556 40.719H152.369V40.0177H150.556V39.1722H152.608V38.4487H149.658V42.3442H152.681V41.6207H150.556V40.719Z" fill="white" />
			<path class="path" d="M156.88 38.4487L155.14 42.3442H156.067L156.412 41.5093H158.223L158.569 42.3442H159.517L157.77 38.4487H156.88ZM156.702 40.8245L157.321 39.3339L157.94 40.8245H156.702Z" fill="white" />
			<path class="path" d="M164.522 40.5969C164.522 40.9573 164.447 41.2207 164.299 41.3902C164.216 41.4772 164.115 41.545 164.004 41.5887C163.892 41.6324 163.772 41.6509 163.652 41.643C163.07 41.643 162.779 41.2943 162.779 40.5969V38.4487H161.875V40.6299C161.875 41.2013 162.03 41.6411 162.341 41.9491C162.651 42.2571 163.085 42.4111 163.642 42.4111C164.2 42.4111 164.634 42.2571 164.945 41.9491C165.256 41.6411 165.411 41.2013 165.41 40.6299V38.4487H164.518L164.522 40.5969Z" fill="white" />
			<path class="path" d="M86.0428 40.0632H79.0293V40.7296H86.0428V40.0632Z" fill="white" />
			<path class="path" d="M177.847 40.0632H170.833V40.7296H177.847V40.0632Z" fill="white" />
			<path class="path" d="M102.623 24.7815V17.6742H100.571V24.7815C100.571 25.8081 100.284 26.6107 99.7098 27.1893C99.1358 27.7678 98.3513 28.0568 97.3561 28.0561C96.3492 28.0561 95.5537 27.7656 94.9694 27.1844C94.3851 26.6033 94.0939 25.8036 94.0959 24.7853V17.6742H92.0576V24.7815C92.0576 25.8307 92.2708 26.7405 92.6972 27.5108C93.1139 28.2704 93.751 28.8866 94.5249 29.2785C95.3156 29.6885 96.2567 29.8932 97.3483 29.8925C98.4399 29.8919 99.381 29.6872 100.172 29.2785C100.945 28.8875 101.581 28.271 101.995 27.5108C102.414 26.7399 102.624 25.8301 102.623 24.7815Z" fill="white" />
			<path class="path" d="M113.704 17.6742H111.652V29.8082H113.704V17.6742Z" fill="white" />
			<path class="path" d="M131.407 26.398L124.895 17.6742H122.877V29.8073H124.929V21.1097L131.407 29.8073H133.426V17.6742H131.407V26.398Z" fill="white" />
			<path class="path" d="M149.235 23.47C148.583 23.185 147.913 22.9446 147.229 22.7504C146.732 22.6143 146.244 22.4507 145.766 22.2603C145.441 22.1287 145.147 21.9307 144.902 21.6792C144.673 21.4372 144.55 21.1148 144.559 20.7823C144.553 20.5929 144.599 20.4056 144.691 20.2402C144.784 20.0747 144.919 19.9374 145.084 19.8428C145.434 19.6232 145.918 19.5135 146.534 19.5135C147.105 19.5248 147.672 19.6188 148.217 19.7924C148.878 19.9946 149.509 20.2818 150.096 20.6467L150.943 18.8442C150.333 18.4453 149.668 18.1376 148.968 17.9309C148.229 17.7053 147.459 17.591 146.686 17.5919C145.895 17.5763 145.108 17.7176 144.371 18.0074C143.753 18.2477 143.215 18.6564 142.818 19.1871C142.445 19.7084 142.25 20.3362 142.263 20.977C142.263 21.7266 142.446 22.3258 142.811 22.7746C143.16 23.2117 143.607 23.561 144.116 23.7945C144.767 24.0782 145.437 24.3157 146.121 24.5054C146.744 24.6914 147.231 24.8528 147.584 24.9897C147.917 25.1145 148.219 25.3094 148.47 25.5611C148.589 25.6829 148.681 25.8274 148.743 25.9858C148.804 26.1443 148.832 26.3135 148.826 26.4832C148.832 26.7004 148.78 26.9152 148.675 27.1055C148.569 27.2958 148.416 27.4548 148.228 27.566C147.831 27.8243 147.272 27.9534 146.553 27.9534C145.833 27.9409 145.122 27.7841 144.464 27.4924C143.719 27.1766 143.034 26.7342 142.441 26.1849L141.552 27.9534C142.22 28.5523 142.991 29.0266 143.828 29.354C144.683 29.6984 145.598 29.875 146.52 29.8741C147.334 29.889 148.142 29.7425 148.898 29.4431C149.544 29.1914 150.106 28.7647 150.522 28.2111C150.913 27.6718 151.118 27.02 151.104 26.3544C151.104 25.6041 150.922 24.9948 150.557 24.5267C150.209 24.0723 149.755 23.7095 149.235 23.47Z" fill="white" />
			<path class="path" d="M168.47 27.9719H161.626V24.6294H167.561V22.793H161.626V19.5106H168.257V17.6742H159.574V29.8073H168.47V27.9719Z" fill="white" />
			<path class="path" d="M175.696 17.6742V19.5106H179.536V29.8073H181.589V19.5106H185.439V17.6742H175.696Z" fill="white" />
			<path class="path" d="M84.5043 29.2804L82.8485 27.628C83.788 26.3428 84.207 24.7512 84.0218 23.1711C83.8367 21.5911 83.061 20.1389 81.8498 19.1046C80.6385 18.0703 79.0809 17.53 77.4879 17.5917C75.8949 17.6535 74.3839 18.3126 73.2567 19.4375C72.1295 20.5623 71.469 22.0702 71.4071 23.6598C71.3453 25.2494 71.8867 26.8038 72.9231 28.0125C73.9596 29.2212 75.4148 29.9952 76.9982 30.18C78.5816 30.3647 80.1765 29.9466 81.4645 29.0092L83.1213 30.6625L84.5043 29.2804ZM77.751 28.2682C76.7794 28.273 75.8339 27.9551 75.0633 27.3647C74.2927 26.7743 73.7407 25.9449 73.4943 25.0071C73.2479 24.0693 73.3211 23.0763 73.7024 22.1846C74.0837 21.2928 74.7513 20.553 75.6002 20.0815C76.4491 19.61 77.4311 19.4336 78.3915 19.5802C79.3519 19.7268 80.2361 20.188 80.905 20.8911C81.5739 21.5943 81.9894 22.4995 82.0861 23.4642C82.1828 24.4289 81.9552 25.3983 81.4392 26.2197L79.5951 24.3795L78.211 25.7616L80.0552 27.6019C79.3657 28.0369 78.5667 28.2679 77.751 28.2682Z" fill="white" />
			<path class="logo-path" d="M54.6538 44.9157C61.3392 33.7589 59.8756 19.0553 50.2542 9.45601C44.7936 4.00696 37.3875 0.945724 29.6651 0.945724C21.9427 0.945724 14.5366 4.00696 9.07599 9.45601C-2.27989 20.7881 -2.27989 39.2187 9.07599 50.5478C14.3743 55.8342 21.5108 58.8791 29.0012 59.0492C36.4916 59.2193 43.7595 56.5016 49.2933 51.4612L56.5183 58.6692L58.3945 56.797L54.9227 53.3334L44.8587 43.2866L43.8298 42.2628C46.8024 38.8662 48.4406 34.5096 48.4411 30C48.4411 19.6684 40.0183 11.2624 29.6641 11.2624C19.3099 11.2624 10.8881 19.6684 10.8881 30C10.8881 40.3315 19.3118 48.7376 29.6651 48.7376C32.1633 48.7396 34.6366 48.2417 36.9387 47.2732L34.8733 45.2111C33.1978 45.7893 31.4378 46.0858 29.6651 46.0886C20.7755 46.0886 13.5426 38.871 13.5426 30C13.5426 21.129 20.7764 13.9114 29.666 13.9114C38.5557 13.9114 45.7875 21.129 45.7875 30C45.7891 33.8084 44.4297 37.4926 41.9537 40.3906L30.5978 29.0634L28.7217 30.9366L37.5453 39.7417V39.7369L45.8923 48.0664V48.0713L47.4094 49.5861C42.374 54.13 35.7813 56.5692 28.9945 56.3992C22.2077 56.2292 15.7459 53.4631 10.9453 48.6727C0.627027 38.376 0.627027 21.622 10.9453 11.3253C13.4028 8.87304 16.3201 6.92779 19.5309 5.60064C22.7417 4.27348 26.183 3.5904 29.6583 3.5904C33.1336 3.5904 36.5749 4.27348 39.7857 5.60064C42.9964 6.92779 45.9138 8.87304 48.3712 11.3253C56.9561 19.8873 58.3955 32.9056 52.7098 42.9786L54.6538 44.9157Z" fill="white" />
		</symbol>
		<symbol id="icon-logo-mobile" viewBox="0 0 27 27">
			<path d="M24.8317 20.1567C27.8308 15.1776 27.1742 8.61567 22.8579 4.33167C20.4083 1.89986 17.0859 0.533691 13.6216 0.533691C10.1573 0.533691 6.83484 1.89986 4.38519 4.33167C-0.709125 9.38896 -0.709125 17.6142 4.38519 22.6702C6.76204 25.0294 9.96349 26.3883 13.3237 26.4642C16.684 26.5401 19.9444 25.3272 22.4269 23.0778L25.6681 26.2946L26.5097 25.459L24.9523 23.9133L20.4375 19.4296L19.976 18.9727C21.3095 17.4569 22.0444 15.5126 22.0446 13.5001C22.0446 8.88928 18.2661 5.13781 13.6211 5.13781C8.97616 5.13781 5.1981 8.88928 5.1981 13.5001C5.1981 18.1108 8.97703 21.8623 13.6216 21.8623C14.7423 21.8632 15.8518 21.641 16.8845 21.2087L15.958 20.2885C15.2064 20.5465 14.4168 20.6788 13.6216 20.6801C9.63363 20.6801 6.38895 17.459 6.38895 13.5001C6.38895 9.54111 9.63407 6.32 13.622 6.32C17.6099 6.32 20.8542 9.54111 20.8542 13.5001C20.8549 15.1997 20.2451 16.8438 19.1343 18.1372L14.04 13.0821L13.1983 13.918L17.1567 17.8476V17.8454L20.9012 21.5628V21.5649L21.5818 22.241C19.3229 24.2688 16.3653 25.3574 13.3207 25.2815C10.2762 25.2057 7.37736 23.9712 5.22379 21.8333C0.594934 17.2381 0.594934 9.76112 5.22379 5.1659C6.3262 4.0715 7.63495 3.20338 9.07532 2.61109C10.5157 2.0188 12.0595 1.71396 13.6185 1.71396C15.1776 1.71396 16.7213 2.0188 18.1617 2.61109C19.6021 3.20338 20.9108 4.0715 22.0132 5.1659C25.8645 8.98697 26.5102 14.7968 23.9595 19.2922L24.8317 20.1567Z" fill="white" />
		</symbol>
		<symbol id="icon-instagram" viewBox="0 0 20 19">
			<g clip-path="url(#clip0)">
				<path d="M9.53476 4.44382C6.83181 4.44382 4.64355 6.54318 4.64355 9.13123C4.64355 11.7216 6.83419 13.8186 9.53476 13.8186C12.2377 13.8186 14.426 11.7193 14.426 9.13123C14.426 6.5409 12.2353 4.44382 9.53476 4.44382ZM9.53476 12.1737C7.78019 12.1737 6.36001 10.8119 6.36001 9.13123C6.36001 7.45052 7.78098 6.08875 9.53476 6.08875C11.2885 6.08875 12.7095 7.45052 12.7095 9.13123C12.7103 10.8119 11.2893 12.1737 9.53476 12.1737Z" fill="currentColor" />
				<path d="M13.4612 0.0591994C11.7075 -0.0192032 7.36351 -0.0153973 5.60814 0.0591994C4.06564 0.128468 2.70503 0.485466 1.60812 1.53667C-0.225091 3.2935 0.00922366 5.6608 0.00922366 9.13259C0.00922366 12.6858 -0.197291 14.9983 1.60812 16.7285C3.44848 18.4914 5.95445 18.2608 9.5343 18.2608C13.2071 18.2608 14.4748 18.2631 15.7734 17.7812C17.5391 17.1243 18.8719 15.6118 19.0022 12.8952C19.0848 11.2137 19.08 7.0515 19.0022 5.36927C18.8449 2.16237 17.049 0.217527 13.4612 0.0591994ZM16.2373 15.5662C15.0355 16.7179 13.3683 16.6151 9.51126 16.6151C5.53983 16.6151 3.94729 16.6714 2.78525 15.5548C1.44688 14.2782 1.68914 12.2284 1.68914 9.12041C1.68914 4.91483 1.23878 1.88606 5.64309 1.66988C6.65501 1.63563 6.95287 1.62421 9.50014 1.62421L9.53588 1.64704C13.7686 1.64704 17.0895 1.2223 17.2889 5.44234C17.3342 6.40525 17.3445 6.6945 17.3445 9.13183C17.3437 12.8936 17.4184 14.429 16.2373 15.5662Z" fill="currentColor" />
				<path d="M14.6195 5.3542C15.2508 5.3542 15.7625 4.8638 15.7625 4.25885C15.7625 3.6539 15.2508 3.1635 14.6195 3.1635C13.9883 3.1635 13.4766 3.6539 13.4766 4.25885C13.4766 4.8638 13.9883 5.3542 14.6195 5.3542Z" fill="currentColor" />
			</g>
			<defs>
				<clipPath id="clip0">
					<rect width="19.0629" height="18.2686" fill="white" />
				</clipPath>
			</defs>
		</symbol>
		<symbol id="icon-facebook" viewBox="0 0 20 20">
			<g clip-path="url(#clip0)">
				<path d="M12.706 3.16523H14.4463V0.134234C14.146 0.0929314 13.1135 0 11.9109 0C9.40178 0 7.68294 1.57825 7.68294 4.47898V7.14857H4.91406V10.537H7.68294V19.0629H11.0777V10.5378H13.7346L14.1564 7.14937H11.0769V4.81496C11.0777 3.83561 11.3414 3.16523 12.706 3.16523Z" fill="currentColor" />
			</g>
			<defs>
				<clipPath id="clip0">
					<rect width="19.0629" height="19.0629" fill="currentColor" />
				</clipPath>
			</defs>
		</symbol>
		<symbol id="icon-arrow" viewBox="0 0 11 21">
			<path d="M5.08926 0.958257L0.094245 5.95327L0.718622 6.57765L4.96126 2.33501L4.95814 20.0018L5.83851 20.0018L5.84163 2.33501L9.77209 6.26546L10.3965 5.64108L5.71364 0.958256C5.54121 0.785831 5.26168 0.785831 5.08926 0.958257Z" fill="currentColor" />
		</symbol>
		<symbol id="icon-quote" viewBox="0 0 17 17">
			<g clip-path="url(#clip0)">
				<path d="M9.71436 1.21436V8.50008H14.5715C14.5715 11.1783 12.3925 13.3572 9.71436 13.3572V15.7858C13.7319 15.7858 17.0001 12.5177 17.0001 8.50008V1.21436H9.71436Z" fill="#00394A" />
				<path d="M0 8.50008H4.85714C4.85714 11.1783 2.67817 13.3572 0 13.3572V15.7858C4.01759 15.7858 7.28573 12.5177 7.28573 8.50008V1.21436H0V8.50008Z" fill="#00394A" />
			</g>
			<defs>
				<clipPath id="clip0">
					<rect width="17" height="17" fill="white" />
				</clipPath>
			</defs>
		</symbol>
		<symbol id="icon-chevrone" viewBox="0 0 6 10">
			<path d="M1 9.09978L5 5.04989L1 1" stroke="currentColor" stroke-linejoin="bevel" />
		</symbol>
		<symbol id="icon-download" viewBox="0 0 33 30">
			<rect width="33" height="30" fill="#F6F6F6" />
			<path d="M20.8809 13.5911L17.006 17.774L13.121 13.5853L12.0946 14.5374L16.0182 18.7677C16.5588 19.3506 17.4558 19.3486 17.9978 18.7635L21.9079 14.5426L20.8809 13.5911Z" fill="#00394A" />
			<path d="M17.7 8H16.3V17.8H17.7V8Z" fill="#00394A" />
			<path d="M23.2999 20.6H10.6999V22H23.2999V20.6Z" fill="#00394A" />
		</symbol>
		<symbol id="icon-load" viewBox="0 0 22 22">
			<path d="M21.3984 9.69671C21.3271 9.24979 20.907 8.94532 20.4601 9.01662C20.0131 9.08793 19.7087 9.50806 19.78 9.95499C19.7807 9.95989 19.7815 9.96474 19.7824 9.96959C20.6169 14.8821 17.3111 19.5409 12.3986 20.3754C7.48604 21.2099 2.8272 17.9041 1.9927 12.9916C1.15819 8.07907 4.4641 3.42023 9.37656 2.58573C12.3976 2.07254 15.4727 3.12782 17.542 5.38795L13.9118 6.59746C13.4824 6.74036 13.2501 7.20428 13.393 7.63373C13.393 7.63383 13.393 7.63397 13.3931 7.63407C13.536 8.06352 13.9999 8.29577 14.4294 8.15292C14.4295 8.15287 14.4296 8.15283 14.4297 8.15283L19.3465 6.51392C19.6812 6.40242 19.9071 6.08912 19.907 5.73626V0.819479C19.907 0.366886 19.5401 0 19.0875 0C18.6349 0 18.2681 0.366886 18.2681 0.819479V3.81295C14.0479 -0.200944 7.37282 -0.0337066 3.35893 4.18646C-0.654972 8.40664 -0.487782 15.0817 3.73244 19.0956C7.95266 23.1096 14.6277 22.9423 18.6416 18.7221C20.9305 16.3156 21.9519 12.9715 21.3984 9.69671Z" fill="#00394A" />
		</symbol>
		<symbol id="icon-nav" viewBox="0 0 12 14">
			<path d="M5.99996 0C3.2042 0 0.929688 2.27451 0.929688 5.07024C0.929688 8.53984 5.46708 13.6334 5.66027 13.8485C5.84172 14.0506 6.15852 14.0503 6.33965 13.8485C6.53283 13.6334 11.0702 8.53984 11.0702 5.07024C11.0702 2.27451 8.79569 0 5.99996 0ZM5.99996 7.62122C4.59334 7.62122 3.449 6.47686 3.449 5.07024C3.449 3.66363 4.59337 2.51929 5.99996 2.51929C7.40655 2.51929 8.55088 3.66365 8.55088 5.07027C8.55088 6.47689 7.40655 7.62122 5.99996 7.62122Z" fill="#5B5F62" />
		</symbol>
		<symbol id="icon-phone" viewBox="0 0 14 14">
			<path d="M13.6189 10.2746L11.6652 8.32085C10.9674 7.62308 9.7812 7.90222 9.50209 8.80928C9.29276 9.4373 8.595 9.78618 7.96701 9.6466C6.57148 9.29772 4.68751 7.48353 4.33863 6.01822C4.1293 5.39021 4.54796 4.69244 5.17595 4.48314C6.08304 4.20403 6.36215 3.01783 5.66439 2.32007L3.71064 0.366327C3.15243 -0.122109 2.31511 -0.122109 1.82668 0.366327L0.500926 1.69208C-0.824828 3.08761 0.640479 6.78576 3.91997 10.0653C7.19947 13.3448 10.8976 14.8799 12.2932 13.4843L13.6189 12.1586C14.1074 11.6003 14.1074 10.763 13.6189 10.2746Z" fill="#5B5F62" />
		</symbol>
		<symbol id="icon-mail" viewBox="0 0 13 13">
			<path d="M12.5363 1.85712H0.464844L6.50056 6.82869L12.6045 1.87105C12.5822 1.86452 12.5594 1.85986 12.5363 1.85712Z" fill="#5B5F62" />
			<path d="M6.79295 7.78897C6.62189 7.92904 6.37577 7.92904 6.20471 7.78897L0 2.67719V10.6787C0 10.9351 0.207867 11.143 0.464294 11.143H12.5357C12.7921 11.143 13 10.9351 13 10.6787V2.7459L6.79295 7.78897Z" fill="#5B5F62" />
		</symbol>
		<symbol id="icon-close" viewBox="0 0 13 13">
			<g clip-path="url(#clip0)">
				<path d="M11.8508 0.00272484L0 11.8502L1.14748 12.998L12.9983 1.15053L11.8508 0.00272484Z" fill="#5B5F62" />
				<path d="M1.14943 0.00209801L0.00195312 1.1499L11.8528 12.9974L13.0003 11.8496L1.14943 0.00209801Z" fill="#5B5F62" />
			</g>
			<defs>
				<clipPath id="clip0">
					<rect width="13" height="13" fill="white" />
				</clipPath>
			</defs>
		</symbol>
		<symbol id="icon-file" viewBox="0 0 14 14">
			<path d="M13.4061 5.09877C13.1776 4.87157 12.8083 4.87258 12.5811 5.10099L5.56868 12.1513C4.6589 13.0611 3.1813 13.0611 2.26982 12.1501C1.35904 11.2388 1.35904 9.76124 2.26993 8.85034L9.48992 1.59243C10.0579 1.02446 10.9814 1.02446 11.551 1.59366C12.1205 2.16313 12.1205 3.08647 11.5509 3.65611L5.56977 9.63715C5.56939 9.63753 5.56906 9.63797 5.56868 9.63835C5.34082 9.86495 4.97257 9.86465 4.74518 9.63726C4.5174 9.40948 4.5174 9.0403 4.74518 8.81252L7.6322 5.9249C7.85997 5.69707 7.85995 5.3277 7.63211 5.09992C7.40428 4.87214 7.03491 4.87217 6.80713 5.1L3.92014 7.98757C3.23678 8.67093 3.23678 9.77882 3.9202 10.4622C4.60359 11.1456 5.71147 11.1456 6.39489 10.4622C6.39568 10.4614 6.39631 10.4606 6.39708 10.4598L12.3758 4.48103C13.4011 3.45578 13.4011 1.79374 12.3758 0.768487C11.3504 -0.256162 9.68849 -0.256162 8.66385 0.768487L1.44386 8.02645C0.0784453 9.39187 0.0784452 11.608 1.44484 12.9751C2.81215 14.3417 5.0283 14.3417 6.39478 12.9752L13.4083 5.92375C13.6355 5.69532 13.6345 5.32598 13.4061 5.09877Z" fill="#00394A" />
		</symbol>
		<symbol id="icon-watch" viewBox="0 0 17 11">
			<path d="M8.49982 3.1984C7.22095 3.1984 6.18164 4.14601 6.18164 5.31205C6.18164 6.47809 7.22095 7.4257 8.49982 7.4257C9.7787 7.4257 10.818 6.47809 10.818 5.31205C10.818 4.14601 9.77866 3.1984 8.49982 3.1984Z" fill="#00394A" />
			<path d="M8.5 0.0279174C4.63636 0.0279174 1.33683 2.21905 0 5.31205C1.33683 8.40501 4.63636 10.5962 8.5 10.5962C12.3675 10.5962 15.6632 8.40501 17 5.31205C15.6632 2.21905 12.3675 0.0279174 8.5 0.0279174ZM8.5 8.83478C6.36728 8.83478 4.63636 7.25657 4.63636 5.31201C4.63636 3.36745 6.36728 1.78928 8.5 1.78928C10.6327 1.78928 12.3636 3.36749 12.3636 5.31205C12.3636 7.25661 10.6327 8.83478 8.5 8.83478Z" fill="#00394A" />
		</symbol>
		<symbol id="icon-comment" viewBox="0 0 15 16">
			<g clip-path="url(#clip0)">
				<path d="M1.5 1.41945H13.5C14.313 1.41945 15 2.09414 15 2.89258V10.9948C15 11.7933 14.313 12.468 13.5 12.468H6.3605L3.935 15.0885C3.8865 15.1405 3.819 15.1687 3.75 15.1687C3.71975 15.1687 3.68925 15.1633 3.65975 15.1523C3.5635 15.1157 3.5 15.0246 3.5 14.9232V12.468H1.5C0.687 12.468 0 11.7933 0 10.9948V2.89258C0 2.09414 0.687 1.41945 1.5 1.41945Z" fill="#00394A" />
			</g>
			<defs>
				<clipPath id="clip0">
					<rect width="15" height="14.7314" fill="white" transform="translate(0 0.928406)" />
				</clipPath>
			</defs>
		</symbol>
		<symbol id="icon-success" viewBox="0 0 477.867 477.867">
			<g>
				<g>
					<path d="M238.933,0C106.974,0,0,106.974,0,238.933s106.974,238.933,238.933,238.933s238.933-106.974,238.933-238.933
						C477.726,107.033,370.834,0.141,238.933,0z M238.933,443.733c-113.108,0-204.8-91.692-204.8-204.8s91.692-204.8,204.8-204.8
						s204.8,91.692,204.8,204.8C443.611,351.991,351.991,443.611,238.933,443.733z" />
				</g>
			</g>
			<g>
				<g>
					<path d="M370.046,141.534c-6.614-6.388-17.099-6.388-23.712,0v0L187.733,300.134l-56.201-56.201
						c-6.548-6.78-17.353-6.967-24.132-0.419c-6.78,6.548-6.967,17.353-0.419,24.132c0.137,0.142,0.277,0.282,0.419,0.419
						l68.267,68.267c6.664,6.663,17.468,6.663,24.132,0l170.667-170.667C377.014,158.886,376.826,148.082,370.046,141.534z" />
				</g>
			</g>
			<g>
			</g>
			<g>
			</g>
			<g>
			</g>
			<g>
			</g>
			<g>
			</g>
			<g>
			</g>
			<g>
			</g>
			<g>
			</g>
			<g>
			</g>
			<g>
			</g>
			<g>
			</g>
			<g>
			</g>
			<g>
			</g>
			<g>
			</g>
			<g>
			</g>
		</symbol>
		<symbol id="icon-error" viewBox="0 0 512 512">
			<g>
				<g>
					<path d="M256,0C114.508,0,0,114.497,0,256c0,141.493,114.497,256,256,256c141.492,0,256-114.497,256-256
						C512,114.507,397.503,0,256,0z M256,472c-119.384,0-216-96.607-216-216c0-119.385,96.607-216,216-216
						c119.384,0,216,96.607,216,216C472,375.385,375.393,472,256,472z"/>
				</g>
			</g>
			<g>
				<g>
					<path d="M343.586,315.302L284.284,256l59.302-59.302c7.81-7.81,7.811-20.473,0.001-28.284c-7.812-7.811-20.475-7.81-28.284,0
						L256,227.716l-59.303-59.302c-7.809-7.811-20.474-7.811-28.284,0c-7.81,7.811-7.81,20.474,0.001,28.284L227.716,256
						l-59.302,59.302c-7.811,7.811-7.812,20.474-0.001,28.284c7.813,7.812,20.476,7.809,28.284,0L256,284.284l59.303,59.302
						c7.808,7.81,20.473,7.811,28.284,0C351.398,335.775,351.397,323.112,343.586,315.302z"/>
				</g>
			</g>
			<g>
			</g>
			<g>
			</g>
			<g>
			</g>
			<g>
			</g>
			<g>
			</g>
			<g>
			</g>
			<g>
			</g>
			<g>
			</g>
			<g>
			</g>
			<g>
			</g>
			<g>
			</g>
			<g>
			</g>
			<g>
			</g>
			<g>
			</g>
			<g>
			</g>
		</symbol>
	</defs>
</svg>
