<svg width="120" height="21" viewBox="0 0 120 21" fill="none" xmlns="http://www.w3.org/2000/svg">
<g clip-path="url(#clip0_235_3385)">
<path d="M59.7791 1.32516C64.7117 4.12271 66.4785 10.3804 63.681 15.3129C63.681 15.3865 63.6074 15.3865 63.6074 15.4601C62.6503 17.0061 61.3252 18.3313 59.7791 19.2147C56.3926 21.0552 52.3436 21.0552 48.9571 19.2147C47.3374 18.3313 46.0123 17.0061 45.1288 15.4601C42.2577 10.6012 43.8037 4.41719 48.6626 1.4724C48.7362 1.39878 48.8834 1.32516 49.0307 1.25154C52.3436 -0.441707 56.3926 -0.441707 59.7791 1.32516ZM51.0184 4.34357C47.7792 6.25768 46.6749 10.454 48.5153 13.7669C49.1043 14.7976 49.9877 15.681 51.0184 16.2699C52.0491 16.8589 53.227 17.227 54.4049 17.1534C55.5828 17.1534 56.7607 16.8589 57.7178 16.2699C58.7485 15.681 59.5583 14.7976 60.1472 13.7669C60.7362 12.7362 61.0307 11.4847 61.0307 10.3068C61.0307 9.12884 60.7362 7.87731 60.1472 6.84664C59.5583 5.81596 58.7485 5.00615 57.7178 4.41719C56.6871 3.82823 55.5828 3.53375 54.4049 3.53375C53.227 3.46013 52.0491 3.75461 51.0184 4.34357Z" fill="#FFFFE3"/>
<path d="M73.3251 0.294495H76.8589C77.0797 0.294495 77.3006 0.441734 77.4478 0.662593L83.9264 13.2515L90.3313 0.662593C90.4049 0.441734 90.6258 0.294495 90.9202 0.294495H94.454C94.6748 0.294495 94.8957 0.515354 94.8957 0.736212V19.8773C94.8957 20.0982 94.6748 20.319 94.454 20.319H91.8037C91.5828 20.319 91.3619 20.0982 91.3619 19.8773V5.96321L85.3251 17.9632C85.2515 18.1841 85.0307 18.3313 84.7362 18.3313H83.0429C82.8221 18.3313 82.6012 18.1841 82.454 17.9632L76.3435 5.96321V19.8773C76.3435 20.0982 76.1227 20.319 75.9018 20.319H73.3251C73.1043 20.319 72.8834 20.0982 72.8834 19.8773V0.736212C72.8834 0.441734 73.1043 0.294495 73.3251 0.294495Z" fill="#FFFFE3"/>
<path d="M108.442 17.0062H119.19C119.411 17.0062 119.632 17.227 119.632 17.4479V19.8773C119.632 20.0982 119.411 20.319 119.19 20.319H105.055C104.834 20.319 104.614 20.0982 104.614 19.8773V0.736212C104.614 0.515354 104.834 0.294495 105.055 0.294495H118.822C119.043 0.294495 119.264 0.515354 119.264 0.736212V3.16566C119.264 3.38652 119.043 3.60738 118.822 3.60738H108.442V17.0062Z" fill="#FFFFE3"/>
<path d="M114.258 12.7362C115.64 12.7362 116.761 11.6155 116.761 10.2331C116.761 8.8507 115.64 7.73004 114.258 7.73004C112.875 7.73004 111.755 8.8507 111.755 10.2331C111.755 11.6155 112.875 12.7362 114.258 12.7362Z" fill="#008C96"/>
<path d="M18.6994 0.294495H21.6442C21.9387 0.294495 22.0859 0.441734 22.0859 0.736212V8.83437H32.0246V0.736212C32.0246 0.515354 32.2454 0.294495 32.4663 0.294495H35.4111C35.6319 0.294495 35.8528 0.515354 35.8528 0.736212V19.8773C35.8528 20.0982 35.6319 20.319 35.4111 20.319H32.4663C32.2454 20.319 32.0246 20.0982 32.0246 19.8773V12.2209H22.0859V19.8773C22.0859 20.0982 21.8651 20.319 21.6442 20.319H18.6994C18.4785 20.319 18.2577 20.0982 18.2577 19.8773V0.736212C18.2577 0.441734 18.4785 0.294495 18.6994 0.294495Z" fill="#FFFFE3"/>
<path d="M4.63804 20.319H7.58282C7.80368 20.319 8.02454 20.0982 8.02454 19.8773V0.736212C8.02454 0.515354 7.80368 0.294495 7.58282 0.294495H0.441718C0.220859 0.294495 0 0.441734 0 0.736212V3.23928C0 3.46014 0.220859 3.681 0.441718 3.681H4.19632V19.8773C4.19632 20.0982 4.41718 20.319 4.63804 20.319Z" fill="#FFFFE3"/>
</g>
<defs>
<clipPath id="clip0_235_3385">
<rect width="120" height="20.6135" fill="white"/>
</clipPath>
</defs>
</svg>
