<svg width="120" height="69" viewBox="0 0 120 69" fill="none" xmlns="http://www.w3.org/2000/svg">
<g clip-path="url(#clip0_235_3342)">
<path d="M39.0058 61.0785H34.0972V41.6259H39.0058V61.0785Z" fill="#C4122E"/>
<mask id="mask0_235_3342" style="mask-type:luminance" maskUnits="userSpaceOnUse" x="0" y="-1" width="120" height="70">
<path d="M0.012207 68.3516H119.988V-0.000404358H0.012207V68.3516Z" fill="white"/>
</mask>
<g mask="url(#mask0_235_3342)">
<path d="M78.5857 47.1997C78.3836 47.097 76.8039 46.1611 74.4561 46.1611C71.2827 46.1611 69.081 48.3689 69.081 51.3495C69.081 54.24 71.1878 56.5427 74.4561 56.5427C76.7635 56.5427 78.3696 55.6253 78.5857 55.5103V60.7314C77.97 60.9024 76.2924 61.4233 74.1125 61.4233C68.5913 61.4233 63.7448 57.6171 63.7448 51.348C63.7448 45.5407 68.1295 41.2804 74.1125 41.2804C76.4136 41.2804 78.1208 41.8402 78.5857 41.9786V47.1997ZM27.3493 47.1997C27.1518 47.097 25.5737 46.1611 23.2259 46.1611C20.0463 46.1611 17.8462 48.3689 17.8462 51.3495C17.8462 54.24 19.9545 56.5427 23.2259 56.5427C25.5333 56.5427 27.1379 55.6253 27.3493 55.5103V60.7314C26.7398 60.9024 25.0637 61.4233 22.8714 61.4233C17.3548 61.4233 12.5146 57.6171 12.5146 51.348C12.5146 45.5407 16.8993 41.2804 22.873 41.2804C25.1834 41.2804 26.8875 41.8402 27.3493 41.9786V47.1997ZM94.0268 46.2341C91.1146 46.2341 88.9518 48.5259 88.9518 51.3495C88.9518 54.1793 91.1146 56.4696 94.0268 56.4696C96.9359 56.4696 99.1049 54.1793 99.1049 51.3495C99.1049 48.5259 96.9359 46.2341 94.0268 46.2341ZM104.306 51.3495C104.306 56.9143 100.01 61.4233 94.0283 61.4233C88.0438 61.4233 83.754 56.9143 83.754 51.348C83.754 45.7941 88.0453 41.2804 94.0268 41.2804C100.01 41.2804 104.306 45.7941 104.306 51.3495ZM57.6204 46.0476C57.5473 46.0243 55.4809 45.4536 53.783 45.4536C51.8162 45.4536 50.7464 46.1129 50.7464 47.0473C50.7464 48.2321 52.1893 48.6456 52.9963 48.9006L54.3505 49.3314C57.5379 50.3451 58.9886 52.5265 58.9886 54.8961C58.9886 59.7829 54.6911 61.4248 50.9346 61.4248C48.324 61.4248 45.8783 60.9428 45.6373 60.8931V56.4152C46.0695 56.524 48.1281 57.1397 50.2722 57.1397C52.7149 57.1397 53.8375 56.4245 53.8375 55.3237C53.8375 54.338 52.8657 53.7688 51.6482 53.3863C51.3528 53.2868 50.905 53.1469 50.6003 53.0474C47.8669 52.1829 45.5875 50.5752 45.5875 47.3567C45.5875 43.7184 48.3116 41.2757 52.8361 41.2757C55.2259 41.2757 57.4742 41.8557 57.6204 41.8946V46.046V46.0476Z" fill="#C4122E"/>
<path d="M7.30898 20.7208C7.30898 19.3806 6.21437 18.2937 4.87255 18.2937C3.53073 18.2937 2.43457 19.3805 2.43457 20.7192V25.8269C2.45063 26.4626 2.71446 27.0669 3.16977 27.5109C3.62508 27.9549 4.23585 28.2033 4.87178 28.2033C5.50771 28.2033 6.11846 27.9549 6.57378 27.5109C7.02909 27.0669 7.29292 26.4626 7.30898 25.8269V20.7208ZM20.6945 14.0195C20.6945 13.3731 20.4378 12.7532 19.9807 12.2961C19.5236 11.8391 18.9037 11.5823 18.2573 11.5823C17.611 11.5823 16.991 11.8391 16.534 12.2961C16.0769 12.7532 15.8201 13.3731 15.8201 14.0195V25.8269C15.8201 26.4733 16.0769 27.0932 16.534 27.5503C16.991 28.0073 17.611 28.2641 18.2573 28.2641C18.9037 28.2641 19.5236 28.0073 19.9807 27.5503C20.4378 27.0932 20.6945 26.4733 20.6945 25.8269V14.0179V14.0195ZM34.0817 4.84909C34.0817 3.50882 32.987 2.42042 31.6452 2.42042C30.3018 2.42042 29.2072 3.50882 29.2072 4.84909V30.6795C29.2233 31.3152 29.4871 31.9195 29.9424 32.3635C30.3978 32.8074 31.0085 33.056 31.6444 33.056C32.2804 33.056 32.8911 32.8074 33.3465 32.3635C33.8018 31.9195 34.0656 31.3152 34.0817 30.6795V4.84909ZM47.4672 14.0195C47.4672 13.3731 47.2104 12.7532 46.7534 12.2961C46.2963 11.8391 45.6764 11.5823 45.03 11.5823C44.3836 11.5823 43.7637 11.8391 43.3066 12.2961C42.8496 12.7532 42.5928 13.3731 42.5928 14.0195V25.8269C42.5928 26.4733 42.8496 27.0932 43.3066 27.5503C43.7637 28.0073 44.3836 28.2641 45.03 28.2641C45.6764 28.2641 46.2963 28.0073 46.7534 27.5503C47.2104 27.0932 47.4672 26.4733 47.4672 25.8269V14.0179V14.0195ZM60.8388 20.7208C60.8392 20.0778 60.5842 19.4609 60.13 19.0058C59.6757 18.5507 59.0594 18.2945 58.4163 18.2937C57.7719 18.2933 57.1536 18.5484 56.6969 19.0031C56.2402 19.4577 55.9824 20.0748 55.9799 20.7192V25.8269C55.9799 26.4712 56.2359 27.0892 56.6915 27.5448C57.1471 28.0004 57.765 28.2563 58.4093 28.2563C59.0537 28.2563 59.6716 28.0004 60.1272 27.5448C60.5828 27.0892 60.8388 26.4712 60.8388 25.8269V20.7208ZM74.2306 14.0195C74.2145 13.3858 73.9515 12.7834 73.4977 12.3409C73.0438 11.8984 72.435 11.6507 71.8011 11.6507C71.1673 11.6507 70.5584 11.8984 70.1046 12.3409C69.6507 12.7834 69.3877 13.3858 69.3717 14.0195V25.8269C69.3717 26.4712 69.6277 27.0892 70.0833 27.5448C70.5389 28.0004 71.1568 28.2563 71.8011 28.2563C72.4455 28.2563 73.0634 28.0004 73.519 27.5448C73.9746 27.0892 74.2306 26.4712 74.2306 25.8269V14.0179V14.0195ZM87.6254 4.84909C87.6254 4.20476 87.3695 3.58682 86.9139 3.13122C86.4583 2.67561 85.8403 2.41966 85.196 2.41966C84.5517 2.41966 83.9337 2.67561 83.4781 3.13122C83.0225 3.58682 82.7666 4.20476 82.7666 4.84909V30.6795C82.7522 31.0075 82.8044 31.335 82.92 31.6423C83.0356 31.9495 83.2122 32.2302 83.4393 32.4674C83.6663 32.7046 83.9389 32.8933 84.2409 33.0223C84.5428 33.1512 84.8677 33.2178 85.196 33.2178C85.5243 33.2178 85.8492 33.1512 86.1511 33.0223C86.4531 32.8933 86.7258 32.7046 86.9528 32.4674C87.1798 32.2302 87.3564 31.9495 87.472 31.6423C87.5876 31.335 87.6398 31.0075 87.6254 30.6795V4.84909ZM101.017 14.0195C101.017 12.6777 99.9304 11.5877 98.5575 11.5877C97.9132 11.5881 97.2955 11.8443 96.8401 12.3C96.3846 12.7557 96.1288 13.3736 96.1288 14.0179V25.8269C96.1288 27.1749 97.2172 28.2617 98.5575 28.2617C99.9304 28.2617 101.017 27.1749 101.017 25.8269V14.0179V14.0195ZM114.384 20.7208C114.384 20.0759 114.128 19.4573 113.672 19.0013C113.216 18.5452 112.597 18.289 111.952 18.289C111.307 18.289 110.689 18.5452 110.233 19.0013C109.777 19.4573 109.521 20.0759 109.521 20.7208V25.8269C109.521 27.1749 110.611 28.2633 111.952 28.2633C113.293 28.2633 114.383 27.1749 114.383 25.8269V20.7208H114.384Z" fill="#15495D"/>
<path d="M111.574 58.5158V58.8205H110.707V61.0765H110.349V58.8221H109.479V58.5158H111.574ZM111.756 58.5158H112.315L113.081 60.6164H113.093L113.835 58.5173H114.382V61.0765H114.017V58.9776H114.005L113.227 61.0765H112.89L112.131 58.9776H112.114V61.0765H111.756V58.5158Z" fill="#C4122E"/>
</g>
</g>
<defs>
<clipPath id="clip0_235_3342">
<rect width="120" height="68.352" fill="white"/>
</clipPath>
</defs>
</svg>
