<svg width="120" height="23" viewBox="0 0 120 23" fill="none" xmlns="http://www.w3.org/2000/svg">
<path fill-rule="evenodd" clip-rule="evenodd" d="M15.0635 5.20905L14.9652 5.60029H15.0382C15.1113 5.60029 15.2581 5.62488 15.2581 5.7471C15.2335 5.99154 14.7446 6.0407 14.8429 5.7471L13.8645 5.72252C13.8645 5.77168 13.8399 5.84474 13.8399 5.89321C13.8153 6.79792 16.2119 6.6757 16.2365 5.74641C16.2365 5.50197 16.0412 5.42891 15.8453 5.37975C16.0412 5.33059 16.3103 5.20837 16.3587 4.98851C16.5055 4.20603 14.4264 4.18145 14.182 5.08683H15.1113C15.1359 4.89087 15.4534 4.89087 15.4049 5.06225C15.3803 5.18447 15.2096 5.20905 15.1113 5.20905H15.0635Z" fill="#C12127"/>
<path fill-rule="evenodd" clip-rule="evenodd" d="M7.2869 5.40433L10.9303 0L13.5714 4.42588C11.3953 4.27977 9.04783 4.52421 7.2869 5.40433ZM5.50139 16.0184L0.194702 15.9931L4.62058 9.39049C4.54753 11.8124 7.7751 11.3965 9.41449 11.8854C10.9303 12.3258 9.21853 13.0093 8.48521 13.0093C7.16468 13.0093 5.89263 12.4467 4.79265 11.8117L2.02937 15.0147C2.93408 15.4558 4.15697 15.7985 5.50139 16.0184ZM20.4929 16.0662L10.8818 16.0184C13.6212 15.5527 15.9195 14.183 16.2868 11.3959C16.6535 8.50969 11.2 9.12079 10.7104 8.09455C10.8572 6.57806 14.5013 7.89858 15.1862 8.33899L15.602 7.8501L20.4929 16.0662Z" fill="white"/>
<path fill-rule="evenodd" clip-rule="evenodd" d="M1.41817 12.3989C1.54039 12.1538 1.58887 11.9093 1.58887 11.6403C1.61639 11.4099 1.56461 11.1771 1.44206 10.98C1.35572 10.8291 1.21624 10.7156 1.05082 10.6619H0.953183C0.921052 10.6611 0.889126 10.6672 0.859561 10.6798C0.829995 10.6924 0.803478 10.7112 0.781801 10.7349C0.734834 10.7698 0.695472 10.8139 0.666122 10.8645C0.636772 10.9151 0.61805 10.9711 0.611102 11.0292C0.586521 11.1508 0.586522 11.2491 0.561941 11.2989C0.561941 11.3467 0.53736 11.372 0.513462 11.372H0.488881C0.440403 11.3467 0.415823 11.2989 0.415823 11.176C0.415823 11.0531 0.464984 10.9309 0.538043 10.8093L0.146801 10.4912C0.0518803 10.6982 0.0018504 10.923 0 11.1507C0 11.3959 0.0491614 11.5918 0.146801 11.7871C0.245124 11.9592 0.366661 12.0568 0.538043 12.106H0.660263C0.807065 12.106 0.904704 12.0329 0.929285 11.8609C0.978446 11.6663 1.00234 11.5434 1.00234 11.4942C1.02692 11.4464 1.05151 11.4464 1.0754 11.4211C1.12456 11.4464 1.14846 11.4942 1.14846 11.6171C1.14846 11.74 1.09998 11.8868 1.00166 12.0814L1.41817 12.3989ZM1.56428 10.4912L1.88247 9.17064L1.49123 8.99926L1.34442 9.63494L1.19762 9.56188L1.31984 8.99926L0.953183 8.85246L0.830962 9.41508L0.684161 9.34202L0.830962 8.73024L0.464301 8.55885L0.146118 9.85548L1.56428 10.4912ZM1.2222 7.50735L1.27068 7.40971C1.31984 7.28749 1.369 7.26291 1.44206 7.28749C1.46664 7.28749 1.46665 7.28749 1.49123 7.31207C1.56428 7.36055 1.58887 7.45887 1.51581 7.58109L1.46665 7.70331L1.2222 7.50735ZM1.88247 8.82787L2.15149 8.19219L1.73567 7.89859L2.29829 7.87401L2.64037 7.11611L1.90637 7.23833C1.93093 7.13392 1.93093 7.02523 1.90637 6.92083C1.89782 6.8667 1.87826 6.8149 1.8489 6.76863C1.81954 6.72235 1.781 6.6826 1.73567 6.65181C1.70884 6.62592 1.6748 6.60878 1.63803 6.60265C1.59229 6.57677 1.53981 6.56527 1.48743 6.56965C1.43506 6.57403 1.38523 6.5941 1.34442 6.62722C1.2222 6.70028 1.09998 6.84708 0.977764 7.09153L0.611102 7.92317L1.88247 8.82787ZM2.73801 5.84474L1.93095 5.40434L1.49123 6.0646L2.98313 6.55417L3.3498 5.99154L2.73801 4.23061L2.29829 4.86698L2.73801 5.84474ZM3.91174 5.28211L4.42588 4.76865L3.61882 3.44813L3.08077 3.96159L3.91174 5.28211ZM5.08615 2.83703C5.20837 2.7387 5.33059 2.71481 5.47739 2.71481L5.23295 2.17676C5.08615 2.22592 4.93934 2.32356 4.81712 2.4212C4.59163 2.59766 4.42188 2.83546 4.32824 3.10605C4.2306 3.37507 4.2306 3.61951 4.32824 3.84005C4.3774 3.88921 4.4013 3.93769 4.42656 3.98685C4.54878 4.13366 4.69559 4.18282 4.86697 4.18282C5.11141 4.13366 5.33195 4.0606 5.52723 3.88922C5.64945 3.79089 5.74709 3.66867 5.86999 3.52187L5.62555 2.98383C5.57639 3.08147 5.52723 3.17911 5.47875 3.22827C5.45417 3.30133 5.38043 3.35049 5.33195 3.39897C5.26645 3.46243 5.17871 3.49772 5.08751 3.49729C5.03903 3.49729 4.98919 3.47271 4.94071 3.42423C4.94071 3.42423 4.91613 3.39965 4.91613 3.37507C4.89446 3.33407 4.88114 3.28919 4.87692 3.24302C4.8727 3.19684 4.87767 3.15029 4.89155 3.10605C4.93934 3.00772 4.98782 2.91009 5.08615 2.83703ZM6.21071 3.39897L7.40902 2.76397L7.31138 2.34746L6.72417 2.66565L6.67569 2.49426L7.18916 2.22524L7.09152 1.834L6.57737 2.10302L6.55347 1.95622L7.11541 1.66262L7.01777 1.24748L5.81947 1.88316L6.21071 3.39897ZM13.4005 2.17676C13.5712 2.37272 13.7672 2.51884 14.0123 2.61716C14.2561 2.71549 14.4766 2.73939 14.6726 2.71549C14.8925 2.69091 15.0638 2.59327 15.1615 2.47105C15.1861 2.44647 15.1861 2.42188 15.2106 2.39799C15.2348 2.33489 15.2348 2.26512 15.2106 2.20203C15.1861 2.10439 15.1123 2.00674 14.9908 1.933C14.8925 1.88384 14.8194 1.81078 14.7702 1.7862C14.7457 1.76162 14.7211 1.73704 14.7457 1.71246C14.7702 1.6633 14.844 1.6633 14.9409 1.68788C15.0638 1.73704 15.1608 1.83468 15.2345 1.9569L15.6749 1.68788C15.5249 1.53856 15.3514 1.41472 15.1615 1.32122C14.9539 1.23085 14.7261 1.19693 14.5012 1.22289C14.3059 1.27205 14.1591 1.34512 14.0608 1.49192C14.0123 1.5165 13.9878 1.56498 13.9878 1.58956C13.9147 1.73636 13.9632 1.834 14.0861 1.93232C14.2568 2.02996 14.3551 2.10302 14.4036 2.1276C14.4282 2.15218 14.4527 2.17676 14.4282 2.22592C14.4036 2.2744 14.3298 2.2744 14.2329 2.22592C14.11 2.17676 13.9884 2.07912 13.8901 1.90774L13.4005 2.17676ZM15.6012 2.46968L15.4544 2.61648C15.2339 2.98382 15.4544 3.27674 15.7719 3.49729C16.1877 3.76631 16.6527 3.88853 17.0931 3.47271L17.7288 2.88551L17.1423 2.49426L16.5066 3.08078C16.3359 3.25148 16.2376 3.203 16.1645 3.15384C16.0423 3.08078 16.0662 3.03162 16.0914 2.95788C16.116 2.9333 16.1399 2.88482 16.1898 2.86024L16.8255 2.27303L16.2389 1.88179L15.6012 2.46968ZM16.8732 4.23061L17.3621 4.71949L17.778 4.47505L17.9248 4.62185C18.12 4.81782 18.2914 4.94004 18.4382 4.98852C18.6089 5.0131 18.7564 4.98851 18.9271 4.89087C18.9763 4.86629 19.0247 4.81782 19.0493 4.79324C19.147 4.69491 19.1715 4.59727 19.147 4.49963C19.147 4.35283 19.0247 4.18213 18.8049 3.96159L18.2184 3.37438L16.8732 4.23061ZM18.3406 4.10839L18.4136 4.18145C18.512 4.27909 18.5359 4.35215 18.4867 4.40131H18.4621C18.3891 4.45047 18.2914 4.42589 18.1931 4.32825L18.12 4.25519L18.3406 4.10839ZM18.1692 5.69794L18.5604 6.28514L19.0008 6.11376L19.1231 6.28514C19.2699 6.505 19.4167 6.65181 19.5635 6.72555C19.7103 6.79929 19.8816 6.79861 20.0523 6.72555C20.1015 6.70097 20.15 6.70097 20.1991 6.65249C20.2968 6.60333 20.3459 6.50569 20.3459 6.38347C20.3705 6.23667 20.2729 6.04139 20.1261 5.79695L19.6611 5.11142L18.1692 5.69794ZM19.6365 5.84474L19.685 5.94238C19.7581 6.04002 19.7581 6.11308 19.7096 6.16224H19.685C19.6119 6.2114 19.5382 6.16224 19.4406 6.04002L19.3914 5.94238L19.6365 5.84474ZM20.3459 8.60802C20.1991 8.6326 20.0284 8.55885 19.9547 8.31441C19.9055 8.11845 19.9793 8.02081 20.1015 7.99623C20.1261 7.97165 20.1261 7.97165 20.15 7.97165C20.3944 7.94707 20.5166 8.14235 20.5412 8.26525C20.6143 8.43663 20.5412 8.55885 20.419 8.60733L20.3459 8.60802ZM19.4167 8.36357C19.5874 8.87704 20.0284 9.36592 20.5412 9.31676C20.5897 9.29218 20.6389 9.29218 20.7126 9.26828C21.0301 9.16996 21.2506 8.82788 21.0793 8.21609C20.9325 7.70263 20.5166 7.23765 19.9547 7.28681C19.9055 7.28681 19.8564 7.2868 19.8079 7.31138C19.4167 7.43429 19.2944 7.92317 19.4167 8.36357ZM21.0062 10.5157V10.638C21.0062 10.7602 20.9816 10.8093 20.9079 10.8093H20.8594C20.7611 10.8093 20.7126 10.7356 20.7126 10.5888L20.688 10.4912L21.0062 10.5157ZM19.7833 9.6841L19.8325 10.3935L20.3459 10.442L19.8571 10.7356L19.9301 11.5434L20.5166 11.0777C20.5412 11.1767 20.5897 11.2989 20.688 11.3727C20.7585 11.4466 20.855 11.4902 20.957 11.4942H21.0793C21.1769 11.4942 21.2745 11.4211 21.3237 11.3474C21.4213 11.2006 21.4459 11.0046 21.4213 10.7609L21.3483 9.85617L19.7833 9.6841ZM19.7587 11.9592L19.685 12.6672L20.688 13.01L20.6389 13.4019L21.1038 13.5726L21.2998 12.0561L20.8102 11.91L20.7618 12.3006L19.7587 11.9592ZM1.68651 17.3389C1.73567 17.5827 1.83331 17.8285 2.00469 18.0231C2.15149 18.2191 2.34677 18.342 2.54273 18.415C2.73801 18.4881 2.90939 18.4881 3.05619 18.415C3.08077 18.3897 3.12925 18.3898 3.12925 18.3659C3.1904 18.3268 3.23416 18.2656 3.25147 18.1952C3.24791 18.0851 3.2231 17.9769 3.17841 17.8763C3.10467 17.7548 3.08009 17.6817 3.05619 17.6325C3.03161 17.5834 3.03161 17.5595 3.05619 17.5349C3.10467 17.5096 3.17841 17.5349 3.22758 17.6325C3.30063 17.7302 3.3498 17.8524 3.37438 17.9992L3.88784 17.9753C3.81478 17.7554 3.74104 17.5595 3.59424 17.3888C3.44744 17.1928 3.27605 17.0699 3.08077 16.9968C2.88549 16.9238 2.71411 16.9477 2.56731 17.0207C2.51815 17.046 2.49425 17.0699 2.44509 17.0938C2.34745 17.1669 2.32287 17.2898 2.39661 17.4366C2.49425 17.6086 2.54341 17.7063 2.56731 17.7554C2.59189 17.8032 2.59189 17.8285 2.54273 17.8531C2.49357 17.877 2.44441 17.8531 2.37135 17.78C2.29829 17.6824 2.24913 17.5103 2.22455 17.3157L1.68651 17.3389ZM4.62116 19.4419C4.54371 19.4918 4.45264 19.5163 4.36061 19.512C4.26859 19.5078 4.18018 19.4749 4.1077 19.418C3.9609 19.2951 3.98548 19.1483 4.05854 19.0753C4.05854 19.05 4.08312 19.0261 4.1077 19.0261C4.17757 18.9686 4.26637 18.9392 4.35676 18.9436C4.44715 18.948 4.53265 18.986 4.59658 19.05C4.74338 19.1729 4.74338 19.2951 4.66964 19.3928C4.64574 19.418 4.62116 19.418 4.62116 19.4419ZM3.69188 19.7349C4.1077 20.0776 4.74338 20.2244 5.1592 19.9056C5.20837 19.8817 5.23226 19.8325 5.28142 19.784C5.50128 19.5143 5.50129 19.1224 5.03698 18.7318C4.62116 18.3891 4.00938 18.2184 3.54507 18.5611L3.44744 18.6588C3.15452 19.0015 3.32521 19.4419 3.69188 19.7349ZM5.11073 20.6648L6.33293 21.3251L6.69959 20.9325L6.08849 20.6157L6.82249 19.8086L6.18613 19.4658L5.11073 20.6648ZM7.36054 20.9325C7.33596 21.0055 7.31138 21.0793 7.28748 21.1284C7.21442 21.5443 7.53192 21.715 7.92316 21.814C8.41273 21.9116 8.90161 21.8379 9.14605 21.2752L9.53729 20.518L8.82787 20.3712L8.4612 21.153C8.33898 21.3743 8.24134 21.3743 8.1437 21.349C8.02148 21.3251 7.9969 21.2759 8.02148 21.2022C8.02148 21.153 8.04607 21.1291 8.07065 21.0793L8.43731 20.2975L7.75315 20.1507L7.36054 20.9325ZM9.85479 22.0345L10.5635 22.0092L10.808 20.9823H11.2238L11.3467 20.4689L9.83021 20.4928L9.70799 21.0062H10.0992L9.85479 22.0345ZM11.3952 21.9847L12.1292 21.8877L12.349 20.3221L11.615 20.419L11.3952 21.9847ZM14.1093 20.5911C14.1093 20.7379 14.0362 20.9086 13.7918 20.9816C13.5958 21.0547 13.4982 20.9816 13.4743 20.8587C13.4743 20.8348 13.4497 20.8109 13.4497 20.7857C13.4497 20.5419 13.6457 20.4443 13.7679 20.3951C13.9386 20.346 14.0615 20.3951 14.0861 20.518C14.1093 20.5419 14.1093 20.5658 14.1093 20.5911ZM13.8164 21.5211C14.3544 21.349 14.844 20.8847 14.7948 20.3712C14.7948 20.3221 14.7948 20.2483 14.7702 20.1992C14.6726 19.8817 14.3544 19.6857 13.7433 19.8578C13.2298 20.0285 12.741 20.4689 12.7649 21.0062C12.7649 21.0793 12.7649 21.1291 12.7894 21.1783C12.8871 21.5688 13.376 21.6679 13.8164 21.5211ZM15.6258 20.7379L16.213 20.346L15.9194 19.6126L16.7019 20.0046L17.2891 19.6126L16.751 18.1453L16.1884 18.5366L16.482 19.2951L15.6749 18.8793L15.0877 19.2951L15.6258 20.7379ZM17.6557 19.1483C17.9002 19.0493 18.0961 18.9032 18.2921 18.7325C18.4874 18.5366 18.6096 18.342 18.6588 18.146C18.7072 17.9261 18.7072 17.7554 18.6096 17.6086C18.585 17.5834 18.585 17.5595 18.5604 17.5356C18.539 17.5117 18.5127 17.4928 18.4832 17.4801C18.4537 17.4675 18.4218 17.4615 18.3897 17.4625C18.274 17.4698 18.1633 17.5122 18.0722 17.5841C17.9493 17.6571 17.8763 17.707 17.8278 17.7309C17.8032 17.7561 17.7793 17.7561 17.7547 17.7561C17.7547 17.7309 17.7547 17.7309 17.7302 17.7309C17.7056 17.6831 17.7302 17.6332 17.8032 17.5602C17.9015 17.4625 18.0238 17.4134 18.1706 17.3642L18.1214 16.8746C17.9015 16.9477 17.7302 17.0706 17.5588 17.2174C17.3881 17.4134 17.2652 17.5841 17.2167 17.8039C17.1436 17.9999 17.1682 18.1706 17.2659 18.2935C17.2904 18.3426 17.315 18.3665 17.3389 18.4164C17.4366 18.514 17.5588 18.514 17.681 18.4164C17.8524 18.2935 17.95 18.2204 17.9992 18.1965C18.0477 18.1713 18.0722 18.1713 18.0968 18.1965C18.1214 18.2443 18.0968 18.3181 18.0238 18.3911C17.9261 18.4901 17.7793 18.5632 17.5834 18.611L17.6557 19.1483Z" fill="#FFFFE3"/>
<path fill-rule="evenodd" clip-rule="evenodd" d="M51.599 10.8578C51.0363 10.8578 50.768 11.9339 50.768 13.1807C50.768 14.2567 51.0118 15.3827 51.5751 15.3827C52.2108 15.3827 52.333 14.2827 52.333 13.2059C52.333 12.0561 52.2347 10.8578 51.599 10.8578ZM51.5751 10.442C53.1155 10.442 54.0209 11.7871 54.0209 13.1322C54.0209 14.4766 53.067 15.8217 51.5266 15.8217C50.0101 15.7978 49.1293 14.452 49.1293 13.1322C49.1293 11.7871 50.034 10.442 51.5751 10.442ZM98.2339 10.8578C97.4767 10.8339 97.403 12.3258 97.403 13.2305C97.403 14.1359 97.5498 15.3335 98.1124 15.3335C98.8218 15.3335 98.9686 14.2096 98.9686 13.2544C98.9686 12.3258 98.9686 10.8578 98.2339 10.8578ZM98.1363 10.442C99.6767 10.442 100.606 11.7871 100.606 13.1322C100.606 14.4527 99.7258 15.8217 98.1854 15.8217C96.6451 15.7978 95.7397 14.452 95.7397 13.1322C95.7397 11.8123 96.5966 10.442 98.1363 10.442ZM58.4952 10.6379C59.3753 10.6379 59.9134 11.3474 59.9134 12.0807V14.9423C59.9134 15.285 60.1831 15.5049 60.5982 15.5786V15.8224H57.712V15.6025C58.1033 15.5049 58.4699 15.3089 58.4699 14.9423V12.0807C58.4699 11.714 58.1763 11.3726 57.7359 11.3474C57.1494 11.3474 56.6844 11.7632 56.6844 12.1544V14.943C56.6844 15.2605 56.9043 15.5056 57.2471 15.6032V15.8231H54.4592V15.5534C54.8013 15.4803 55.0703 15.285 55.0703 14.9908V11.6662C55.0703 11.2743 54.8504 11.1275 54.5077 11.0299V10.7847H56.6844C56.6844 11.0046 56.709 11.3474 56.7336 11.3474C57.0525 10.8093 57.7619 10.6379 58.4952 10.6379ZM78.7688 10.8332C78.2062 10.8332 78.157 11.3958 78.1324 11.7133L78.1085 12.3989H79.4782L79.429 11.7625C79.4051 11.3965 79.1853 10.8332 78.7688 10.8332ZM78.6705 10.442C80.0893 10.442 80.9216 11.4935 80.9455 12.8632H78.0839C78.0839 12.9362 78.06 13.0591 78.06 13.1568C78.06 13.9392 78.5496 14.8692 79.259 14.8692C79.9924 14.8692 80.3829 14.5756 80.8472 14.209L81.0193 14.3558C80.6274 15.1628 79.894 15.8224 78.7695 15.8224C77.253 15.8224 76.3729 14.4527 76.3729 13.1329C76.3722 11.8854 77.2284 10.442 78.6705 10.442ZM94.3707 10.6618C94.9333 10.6618 95.4468 11.0292 95.4468 11.4935C95.4468 11.8601 95.1292 12.2268 94.7134 12.2268C94.1269 12.2029 94.1269 11.6157 93.7104 11.6157C93.001 11.6396 93.0262 12.5197 93.001 12.5197V14.9894C92.9279 15.3574 93.5636 15.5281 93.5636 15.5281V15.7978H90.7764V15.5527C91.1431 15.4551 91.4367 15.2591 91.4367 14.9416V11.6888C91.4367 11.3713 91.1431 11.1753 90.7764 11.077V10.8332H93.001C93.001 11.1507 93.0262 11.4935 93.0262 11.4935C93.4168 11.0537 93.7104 10.6618 94.3707 10.6618ZM105.033 10.5642C105.914 10.5642 106.475 11.2736 106.475 12.0322V14.917C106.475 15.2359 106.72 15.4796 107.136 15.5534V15.7985H104.251V15.5786C104.641 15.4796 105.008 15.285 105.008 14.917V12.0322C105.008 11.6403 104.714 11.2989 104.275 11.2989C103.688 11.2736 103.222 11.7133 103.222 12.1059V14.917C103.222 15.2359 103.418 15.4796 103.785 15.5786V15.7985H100.998V15.5288C101.339 15.4557 101.609 15.2591 101.609 14.9662V11.6164C101.609 11.2006 101.389 11.0538 101.046 10.98V10.7356H103.223C103.223 10.9561 103.248 11.2736 103.272 11.2736C103.59 10.7356 104.299 10.5642 105.033 10.5642ZM117.872 10.4665C118.41 10.4665 118.582 10.5642 119.022 10.784C119.193 10.8571 119.413 10.8831 119.463 10.6379H119.706V12.0322H119.56C119.217 11.6403 118.973 10.8824 118.166 10.8824C117.75 10.8824 117.384 11.1507 117.384 11.5187C117.408 12.4228 120 12.4965 120 14.0369C120 14.9662 119.291 15.8722 118.264 15.8722C117.701 15.8722 117.311 15.5056 116.747 15.5056C116.553 15.5056 116.527 15.7254 116.404 15.8231H116.136V13.9638H116.404C116.674 14.6972 117.139 15.4564 118.019 15.4564C118.509 15.4564 118.85 15.1628 118.85 14.7231C118.85 14.0376 117.946 13.744 117.408 13.5494C116.527 13.1574 116.161 12.4972 116.161 12.1544C116.111 11.1999 116.943 10.4665 117.872 10.4665ZM26.6797 8.38812H33.4537V10.6379C32.8911 10.6379 33.1116 9.95309 32.4268 9.26892C32.0355 8.90158 31.3998 8.7063 30.2015 8.75546C29.7372 8.75546 29.615 9.07364 29.615 9.48947V11.8868C30.6173 11.8868 31.3513 11.6171 31.449 10.2965H31.7672V13.8669L31.449 13.8908C31.3513 13.0598 31.18 12.2773 29.9086 12.1797H29.615V14.6494C29.6642 14.9669 29.4682 15.3588 30.3975 15.4318C31.6934 15.5049 32.8917 14.9423 33.6742 13.4258H34.0409L33.4298 15.7985H26.6558V15.4796C26.9494 15.4318 27.5605 15.382 27.5605 15.0153V9.36588C27.5605 8.7541 27.0955 8.7541 26.6797 8.7541V8.38812ZM34.4321 10.6871H36.9018V10.9568C36.7311 11.0299 36.5351 11.0046 36.4375 11.1767C36.8042 11.6901 37.0001 11.9339 37.3176 12.4473C37.3668 12.4234 38.0516 11.6655 38.2715 11.1514C38.2223 10.9807 38.1008 11.0299 37.9533 10.9807V10.6871H39.4452V10.9308C39.0294 11.0776 38.7849 11.3965 38.5644 11.6894C38.32 12.0561 37.6597 12.8632 37.6597 12.8871C37.7819 13.083 38.4176 13.8416 38.6627 14.209C39.0785 14.8201 39.2738 15.113 39.9833 15.4796V15.7985H37.0732V15.4796C37.2691 15.4557 37.489 15.4318 37.489 15.285C37.4644 14.8931 37.0978 14.4527 36.7311 13.9392C36.3153 14.4766 36.0954 14.6965 35.924 15.3581C36.12 15.4312 36.2422 15.4557 36.4621 15.4796V15.7985H34.4567V15.5049C35.0193 15.4557 35.3129 15.0638 35.655 14.5756C35.924 14.2089 36.2176 13.8423 36.4375 13.4995C36.4375 13.4756 35.924 12.6194 35.655 12.2275C35.386 11.8861 35.2399 11.1514 34.4321 10.9807V10.6871ZM42.0371 8.85242H42.4038V10.6372H43.4798V11.176H42.4038V14.4527C42.4038 14.6965 42.4768 14.9901 42.7458 14.9901C43.1371 14.9901 43.6021 14.4766 43.6021 14.4766C43.6021 14.4766 43.7728 14.5497 43.7728 14.5756C43.6997 15.113 43.1856 15.8463 42.0856 15.8463C41.3277 15.8463 40.7651 15.285 40.7651 14.6234V11.176H40.1533L40.1287 10.6372C41.0832 10.3935 41.4991 9.70864 42.0371 8.85242ZM47.9802 10.5157C48.5667 10.5157 48.9586 10.907 48.9586 11.3726C48.9586 11.714 48.6158 12.0568 48.2492 12.0568C47.4421 12.0568 47.6627 11.4942 47.1485 11.4942C46.831 11.4942 46.4882 12.2036 46.4882 12.5463C46.4882 12.5463 46.4637 14.8938 46.4882 14.8938C46.4882 14.8938 46.3906 15.3834 47.0994 15.4073V15.7992H44.263V15.4325C44.8011 15.3834 44.9479 15.2366 44.9479 14.8938V11.5679C44.9479 11.2504 44.6543 11.0305 44.2876 10.9315V10.6878H46.5374C46.5128 10.9814 46.5128 11.1282 46.562 11.3972C46.8795 10.9069 47.2953 10.5157 47.9802 10.5157ZM65.4413 8.38812H72.117V10.6134C71.6527 10.6134 71.6766 9.73254 71.2608 9.3174C70.6742 8.73088 69.9648 8.73088 69.0601 8.73088C68.6443 8.73088 68.3507 8.9999 68.3507 9.36656V11.91C69.2069 11.91 70.1847 11.4204 70.2338 10.2467H70.5035V13.8423H70.2338C70.1847 12.717 69.5736 12.2527 69.0601 12.179H68.3507V14.917C68.3746 15.2106 68.7911 15.4557 69.1816 15.4557C70.8204 15.4557 71.6274 14.6733 72.4837 13.4497H72.8264C72.6305 14.3551 72.4106 14.8924 72.1409 15.7978H65.4413V15.5527C65.8817 15.4551 66.3706 15.3089 66.3706 14.9163V9.29214C66.3706 8.80326 65.881 8.65645 65.4413 8.65645V8.38812ZM73.1439 8.38812H75.3698V14.8931C75.3459 15.2359 75.6136 15.4557 75.9809 15.5786V15.8224H73.0947V15.5786C73.4628 15.4557 73.7564 15.2598 73.7564 14.917V9.07296C73.7557 8.68172 73.1439 8.80394 73.1439 8.38812ZM84.0017 10.4665C85.2485 10.4665 86.0556 10.9561 86.0556 11.4696C86.0556 12.1059 85.7381 12.2521 85.2984 12.2521C84.1485 12.2521 84.858 10.7349 84.0263 10.7349C83.366 10.7349 83.1462 11.8595 83.1462 12.6426C83.1462 13.6695 83.4398 14.9901 84.5889 14.9901C85.2007 14.9901 85.4691 14.6965 85.9825 14.4035L86.1546 14.5504C85.8118 15.3089 85.0048 15.8722 83.9526 15.8722C82.4122 15.8722 81.459 14.5264 81.459 13.1813C81.459 11.8123 82.4122 10.4665 84.0017 10.4665ZM88.6734 8.90158H88.9909V10.711H90.067V11.2497H88.9909V14.5265C88.9909 14.7702 89.0886 14.9908 89.3576 15.016C89.7734 15.0399 90.1401 14.5504 90.1401 14.5504L90.3599 14.6494C90.3347 15.2359 89.5529 15.8961 88.7212 15.8961C87.964 15.8961 87.3515 15.3335 87.3515 14.6971V11.2497H86.6913V10.711C87.6451 10.4911 88.0616 9.97767 88.6734 8.90158ZM107.625 10.6871H109.924V14.8931C109.924 15.2359 110.144 15.4318 110.511 15.5534V15.7732H107.698V15.5295C108.017 15.4066 108.261 15.2359 108.261 14.9177V11.5932C108.261 11.2743 107.991 11.0305 107.624 10.9315L107.625 10.6871ZM108.285 8.92616C108.285 8.53492 108.652 8.21674 109.094 8.21674C109.558 8.21674 109.925 8.53492 109.925 8.92616C109.925 9.34198 109.558 9.65948 109.094 9.65948C108.652 9.65948 108.285 9.34198 108.285 8.92616ZM113.494 10.442C114.424 10.442 115.5 10.7601 115.5 11.5665C115.5 11.9093 115.207 12.2521 114.791 12.2521C113.715 12.2521 114.327 10.711 113.471 10.711C112.81 10.711 112.59 11.8123 112.59 12.6187C112.59 13.6456 112.981 14.9662 114.008 14.9416C114.596 14.9163 114.913 14.6719 115.403 14.3551L115.574 14.5497C115.158 15.2591 114.424 15.8217 113.397 15.8217C111.831 15.8217 110.903 14.4759 110.903 13.1561C110.903 11.7871 111.93 10.442 113.494 10.442Z" fill="white"/>
</svg>
