<svg width="120" height="58" viewBox="0 0 120 58" fill="none" xmlns="http://www.w3.org/2000/svg">
<g clip-path="url(#clip0_235_3368)">
<path d="M59.8103 6.9696C59.8103 6.9696 74.5272 6.83048 87.9346 11.1105C101.345 15.3878 110 23.0968 110 23.0968L119.03 23.0995C119.03 23.0995 109.539 12.6381 91.2872 6.21943C73.035 -0.196512 59.8103 0.591841 59.8103 0.591841V6.9696Z" fill="#006BB6"/>
<path d="M29.1737 5.91666C12.0236 11.3151 0.588379 23.1022 0.588379 23.1022L9.62308 23.0995C9.62308 23.0995 17.1056 15.797 31.5661 11.2142C46.0238 6.63136 59.7859 6.97235 59.7859 6.97235V0.594587C59.7859 0.594587 46.4248 -0.0928345 29.1737 5.91666Z" fill="#0CB14B"/>
<path d="M52.4041 24.8836L66.4199 44.6497L66.3462 24.9463L75.3209 24.9245L75.3264 56.415L64.9577 56.4123L50.4837 36.8589L50.3282 56.4123H41.4653V24.8809" fill="#8E979D"/>
<path d="M119.439 56.6742L108.587 56.6196L99.0589 45.2581L87.9374 56.6742H78.8809L94.9098 40.3179L82.1598 25.1237L92.7357 25.1318L100.712 34.4284L109.957 25.1318H119.013L104.858 39.3713" fill="#006BB6"/>
<mask id="mask0_235_3368" style="mask-type:luminance" maskUnits="userSpaceOnUse" x="0" y="0" width="130" height="57">
<path d="M0.561035 56.6741H129.202V0.578182H0.561035V56.6741Z" fill="white"/>
</mask>
<g mask="url(#mask0_235_3368)">
<path d="M20.3054 39.7395L19.0205 38.1218L31.8552 25.1017H22.6841L9.61483 38.3892V25.1345H0.582858L0.561035 56.6713L9.61483 56.6741V47.6666L13.1938 44.0386L23.7807 56.6386L34.613 56.6359" fill="#0CB14B"/>
</g>
</g>
<defs>
<clipPath id="clip0_235_3368">
<rect width="120" height="57.2353" fill="white"/>
</clipPath>
</defs>
</svg>
