<svg width="120" height="26" viewBox="0 0 120 26" fill="none" xmlns="http://www.w3.org/2000/svg">
<g clip-path="url(#clip0_235_3352)">
<path d="M120 11.596V9.48565H117.379V6.20481L117.291 6.23197L114.83 6.98512L114.781 6.99986V9.48577H110.896V8.1009C110.896 7.45606 111.04 6.9626 111.324 6.6335C111.606 6.30835 112.01 6.14305 112.525 6.14305C112.895 6.14305 113.278 6.23023 113.664 6.40215L113.76 6.44533V4.22281L113.715 4.2061C113.355 4.07678 112.866 4.01166 112.259 4.01166C111.495 4.01166 110.8 4.178 110.195 4.50768C109.589 4.83782 109.112 5.30911 108.778 5.90833C108.445 6.50685 108.276 7.19813 108.276 7.96311V9.48565H106.451V11.596H108.276V20.4867H110.896V11.596H114.781V17.2459C114.781 19.5728 115.879 20.7519 118.043 20.7519C118.399 20.7519 118.773 20.7103 119.156 20.6287C119.545 20.5448 119.81 20.4612 119.966 20.3718L120 20.3513V18.2215L119.894 18.2919C119.751 18.3866 119.574 18.4641 119.367 18.5216C119.158 18.5803 118.984 18.6096 118.849 18.6096C118.342 18.6096 117.967 18.473 117.734 18.2033C117.499 17.9312 117.379 17.4554 117.379 16.7898V11.596H120ZM100.601 18.61C99.6505 18.61 98.9008 18.2947 98.3725 17.6737C97.841 17.0495 97.5717 16.1596 97.5717 15.0289C97.5717 13.8624 97.841 12.9494 98.3728 12.3142C98.9014 11.6832 99.6439 11.3629 100.58 11.3629C101.488 11.3629 102.211 11.6688 102.729 12.2726C103.25 12.8794 103.514 13.7851 103.514 14.9652C103.514 16.1598 103.266 17.0775 102.776 17.6913C102.289 18.3005 101.558 18.61 100.601 18.61ZM100.718 9.22064C98.9037 9.22064 97.4629 9.75218 96.4356 10.8005C95.409 11.849 94.8884 13.2999 94.8884 15.1133C94.8884 16.8358 95.3965 18.2212 96.3988 19.2306C97.4011 20.2402 98.765 20.7517 100.453 20.7517C102.211 20.7517 103.623 20.2127 104.65 19.1499C105.677 18.0882 106.197 16.651 106.197 14.8799C106.197 13.1305 105.709 11.7348 104.746 10.7321C103.782 9.72908 102.427 9.22064 100.718 9.22064ZM90.6648 9.22064C89.4308 9.22064 88.4101 9.53626 87.6304 10.1586C86.8459 10.7846 86.448 11.6057 86.448 12.5992C86.448 13.1157 86.5339 13.5744 86.7029 13.9635C86.8729 14.3539 87.1361 14.6976 87.4857 14.9861C87.8327 15.2723 88.3683 15.572 89.078 15.8769C89.6747 16.1224 90.1197 16.3301 90.4023 16.4938C90.6786 16.6542 90.8746 16.8155 90.9854 16.9725C91.093 17.1262 91.1476 17.3366 91.1476 17.5961C91.1476 18.3352 90.5941 18.6948 89.4552 18.6948C89.0328 18.6948 88.5509 18.6066 88.0231 18.4327C87.499 18.2615 87.0044 18.0107 86.5565 17.6891L86.4477 17.6111V20.1332L86.4877 20.1518C86.8583 20.3229 87.3257 20.4672 87.8765 20.5807C88.4262 20.6944 88.9257 20.7522 89.3597 20.7522C90.6987 20.7522 91.777 20.435 92.5638 19.809C93.3556 19.1787 93.7569 18.3382 93.7569 17.3103C93.7569 16.5688 93.5408 15.9329 93.115 15.42C92.6922 14.9114 91.9582 14.4444 90.9344 14.0316C90.1188 13.7042 89.5963 13.4325 89.3808 13.2239C89.173 13.0223 89.0675 12.7374 89.0675 12.3765C89.0675 12.0565 89.1977 11.8002 89.4651 11.5927C89.7345 11.3841 90.1096 11.278 90.5799 11.278C91.0164 11.278 91.463 11.3469 91.9071 11.482C92.3509 11.6172 92.7407 11.7981 93.0661 12.0195L93.1731 12.0926V9.70017L93.132 9.68253C92.8318 9.55379 92.436 9.44363 91.9551 9.35425C91.4765 9.26544 91.0424 9.22064 90.6648 9.22064ZM79.6187 18.61C78.6681 18.61 77.9182 18.2947 77.39 17.6737C76.8584 17.0495 76.5895 16.1598 76.5895 15.0289C76.5895 13.8624 76.8587 12.9494 77.3906 12.3142C77.9188 11.6832 78.6611 11.3629 79.5977 11.3629C80.5057 11.3629 81.2288 11.6688 81.7468 12.2726C82.2675 12.8794 82.5316 13.7851 82.5316 14.9652C82.5316 16.1598 82.283 17.0775 81.7932 17.6913C81.3067 18.3005 80.5755 18.61 79.6187 18.61ZM79.7355 9.22064C77.921 9.22064 76.48 9.75218 75.4533 10.8005C74.4267 11.849 73.9058 13.2999 73.9058 15.1133C73.9058 16.8365 74.4142 18.2212 75.4165 19.2306C76.4188 20.2402 77.7826 20.7517 79.4701 20.7517C81.2283 20.7517 82.6408 20.2127 83.6677 19.1499C84.6942 18.0882 85.2146 16.651 85.2146 14.8799C85.2146 13.1305 84.7263 11.7348 83.763 10.7321C82.7991 9.72908 81.444 9.22064 79.7355 9.22064ZM69.9293 11.3908V9.48565H67.3416V20.4865H69.9293V14.8591C69.9293 13.9022 70.1462 13.1161 70.5743 12.5224C70.997 11.9357 71.5602 11.6384 72.2479 11.6384C72.481 11.6384 72.7427 11.6768 73.026 11.7529C73.3065 11.8284 73.5096 11.9105 73.6294 11.9969L73.7382 12.0757V9.46685L73.6963 9.44885C73.4553 9.34647 73.1143 9.29481 72.683 9.29481C72.0327 9.29481 71.4508 9.50376 70.9523 9.91516C70.5148 10.2768 70.1986 10.7725 69.9568 11.3908H69.9293ZM62.7074 9.22064C61.5202 9.22064 60.4613 9.4752 59.5607 9.97703C58.6581 10.48 57.9601 11.1981 57.4852 12.1112C57.0124 13.0221 56.7723 14.0861 56.7723 15.2727C56.7723 16.3121 57.0051 17.266 57.4651 18.1066C57.9254 18.9487 58.5769 19.6075 59.4015 20.0644C60.225 20.5207 61.1768 20.7521 62.2306 20.7521C63.4603 20.7521 64.5103 20.5062 65.3521 20.0213L65.3861 20.0018V17.6311L65.2774 17.7105C64.896 17.9882 64.4699 18.21 64.0114 18.3697C63.554 18.5293 63.137 18.61 62.7714 18.61C61.756 18.61 60.9409 18.2923 60.3492 17.6659C59.7563 17.0387 59.4556 16.158 59.4556 15.0497C59.4556 13.9345 59.7691 13.0312 60.387 12.3646C61.0031 11.7 61.8197 11.3629 62.8141 11.3629C63.6646 11.3629 64.4935 11.6509 65.2776 12.2197L65.3861 12.2986V9.80058L65.3511 9.78085C65.056 9.61566 64.6535 9.47927 64.1539 9.37584C63.6564 9.27264 63.1698 9.22064 62.7074 9.22064ZM54.9901 9.48577H52.4024V20.4865H54.9901V9.48577ZM53.7227 4.79939C53.2968 4.79939 52.9254 4.94438 52.6202 5.23169C52.3137 5.5198 52.1583 5.88256 52.1583 6.31067C52.1583 6.73206 52.3119 7.0882 52.6154 7.36865C52.917 7.6483 53.2896 7.79003 53.7229 7.79003C54.156 7.79003 54.53 7.6483 54.8352 7.36912C55.1423 7.0882 55.2981 6.73217 55.2981 6.31067C55.2981 5.89754 55.1465 5.53849 54.8478 5.24329C54.5494 4.94868 54.1707 4.79939 53.7227 4.79939ZM47.2662 8.67412V20.4865H49.9071V5.13615H46.252L41.6061 16.5379L37.0976 5.13615H33.2937V20.4863H35.7754V8.67296H35.8606L40.6215 20.4865H42.4944L47.181 8.67412H47.2662Z" fill="#706D6E"/>
<path d="M12.1734 12.1799H0V0.0065918H12.1734V12.1799Z" fill="#F1511B"/>
<path d="M25.6142 12.1799H13.441V0.0065918H25.6142V12.1799Z" fill="#80CC28"/>
<path d="M12.173 25.6255H0V13.4522H12.173V25.6255Z" fill="#00ADEF"/>
<path d="M25.6142 25.6255H13.441V13.4522H25.6142V25.6255Z" fill="#FBBC09"/>
</g>
<defs>
<clipPath id="clip0_235_3352">
<rect width="120" height="25.632" fill="white"/>
</clipPath>
</defs>
</svg>
