<svg width="120" height="23" viewBox="0 0 120 23" fill="none" xmlns="http://www.w3.org/2000/svg">
<path fill-rule="evenodd" clip-rule="evenodd" d="M23.8368 0.00748427L23.1857 5.26132H10.5077C10.5077 5.26132 17.7448 8.03792 20.5813 9.40002C20.8208 9.51228 21.1051 9.68442 21.2623 9.78171C21.5018 9.93888 21.7413 10.1185 22.0032 10.328C23.2381 11.3384 23.3579 13.4414 22.7442 15.29C22.0332 17.4305 19.9451 19.5784 16.5024 19.5784C15.2975 19.5784 0 19.5634 0 19.5634L0.725958 14.3021H14.0027C14.0027 14.3021 5.06673 10.6199 4.53536 10.3505C-0.770861 7.69365 1.95335 0.0224523 7.22215 0H23.8368V0.00748427Z" fill="#FFFFE3"/>
<path fill-rule="evenodd" clip-rule="evenodd" d="M26.1571 0H35.5497L34.7489 6.78059H37.6452L38.4834 0H47.876L45.5035 19.5859H36.096L36.9866 12.7903H34.0753L33.1922 19.5859H23.7847L26.1571 0Z" fill="#FFFFE3"/>
<path fill-rule="evenodd" clip-rule="evenodd" d="M58.6156 20.4091C63.0237 20.4091 65.9126 18.5606 67.8285 16.6072C69.5049 14.9083 70.6724 12.1916 70.9344 10.7098C71.2487 8.96597 72.1917 0.00750732 72.1917 0.00750732H62.5372L60.8458 13.5387H58.3461L60.0151 0.00750732H50.4429C50.4429 0.00750732 49.2155 10.126 49.0659 11.8848C48.9761 12.9101 48.9237 14.1599 49.6721 15.6193C50.877 17.9469 53.6237 20.4166 57.7175 20.4091H58.6156Z" fill="#FFFFE3"/>
<path fill-rule="evenodd" clip-rule="evenodd" d="M96.7095 22.4598L96.964 19.5859H117.882L118.346 15.1104H107.068L107.359 12.4536H118.713L119.282 7.1623H108.13L108.385 4.50545H119.596L120 0.00750732H99.3439L97.5926 14.6539L90.5875 10.9418C90.5875 10.9418 94.3595 10.5077 95.9312 6.75816C97.2035 3.71962 95.1977 0.0149916 91.5305 0.0149916C90.5052 0.0149916 74.7886 0.0149916 74.7886 0.0149916L74.1599 5.20147H87.6463L87.3245 7.59638H73.8606L72.4386 19.4212H80.5514L81.3821 13.1047L96.6945 22.4598H96.7095Z" fill="#FFFFE3"/>
</svg>
